RobotoSerifText-HairlineCond.ufo
<glyph name="exclam" format="2">
  <advance width="181"/>
  <unicode hex="0021"/>
  <outline>
    <contour>
      <point x="114" y="735" type="line"/>
      <point x="114" y="544"/>
      <point x="103" y="429"/>
      <point x="103" y="168" type="curve"/>
      <point x="78" y="168" type="line"/>
      <point x="78" y="429"/>
      <point x="67" y="543"/>
      <point x="67" y="735" type="curve"/>
    </contour>
    <component base="period" xOffset="8"/>
  </outline>
</glyph>
<glyph name="numbersign" format="2">
  <advance width="506"/>
  <unicode hex="0023"/>
  <outline>
    <contour>
      <point x="79" y="0" type="line"/>
      <point x="106" y="0" type="line"/>
      <point x="260" y="750" type="line"/>
      <point x="233" y="750" type="line"/>
    </contour>
    <contour>
      <point x="36" y="261" type="line"/>
      <point x="444" y="261" type="line"/>
      <point x="444" y="299" type="line"/>
      <point x="36" y="299" type="line"/>
    </contour>
    <contour>
      <point x="73" y="471" type="line"/>
      <point x="480" y="471" type="line"/>
      <point x="480" y="509" type="line"/>
      <point x="73" y="509" type="line"/>
    </contour>
    <contour>
      <point x="244" y="0" type="line"/>
      <point x="271" y="0" type="line"/>
      <point x="426" y="750" type="line"/>
      <point x="396" y="750" type="line"/>
    </contour>
  </outline>
</glyph>
<glyph name="dollar" format="2">
  <advance width="452"/>
  <unicode hex="0024"/>
  <outline>
    <contour>
      <point x="216" y="787" type="line"/>
      <point x="216" y="689" type="line"/>
      <point x="216" y="680" type="line"/>
      <point x="216" y="28" type="line"/>
      <point x="216" y="23" type="line"/>
      <point x="216" y="-120" type="line"/>
      <point x="248" y="-120" type="line"/>
      <point x="248" y="20" type="line"/>
      <point x="248" y="25" type="line"/>
      <point x="248" y="676" type="line"/>
      <point x="248" y="689" type="line"/>
      <point x="248" y="787" type="line"/>
    </contour>
    <contour>
      <point x="235" y="36" type="curve" smooth="yes"/>
      <point x="163" y="36"/>
      <point x="95" y="66"/>
      <point x="62" y="124" type="curve"/>
      <point x="56" y="106"/>
      <point x="68" y="99"/>
      <point x="81" y="78" type="curve"/>
      <point x="81" y="182" type="line"/>
      <point x="37" y="182" type="line"/>
      <point x="37" y="96" type="line"/>
      <point x="73" y="49"/>
      <point x="149" y="8"/>
      <point x="236" y="8" type="curve" smooth="yes"/>
      <point x="337" y="8"/>
      <point x="417" y="72"/>
      <point x="417" y="194" type="curve" smooth="yes"/>
      <point x="417" y="317"/>
      <point x="330" y="353"/>
      <point x="255" y="377" type="curve" smooth="yes"/>
      <point x="175" y="403"/>
      <point x="95" y="428"/>
      <point x="95" y="533" type="curve" smooth="yes"/>
      <point x="95" y="620"/>
      <point x="151" y="669"/>
      <point x="236" y="669" type="curve" smooth="yes"/>
      <point x="303" y="669"/>
      <point x="353" y="645"/>
      <point x="376" y="606" type="curve"/>
      <point x="381" y="628"/>
      <point x="367" y="653"/>
      <point x="353" y="656" type="curve"/>
      <point x="353" y="555" type="line"/>
      <point x="398" y="555" type="line"/>
      <point x="398" y="639" type="line"/>
      <point x="372" y="665"/>
      <point x="315" y="698"/>
      <point x="236" y="698" type="curve" smooth="yes"/>
      <point x="133" y="698"/>
      <point x="61" y="632"/>
      <point x="61" y="530" type="curve" smooth="yes"/>
      <point x="61" y="410"/>
      <point x="145" y="376"/>
      <point x="217" y="352" type="curve" smooth="yes"/>
      <point x="299" y="325"/>
      <point x="383" y="307"/>
      <point x="383" y="188" type="curve" smooth="yes"/>
      <point x="383" y="83"/>
      <point x="320" y="36"/>
    </contour>
  </outline>
</glyph>
<glyph name="percent" format="2">
  <advance width="601"/>
  <unicode hex="0025"/>
  <outline>
    <contour>
      <point x="154" y="382" type="curve" smooth="yes"/>
      <point x="221" y="382"/>
      <point x="270" y="454"/>
      <point x="270" y="551" type="curve" smooth="yes"/>
      <point x="270" y="649"/>
      <point x="221" y="720"/>
      <point x="154" y="720" type="curve" smooth="yes"/>
      <point x="86" y="720"/>
      <point x="37" y="648"/>
      <point x="37" y="551" type="curve" smooth="yes"/>
      <point x="37" y="453"/>
      <point x="86" y="382"/>
    </contour>
    <contour>
      <point x="154" y="411" type="curve" smooth="yes"/>
      <point x="105" y="411"/>
      <point x="76" y="469"/>
      <point x="76" y="551" type="curve" smooth="yes"/>
      <point x="76" y="634"/>
      <point x="105" y="691"/>
      <point x="154" y="691" type="curve" smooth="yes"/>
      <point x="202" y="691"/>
      <point x="231" y="634"/>
      <point x="231" y="551" type="curve" smooth="yes"/>
      <point x="231" y="469"/>
      <point x="202" y="411"/>
    </contour>
    <contour>
      <point x="444" y="-10" type="curve" smooth="yes"/>
      <point x="511" y="-10"/>
      <point x="560" y="62"/>
      <point x="560" y="159" type="curve" smooth="yes"/>
      <point x="560" y="257"/>
      <point x="511" y="328"/>
      <point x="444" y="328" type="curve" smooth="yes"/>
      <point x="376" y="328"/>
      <point x="328" y="256"/>
      <point x="328" y="159" type="curve" smooth="yes"/>
      <point x="328" y="61"/>
      <point x="376" y="-10"/>
    </contour>
    <contour>
      <point x="33" y="0" type="line"/>
      <point x="69" y="0" type="line"/>
      <point x="570" y="710" type="line"/>
      <point x="534" y="710" type="line"/>
    </contour>
    <contour>
      <point x="444" y="19" type="curve" smooth="yes"/>
      <point x="396" y="19"/>
      <point x="366" y="77"/>
      <point x="366" y="159" type="curve" smooth="yes"/>
      <point x="366" y="242"/>
      <point x="396" y="299"/>
      <point x="444" y="299" type="curve" smooth="yes"/>
      <point x="492" y="299"/>
      <point x="521" y="242"/>
      <point x="521" y="159" type="curve" smooth="yes"/>
      <point x="521" y="77"/>
      <point x="492" y="19"/>
    </contour>
  </outline>
</glyph>
<glyph name="ampersand" format="2">
  <advance width="567"/>
  <unicode hex="0026"/>
  <outline>
    <contour>
      <point x="476" y="327" type="curve" smooth="yes"/>
      <point x="481" y="360"/>
      <point x="503" y="365"/>
      <point x="539" y="365" type="curve" smooth="yes"/>
      <point x="541" y="365" type="line"/>
      <point x="541" y="394" type="line"/>
      <point x="385" y="394" type="line"/>
      <point x="385" y="365" type="line"/>
      <point x="386" y="365" type="line" smooth="yes"/>
      <point x="409" y="365"/>
      <point x="445" y="362"/>
      <point x="445" y="355" type="curve" smooth="yes"/>
      <point x="445" y="243"/>
      <point x="377" y="19"/>
      <point x="234" y="19" type="curve" smooth="yes"/>
      <point x="135" y="19"/>
      <point x="84" y="92"/>
      <point x="84" y="197" type="curve" smooth="yes"/>
      <point x="84" y="301"/>
      <point x="131" y="350"/>
      <point x="209" y="387" type="curve"/>
      <point x="203" y="413" type="line"/>
      <point x="113" y="380"/>
      <point x="46" y="311"/>
      <point x="46" y="197" type="curve" smooth="yes"/>
      <point x="46" y="74"/>
      <point x="115" y="-10"/>
      <point x="230" y="-10" type="curve" smooth="yes"/>
      <point x="402" y="-10"/>
      <point x="460" y="223"/>
    </contour>
    <contour>
      <point x="555" y="0" type="line"/>
      <point x="555" y="29" type="line"/>
      <point x="533" y="29" type="line" smooth="yes"/>
      <point x="498" y="29"/>
      <point x="483" y="45"/>
      <point x="457" y="73" type="curve" smooth="yes"/>
      <point x="265" y="284"/>
      <point x="197" y="420"/>
      <point x="197" y="552" type="curve" smooth="yes"/>
      <point x="197" y="644"/>
      <point x="234" y="689"/>
      <point x="287" y="689" type="curve" smooth="yes"/>
      <point x="335" y="689"/>
      <point x="361" y="646"/>
      <point x="361" y="588" type="curve" smooth="yes"/>
      <point x="361" y="496"/>
      <point x="297" y="449"/>
      <point x="213" y="415" type="curve"/>
      <point x="226" y="392" type="line"/>
      <point x="313" y="427"/>
      <point x="398" y="487"/>
      <point x="398" y="587" type="curve" smooth="yes"/>
      <point x="398" y="665"/>
      <point x="358" y="718"/>
      <point x="287" y="718" type="curve" smooth="yes"/>
      <point x="213" y="718"/>
      <point x="159" y="656"/>
      <point x="159" y="552" type="curve" smooth="yes"/>
      <point x="159" y="373"/>
      <point x="293" y="192"/>
      <point x="474" y="0" type="curve"/>
    </contour>
  </outline>
</glyph>
<glyph name="asterisk" format="2">
  <advance width="316"/>
  <unicode hex="002A"/>
  <outline>
    <contour>
      <point x="45" y="434" type="line"/>
      <point x="81" y="460"/>
      <point x="97" y="482"/>
      <point x="162" y="528" type="curve"/>
      <point x="153" y="545" type="line"/>
      <point x="88" y="498"/>
      <point x="64" y="491"/>
      <point x="28" y="465" type="curve"/>
    </contour>
    <contour>
      <point x="141" y="710" type="line"/>
      <point x="141" y="658"/>
      <point x="149" y="629"/>
      <point x="149" y="536" type="curve"/>
      <point x="167" y="536" type="line"/>
      <point x="167" y="629"/>
      <point x="175" y="658"/>
      <point x="175" y="710" type="curve"/>
    </contour>
    <contour>
      <point x="28" y="608" type="line"/>
      <point x="64" y="582"/>
      <point x="88" y="575"/>
      <point x="153" y="528" type="curve"/>
      <point x="162" y="545" type="line"/>
      <point x="97" y="591"/>
      <point x="81" y="612"/>
      <point x="45" y="638" type="curve"/>
    </contour>
    <contour>
      <point x="141" y="363" type="curve"/>
      <point x="175" y="363" type="line"/>
      <point x="175" y="414"/>
      <point x="167" y="443"/>
      <point x="167" y="536" type="curve"/>
      <point x="149" y="536" type="line"/>
      <point x="149" y="443"/>
      <point x="141" y="414"/>
    </contour>
    <contour>
      <point x="163" y="528" type="line"/>
      <point x="228" y="575"/>
      <point x="251" y="582"/>
      <point x="288" y="608" type="curve"/>
      <point x="271" y="638" type="line"/>
      <point x="234" y="612"/>
      <point x="219" y="591"/>
      <point x="153" y="545" type="curve"/>
    </contour>
    <contour>
      <point x="271" y="434" type="curve"/>
      <point x="288" y="465" type="line"/>
      <point x="251" y="491"/>
      <point x="228" y="498"/>
      <point x="163" y="545" type="curve"/>
      <point x="153" y="528" type="line"/>
      <point x="219" y="482"/>
      <point x="234" y="460"/>
    </contour>
  </outline>
</glyph>
<glyph name="plus" format="2">
  <advance width="452"/>
  <unicode hex="002B"/>
  <outline>
    <contour>
      <point x="209" y="532" type="line"/>
      <point x="209" y="150" type="line"/>
      <point x="241" y="150" type="line"/>
      <point x="241" y="532" type="line"/>
    </contour>
    <contour>
      <point x="379" y="355" type="line"/>
      <point x="73" y="355" type="line"/>
      <point x="73" y="327" type="line"/>
      <point x="379" y="327" type="line"/>
    </contour>
  </outline>
</glyph>
<glyph name="one" format="2">
  <advance width="452"/>
  <unicode hex="0031"/>
  <outline>
    <contour>
      <point x="270" y="62" type="curve" smooth="yes"/>
      <point x="270" y="609" type="line"/>
      <point x="246" y="609" type="line"/>
      <point x="219" y="557"/>
      <point x="162" y="535"/>
      <point x="91" y="533" type="curve"/>
      <point x="91" y="505" type="line"/>
      <point x="156" y="503"/>
      <point x="224" y="528"/>
      <point x="239" y="574" type="curve"/>
      <point x="232" y="574" type="line"/>
      <point x="232" y="62" type="line" smooth="yes"/>
      <point x="232" y="33"/>
      <point x="200" y="26"/>
      <point x="148" y="26" type="curve" smooth="yes"/>
      <point x="100" y="26" type="line"/>
      <point x="100" y="0" type="line"/>
      <point x="399" y="0" type="line"/>
      <point x="399" y="26" type="line"/>
      <point x="363" y="26" type="line" smooth="yes"/>
      <point x="306" y="26"/>
      <point x="270" y="33"/>
    </contour>
  </outline>
</glyph>
<glyph name="five" format="2">
  <advance width="452"/>
  <unicode hex="0035"/>
  <outline>
    <contour>
      <point x="224" y="-90" type="curve"/>
      <point x="125" y="-90"/>
      <point x="68" y="-26"/>
      <point x="40" y="56" type="curve"/>
      <point x="66" y="71" type="line"/>
      <point x="91" y="-5"/>
      <point x="139" y="-62"/>
      <point x="224" y="-62" type="curve"/>
      <point x="318" y="-62"/>
      <point x="374" y="28"/>
      <point x="374" y="151" type="curve" smooth="yes"/>
      <point x="374" y="269"/>
      <point x="313" y="338"/>
      <point x="237" y="338" type="curve" smooth="yes"/>
      <point x="177" y="338"/>
      <point x="136" y="302"/>
      <point x="100" y="240" type="curve"/>
      <point x="76" y="240" type="line"/>
      <point x="76" y="609" type="line"/>
      <point x="380" y="609" type="line"/>
      <point x="371" y="574" type="line"/>
      <point x="91" y="574" type="line"/>
      <point x="105" y="589" type="line"/>
      <point x="105" y="266" type="line"/>
      <point x="102" y="256"/>
      <point x="96" y="246"/>
      <point x="89" y="258" type="curve"/>
      <point x="123" y="320"/>
      <point x="172" y="366"/>
      <point x="243" y="366" type="curve" smooth="yes"/>
      <point x="351" y="366"/>
      <point x="414" y="265"/>
      <point x="414" y="151" type="curve" smooth="yes"/>
      <point x="414" y="16"/>
      <point x="340" y="-90"/>
    </contour>
  </outline>
</glyph>
<glyph name="nine" format="2">
  <advance width="452"/>
  <unicode hex="0039"/>
  <outline>
    <contour>
      <point x="76" y="-65" type="line"/>
      <point x="256" y="-47"/>
      <point x="373" y="107"/>
      <point x="373" y="338" type="curve" smooth="yes"/>
      <point x="373" y="506"/>
      <point x="311" y="591"/>
      <point x="221" y="591" type="curve" smooth="yes"/>
      <point x="129" y="591"/>
      <point x="75" y="500"/>
      <point x="75" y="390" type="curve" smooth="yes"/>
      <point x="75" y="284"/>
      <point x="125" y="206"/>
      <point x="210" y="206" type="curve" smooth="yes"/>
      <point x="288" y="206"/>
      <point x="349" y="281"/>
      <point x="384" y="369" type="curve"/>
      <point x="393" y="347" type="line"/>
      <point x="363" y="260"/>
      <point x="294" y="177"/>
      <point x="206" y="177" type="curve" smooth="yes"/>
      <point x="104" y="177"/>
      <point x="35" y="265"/>
      <point x="35" y="390" type="curve" smooth="yes"/>
      <point x="35" y="513"/>
      <point x="111" y="619"/>
      <point x="221" y="619" type="curve" smooth="yes"/>
      <point x="330" y="619"/>
      <point x="413" y="515"/>
      <point x="413" y="338" type="curve" smooth="yes"/>
      <point x="413" y="107"/>
      <point x="286" y="-76"/>
      <point x="80" y="-93" type="curve"/>
    </contour>
  </outline>
</glyph>
<glyph name="less" format="2">
  <advance width="452"/>
  <unicode hex="003C"/>
  <outline>
    <contour>
      <point x="372" y="528" type="line"/>
      <point x="80" y="351" type="line"/>
      <point x="80" y="325" type="line"/>
      <point x="96" y="326" type="line"/>
      <point x="372" y="493" type="line"/>
    </contour>
    <contour>
      <point x="372" y="167" type="line"/>
      <point x="94" y="336" type="line"/>
      <point x="80" y="336" type="line"/>
      <point x="80" y="310" type="line"/>
      <point x="372" y="132" type="line"/>
    </contour>
  </outline>
</glyph>
<glyph name="C" format="2">
  <advance width="557"/>
  <unicode hex="0043"/>
  <anchor x="299" y="741" name="top"/>
  <anchor x="299" y="0" name="bottom"/>
  <outline>
    <contour>
      <point x="292" y="692" type="curve" smooth="yes"/>
      <point x="391" y="692"/>
      <point x="452" y="612"/>
      <point x="478" y="507" type="curve"/>
      <point x="507" y="507" type="line"/>
      <point x="507" y="710" type="line"/>
      <point x="482" y="710" type="line"/>
      <point x="472" y="548" type="line"/>
      <point x="476" y="554"/>
      <point x="481" y="560"/>
      <point x="487" y="569" type="curve"/>
      <point x="456" y="658"/>
      <point x="385" y="720"/>
      <point x="291" y="720" type="curve" smooth="yes"/>
      <point x="154" y="720"/>
      <point x="38" y="569"/>
      <point x="38" y="355" type="curve" smooth="yes"/>
      <point x="38" y="138"/>
      <point x="146" y="-10"/>
      <point x="298" y="-10" type="curve" smooth="yes"/>
      <point x="416" y="-10"/>
      <point x="491" y="75"/>
      <point x="518" y="197" type="curve"/>
      <point x="490" y="213" type="line"/>
      <point x="468" y="105"/>
      <point x="406" y="18"/>
      <point x="298" y="18" type="curve" smooth="yes"/>
      <point x="165" y="18"/>
      <point x="79" y="152"/>
      <point x="79" y="355" type="curve" smooth="yes"/>
      <point x="79" y="558"/>
      <point x="176" y="692"/>
    </contour>
  </outline>
</glyph>
<glyph name="H" format="2">
  <advance width="634"/>
  <unicode hex="0048"/>
  <anchor x="317" y="741" name="top"/>
  <anchor x="317" y="0" name="bottom"/>
  <outline>
    <contour>
      <point x="142" y="380" type="line"/>
      <point x="142" y="352" type="line"/>
      <point x="506" y="352" type="line"/>
      <point x="506" y="380" type="line"/>
    </contour>
    <contour>
      <point x="37" y="0" type="line"/>
      <point x="229" y="0" type="line"/>
      <point x="229" y="29" type="line"/>
      <point x="222" y="29" type="line" smooth="yes"/>
      <point x="191" y="29"/>
      <point x="152" y="32"/>
      <point x="152" y="39" type="curve" smooth="yes"/>
      <point x="152" y="671" type="line" smooth="yes"/>
      <point x="152" y="678"/>
      <point x="191" y="681"/>
      <point x="222" y="681" type="curve" smooth="yes"/>
      <point x="229" y="681" type="line"/>
      <point x="229" y="710" type="line"/>
      <point x="37" y="710" type="line"/>
      <point x="37" y="681" type="line"/>
      <point x="45" y="681" type="line" smooth="yes"/>
      <point x="85" y="681"/>
      <point x="114" y="674"/>
      <point x="114" y="645" type="curve" smooth="yes"/>
      <point x="114" y="65" type="line" smooth="yes"/>
      <point x="114" y="36"/>
      <point x="85" y="29"/>
      <point x="45" y="29" type="curve" smooth="yes"/>
      <point x="37" y="29" type="line"/>
    </contour>
    <contour>
      <point x="405" y="0" type="line"/>
      <point x="598" y="0" type="line"/>
      <point x="598" y="29" type="line"/>
      <point x="589" y="29" type="line" smooth="yes"/>
      <point x="550" y="29"/>
      <point x="521" y="36"/>
      <point x="521" y="65" type="curve" smooth="yes"/>
      <point x="521" y="645" type="line" smooth="yes"/>
      <point x="521" y="674"/>
      <point x="550" y="681"/>
      <point x="589" y="681" type="curve" smooth="yes"/>
      <point x="598" y="681" type="line"/>
      <point x="598" y="710" type="line"/>
      <point x="405" y="710" type="line"/>
      <point x="405" y="681" type="line"/>
      <point x="412" y="681" type="line" smooth="yes"/>
      <point x="443" y="681"/>
      <point x="483" y="678"/>
      <point x="483" y="671" type="curve" smooth="yes"/>
      <point x="483" y="39" type="line" smooth="yes"/>
      <point x="483" y="32"/>
      <point x="443" y="29"/>
      <point x="412" y="29" type="curve" smooth="yes"/>
      <point x="405" y="29" type="line"/>
    </contour>
  </outline>
</glyph>
<glyph name="L" format="2">
  <advance width="474"/>
  <unicode hex="004C"/>
  <anchor x="304" y="741" name="top"/>
  <anchor x="391" y="710" name="right"/>
  <anchor x="393" y="410" name="mid"/>
  <anchor x="304" y="0" name="bottom"/>
  <outline>
    <contour>
      <point x="233" y="710" type="line"/>
      <point x="233" y="681" type="line"/>
      <point x="223" y="681" type="line" smooth="yes"/>
      <point x="182" y="681"/>
      <point x="152" y="674"/>
      <point x="152" y="645" type="curve" smooth="yes"/>
      <point x="152" y="29" type="line"/>
      <point x="298" y="29" type="line" smooth="yes"/>
      <point x="368" y="29"/>
      <point x="396" y="36"/>
      <point x="398" y="72" type="curve" smooth="yes"/>
      <point x="406" y="194" type="line"/>
      <point x="431" y="194" type="line"/>
      <point x="431" y="0" type="line"/>
      <point x="37" y="0" type="line"/>
      <point x="37" y="29" type="line"/>
      <point x="45" y="29" type="line" smooth="yes"/>
      <point x="85" y="29"/>
      <point x="114" y="36"/>
      <point x="114" y="65" type="curve" smooth="yes"/>
      <point x="114" y="645" type="line" smooth="yes"/>
      <point x="114" y="674"/>
      <point x="85" y="681"/>
      <point x="45" y="681" type="curve" smooth="yes"/>
      <point x="37" y="681" type="line"/>
      <point x="37" y="710" type="line"/>
    </contour>
  </outline>
</glyph>
<glyph name="M" format="2">
  <advance width="729"/>
  <unicode hex="004D"/>
  <anchor x="354" y="0" name="bottom"/>
  <outline>
    <contour>
      <point x="37" y="0" type="line"/>
      <point x="214" y="0" type="line"/>
      <point x="214" y="29" type="line"/>
      <point x="212" y="29" type="line" smooth="yes"/>
      <point x="185" y="29"/>
      <point x="145" y="32"/>
      <point x="145" y="39" type="curve" smooth="yes"/>
      <point x="145" y="698" type="line"/>
      <point x="141" y="701" type="line"/>
      <point x="347" y="-2" type="line"/>
      <point x="376" y="-2" type="line"/>
      <point x="582" y="700" type="line"/>
      <point x="577" y="702" type="line"/>
      <point x="577" y="39" type="line" smooth="yes"/>
      <point x="577" y="32"/>
      <point x="545" y="29"/>
      <point x="515" y="29" type="curve" smooth="yes"/>
      <point x="508" y="29" type="line"/>
      <point x="508" y="0" type="line"/>
      <point x="693" y="0" type="line"/>
      <point x="693" y="29" type="line"/>
      <point x="684" y="29" type="line" smooth="yes"/>
      <point x="644" y="29"/>
      <point x="615" y="36"/>
      <point x="615" y="65" type="curve" smooth="yes"/>
      <point x="615" y="645" type="line" smooth="yes"/>
      <point x="615" y="674"/>
      <point x="644" y="681"/>
      <point x="684" y="681" type="curve" smooth="yes"/>
      <point x="693" y="681" type="line"/>
      <point x="693" y="710" type="line"/>
      <point x="552" y="710" type="line"/>
      <point x="360" y="40" type="line"/>
      <point x="370" y="38" type="line"/>
      <point x="179" y="710" type="line"/>
      <point x="37" y="710" type="line"/>
      <point x="37" y="681" type="line"/>
      <point x="45" y="681" type="line" smooth="yes"/>
      <point x="85" y="681"/>
      <point x="114" y="674"/>
      <point x="114" y="645" type="curve" smooth="yes"/>
      <point x="114" y="65" type="line" smooth="yes"/>
      <point x="114" y="36"/>
      <point x="85" y="29"/>
      <point x="45" y="29" type="curve"/>
      <point x="37" y="29" type="line"/>
    </contour>
  </outline>
</glyph>
<glyph name="N" format="2">
  <advance width="616"/>
  <unicode hex="004E"/>
  <anchor x="317" y="741" name="top"/>
  <anchor x="317" y="0" name="bottom"/>
  <outline>
    <contour>
      <point x="37" y="0" type="line"/>
      <point x="230" y="0" type="line"/>
      <point x="230" y="29" type="line"/>
      <point x="220" y="29" type="line" smooth="yes"/>
      <point x="185" y="29"/>
      <point x="145" y="37"/>
      <point x="145" y="44" type="curve" smooth="yes"/>
      <point x="145" y="697" type="line"/>
      <point x="132" y="704" type="line"/>
      <point x="461" y="0" type="line"/>
      <point x="502" y="0" type="line"/>
      <point x="502" y="640" type="line" smooth="yes"/>
      <point x="502" y="669"/>
      <point x="531" y="681"/>
      <point x="571" y="681" type="curve" smooth="yes"/>
      <point x="580" y="681" type="line"/>
      <point x="580" y="710" type="line"/>
      <point x="386" y="710" type="line"/>
      <point x="386" y="681" type="line"/>
      <point x="397" y="681" type="line" smooth="yes"/>
      <point x="432" y="681"/>
      <point x="471" y="673"/>
      <point x="471" y="666" type="curve" smooth="yes"/>
      <point x="471" y="34" type="line"/>
      <point x="478" y="41" type="line"/>
      <point x="168" y="710" type="line"/>
      <point x="37" y="710" type="line"/>
      <point x="37" y="681" type="line"/>
      <point x="45" y="681" type="line" smooth="yes"/>
      <point x="85" y="681"/>
      <point x="114" y="674"/>
      <point x="114" y="645" type="curve" smooth="yes"/>
      <point x="114" y="70" type="line" smooth="yes"/>
      <point x="114" y="41"/>
      <point x="85" y="29"/>
      <point x="45" y="29" type="curve" smooth="yes"/>
      <point x="37" y="29" type="line"/>
    </contour>
  </outline>
</glyph>
<glyph name="R" format="2">
  <advance width="534"/>
  <unicode hex="0052"/>
  <anchor x="304" y="741" name="top"/>
  <anchor x="304" y="0" name="bottom"/>
  <outline>
    <contour>
      <point x="287" y="330" type="line"/>
      <point x="321" y="345" type="line"/>
      <point x="446" y="57" type="line" smooth="yes"/>
      <point x="457" y="34"/>
      <point x="477" y="29"/>
      <point x="506" y="29" type="curve" smooth="yes"/>
      <point x="515" y="29" type="line"/>
      <point x="515" y="0" type="line"/>
      <point x="426" y="0" type="line"/>
    </contour>
    <contour>
      <point x="152" y="39" type="line" smooth="yes"/>
      <point x="152" y="32"/>
      <point x="186" y="29"/>
      <point x="214" y="29" type="curve" smooth="yes"/>
      <point x="221" y="29" type="line"/>
      <point x="221" y="0" type="line"/>
      <point x="37" y="0" type="line"/>
      <point x="37" y="29" type="line"/>
      <point x="45" y="29" type="line" smooth="yes"/>
      <point x="85" y="29"/>
      <point x="114" y="36"/>
      <point x="114" y="65" type="curve" smooth="yes"/>
      <point x="114" y="645" type="line" smooth="yes"/>
      <point x="114" y="674"/>
      <point x="85" y="681"/>
      <point x="45" y="681" type="curve" smooth="yes"/>
      <point x="37" y="681" type="line"/>
      <point x="37" y="710" type="line"/>
      <point x="257" y="710" type="line" smooth="yes"/>
      <point x="374" y="710"/>
      <point x="450" y="636"/>
      <point x="450" y="515" type="curve" smooth="yes"/>
      <point x="450" y="415"/>
      <point x="394" y="345"/>
      <point x="313" y="326" type="curve" smooth="yes"/>
      <point x="295" y="322"/>
      <point x="278" y="320"/>
      <point x="258" y="320" type="curve" smooth="yes"/>
      <point x="143" y="320" type="line"/>
      <point x="143" y="349" type="line"/>
      <point x="258" y="349" type="line" smooth="yes"/>
      <point x="361" y="349"/>
      <point x="409" y="425"/>
      <point x="409" y="515" type="curve" smooth="yes"/>
      <point x="409" y="622"/>
      <point x="353" y="681"/>
      <point x="255" y="681" type="curve" smooth="yes"/>
      <point x="152" y="681" type="line"/>
    </contour>
  </outline>
</glyph>
<glyph name="W" format="2">
  <advance width="782"/>
  <unicode hex="0057"/>
  <anchor x="404" y="741" name="top"/>
  <outline>
    <contour>
      <point x="8" y="710" type="line"/>
      <point x="8" y="681" type="line"/>
      <point x="12" y="681" type="line" smooth="yes"/>
      <point x="41" y="681"/>
      <point x="61" y="678"/>
      <point x="68" y="644" type="curve" smooth="yes"/>
      <point x="209" y="0" type="line"/>
      <point x="253" y="0" type="line"/>
      <point x="398" y="687" type="line"/>
      <point x="386" y="687" type="line"/>
      <point x="540" y="0" type="line"/>
      <point x="585" y="0" type="line"/>
      <point x="715" y="638" type="line" smooth="yes"/>
      <point x="722" y="672"/>
      <point x="743" y="681"/>
      <point x="771" y="681" type="curve" smooth="yes"/>
      <point x="775" y="681" type="line"/>
      <point x="775" y="710" type="line"/>
      <point x="610" y="710" type="line"/>
      <point x="610" y="681" type="line"/>
      <point x="622" y="681" type="line" smooth="yes"/>
      <point x="653" y="681"/>
      <point x="690" y="674"/>
      <point x="690" y="663" type="curve"/>
      <point x="560" y="13" type="line"/>
      <point x="573" y="13" type="line"/>
      <point x="416" y="710" type="line"/>
      <point x="374" y="710" type="line"/>
      <point x="228" y="18" type="line"/>
      <point x="241" y="18" type="line"/>
      <point x="100" y="671" type="line"/>
      <point x="100" y="678"/>
      <point x="139" y="681"/>
      <point x="170" y="681" type="curve" smooth="yes"/>
      <point x="183" y="681" type="line"/>
      <point x="183" y="710" type="line"/>
    </contour>
  </outline>
</glyph>
<glyph name="X" format="2">
  <advance width="554"/>
  <unicode hex="0058"/>
  <outline>
    <contour>
      <point x="30" y="681" type="line"/>
      <point x="35" y="681" type="line" smooth="yes"/>
      <point x="65" y="681"/>
      <point x="82" y="680"/>
      <point x="99" y="649" type="curve" smooth="yes"/>
      <point x="260" y="354" type="line"/>
      <point x="265" y="350" type="line"/>
      <point x="432" y="39" type="line"/>
      <point x="432" y="32"/>
      <point x="394" y="29"/>
      <point x="365" y="29" type="curve" smooth="yes"/>
      <point x="352" y="29" type="line"/>
      <point x="352" y="0" type="line"/>
      <point x="537" y="0" type="line"/>
      <point x="537" y="29" type="line"/>
      <point x="529" y="29" type="line" smooth="yes"/>
      <point x="499" y="29"/>
      <point x="483" y="31"/>
      <point x="465" y="63" type="curve" smooth="yes"/>
      <point x="291" y="380" type="line"/>
      <point x="286" y="383" type="line"/>
      <point x="132" y="671" type="line"/>
      <point x="132" y="678"/>
      <point x="169" y="681"/>
      <point x="198" y="681" type="curve" smooth="yes"/>
      <point x="212" y="681" type="line"/>
      <point x="212" y="710" type="line"/>
      <point x="30" y="710" type="line"/>
    </contour>
    <contour>
      <point x="17" y="0" type="line"/>
      <point x="197" y="0" type="line"/>
      <point x="197" y="29" type="line"/>
      <point x="185" y="29" type="line" smooth="yes"/>
      <point x="155" y="29"/>
      <point x="116" y="36"/>
      <point x="116" y="47" type="curve"/>
      <point x="278" y="346" type="line"/>
      <point x="262" y="379" type="line"/>
      <point x="94" y="75" type="line" smooth="yes"/>
      <point x="73" y="38"/>
      <point x="54" y="29"/>
      <point x="25" y="29" type="curve" smooth="yes"/>
      <point x="17" y="29" type="line"/>
    </contour>
    <contour>
      <point x="292" y="361" type="line"/>
      <point x="443" y="636" type="line" smooth="yes"/>
      <point x="463" y="672"/>
      <point x="485" y="681"/>
      <point x="515" y="681" type="curve" smooth="yes"/>
      <point x="518" y="681" type="line"/>
      <point x="518" y="710" type="line"/>
      <point x="343" y="710" type="line"/>
      <point x="343" y="681" type="line"/>
      <point x="355" y="681" type="line" smooth="yes"/>
      <point x="386" y="681"/>
      <point x="422" y="674"/>
      <point x="422" y="663" type="curve"/>
      <point x="273" y="382" type="line"/>
    </contour>
  </outline>
</glyph>
<glyph name="Y" format="2">
  <advance width="533"/>
  <unicode hex="0059"/>
  <anchor x="270" y="741" name="top"/>
  <anchor x="270" y="0" name="bottom"/>
  <outline>
    <contour>
      <point x="249" y="311" type="line"/>
      <point x="249" y="65" type="line" smooth="yes"/>
      <point x="249" y="36"/>
      <point x="220" y="29"/>
      <point x="180" y="29" type="curve" smooth="yes"/>
      <point x="167" y="29" type="line"/>
      <point x="167" y="0" type="line"/>
      <point x="368" y="0" type="line"/>
      <point x="368" y="29" type="line"/>
      <point x="355" y="29" type="line" smooth="yes"/>
      <point x="315" y="29"/>
      <point x="287" y="36"/>
      <point x="287" y="65" type="curve" smooth="yes"/>
      <point x="287" y="311" type="line"/>
      <point x="277" y="279" type="line"/>
      <point x="449" y="640" type="line" smooth="yes"/>
      <point x="467" y="677"/>
      <point x="490" y="681"/>
      <point x="518" y="681" type="curve" smooth="yes"/>
      <point x="522" y="681" type="line"/>
      <point x="522" y="710" type="line"/>
      <point x="347" y="710" type="line"/>
      <point x="347" y="681" type="line"/>
      <point x="359" y="681" type="line" smooth="yes"/>
      <point x="390" y="681"/>
      <point x="426" y="674"/>
      <point x="426" y="663" type="curve"/>
      <point x="257" y="297" type="line"/>
      <point x="281" y="307" type="line"/>
      <point x="111" y="671" type="line"/>
      <point x="111" y="678"/>
      <point x="149" y="681"/>
      <point x="178" y="681" type="curve" smooth="yes"/>
      <point x="192" y="681" type="line"/>
      <point x="192" y="710" type="line"/>
      <point x="12" y="710" type="line"/>
      <point x="12" y="681" type="line"/>
      <point x="16" y="681" type="line" smooth="yes"/>
      <point x="43" y="681"/>
      <point x="65" y="681"/>
      <point x="77" y="655" type="curve" smooth="yes"/>
      <point x="257" y="278" type="line"/>
    </contour>
  </outline>
</glyph>
<glyph name="Z" format="2">
  <advance width="476"/>
  <unicode hex="005A"/>
  <anchor x="255" y="741" name="top"/>
  <anchor x="255" y="0" name="bottom"/>
  <outline>
    <contour>
      <point x="57" y="29" type="line"/>
      <point x="67" y="15" type="line"/>
      <point x="430" y="682" type="line"/>
      <point x="430" y="710" type="line"/>
      <point x="54" y="710" type="line"/>
      <point x="54" y="542" type="line"/>
      <point x="78" y="542" type="line"/>
      <point x="85" y="638" type="line" smooth="yes"/>
      <point x="88" y="674"/>
      <point x="117" y="681"/>
      <point x="186" y="681" type="curve" smooth="yes"/>
      <point x="404" y="681" type="line"/>
      <point x="395" y="690" type="line"/>
      <point x="37" y="31" type="line"/>
      <point x="37" y="0" type="line"/>
      <point x="439" y="0" type="line"/>
      <point x="439" y="192" type="line"/>
      <point x="414" y="192" type="line"/>
      <point x="407" y="72" type="line" smooth="yes"/>
      <point x="404" y="36"/>
      <point x="375" y="29"/>
      <point x="306" y="29" type="curve" smooth="yes"/>
    </contour>
  </outline>
</glyph>
<glyph name="e" format="2">
  <advance width="417"/>
  <unicode hex="0065"/>
  <anchor x="213" y="508" name="top"/>
  <anchor x="359" y="1" name="right"/>
  <anchor x="233" y="0" name="bottom"/>
  <outline>
    <contour>
      <point x="226" y="-10" type="curve" smooth="yes"/>
      <point x="304" y="-10"/>
      <point x="350" y="43"/>
      <point x="377" y="107" type="curve"/>
      <point x="353" y="122" type="line"/>
      <point x="336" y="83"/>
      <point x="299" y="19"/>
      <point x="226" y="19" type="curve" smooth="yes"/>
      <point x="141" y="19"/>
      <point x="75" y="103"/>
      <point x="75" y="250" type="curve" smooth="yes"/>
      <point x="75" y="398"/>
      <point x="135" y="489"/>
      <point x="217" y="489" type="curve" smooth="yes"/>
      <point x="300" y="489"/>
      <point x="339" y="415"/>
      <point x="342" y="265" type="curve"/>
      <point x="356" y="281" type="line"/>
      <point x="61" y="281" type="line"/>
      <point x="61" y="252" type="line"/>
      <point x="382" y="252" type="line"/>
      <point x="381" y="423"/>
      <point x="325" y="518"/>
      <point x="217" y="518" type="curve" smooth="yes"/>
      <point x="113" y="518"/>
      <point x="36" y="409"/>
      <point x="36" y="252" type="curve" smooth="yes"/>
      <point x="36" y="92"/>
      <point x="120" y="-10"/>
    </contour>
  </outline>
</glyph>
<glyph name="f" format="2">
  <advance width="299"/>
  <unicode hex="0066"/>
  <outline>
    <contour>
      <point x="29" y="508" type="line"/>
      <point x="29" y="483" type="line"/>
      <point x="278" y="483" type="line"/>
      <point x="278" y="508" type="line"/>
    </contour>
    <contour>
      <point x="295" y="742" type="line"/>
      <point x="282" y="748"/>
      <point x="259" y="752"/>
      <point x="235" y="752" type="curve" smooth="yes"/>
      <point x="166" y="752"/>
      <point x="112" y="709"/>
      <point x="112" y="597" type="curve" smooth="yes"/>
      <point x="112" y="62" type="line" smooth="yes"/>
      <point x="112" y="33"/>
      <point x="86" y="26"/>
      <point x="42" y="26" type="curve" smooth="yes"/>
      <point x="33" y="26" type="line"/>
      <point x="33" y="0" type="line"/>
      <point x="237" y="0" type="line"/>
      <point x="237" y="26" type="line"/>
      <point x="227" y="26" type="line" smooth="yes"/>
      <point x="183" y="26"/>
      <point x="150" y="29"/>
      <point x="150" y="36" type="curve" smooth="yes"/>
      <point x="150" y="597" type="line" smooth="yes"/>
      <point x="150" y="696"/>
      <point x="182" y="723"/>
      <point x="234" y="723" type="curve" smooth="yes"/>
      <point x="258" y="723"/>
      <point x="279" y="717"/>
      <point x="295" y="711" type="curve"/>
    </contour>
  </outline>
</glyph>
<glyph name="i" format="2">
  <advance width="228"/>
  <unicode hex="0069"/>
  <anchor x="123" y="508" name="top"/>
  <anchor x="164" y="-10" name="right"/>
  <anchor x="121" y="-10" name="bottom"/>
  <outline>
    <contour>
      <point x="108" y="659" type="curve" smooth="yes"/>
      <point x="127" y="659"/>
      <point x="142" y="672"/>
      <point x="142" y="698" type="curve" smooth="yes"/>
      <point x="142" y="723"/>
      <point x="127" y="737"/>
      <point x="108" y="737" type="curve" smooth="yes"/>
      <point x="88" y="737"/>
      <point x="73" y="723"/>
      <point x="73" y="698" type="curve" smooth="yes"/>
      <point x="73" y="672"/>
      <point x="88" y="659"/>
    </contour>
    <contour>
      <point x="134" y="508" type="line"/>
      <point x="29" y="508" type="line"/>
      <point x="29" y="484" type="line"/>
      <point x="37" y="482" type="line" smooth="yes"/>
      <point x="77" y="472"/>
      <point x="96" y="466"/>
      <point x="96" y="437" type="curve" smooth="yes"/>
      <point x="96" y="62" type="line" smooth="yes"/>
      <point x="96" y="33"/>
      <point x="69" y="26"/>
      <point x="30" y="26" type="curve" smooth="yes"/>
      <point x="29" y="26" type="line"/>
      <point x="29" y="0" type="line"/>
      <point x="202" y="0" type="line"/>
      <point x="202" y="26" type="line"/>
      <point x="200" y="26" type="line" smooth="yes"/>
      <point x="161" y="26"/>
      <point x="134" y="33"/>
      <point x="134" y="62" type="curve" smooth="yes"/>
    </contour>
  </outline>
</glyph>
<glyph name="j" format="2">
  <advance width="208"/>
  <unicode hex="006A"/>
  <outline>
    <contour>
      <point x="92" y="-77" type="line" smooth="yes"/>
      <point x="92" y="-173"/>
      <point x="60" y="-206"/>
      <point x="9" y="-206" type="curve" smooth="yes"/>
      <point x="-21" y="-206"/>
      <point x="-42" y="-196"/>
      <point x="-61" y="-187" type="curve"/>
      <point x="-61" y="-220" type="line"/>
      <point x="-46" y="-229"/>
      <point x="-23" y="-236"/>
      <point x="9" y="-236" type="curve" smooth="yes"/>
      <point x="68" y="-236"/>
      <point x="130" y="-205"/>
      <point x="130" y="-77" type="curve" smooth="yes"/>
      <point x="130" y="508" type="line"/>
      <point x="23" y="508" type="line"/>
      <point x="23" y="484" type="line"/>
      <point x="32" y="482" type="line" smooth="yes"/>
      <point x="72" y="472"/>
      <point x="92" y="466"/>
      <point x="92" y="437" type="curve" smooth="yes"/>
    </contour>
    <contour>
      <point x="100" y="659" type="curve" smooth="yes"/>
      <point x="119" y="659"/>
      <point x="134" y="672"/>
      <point x="134" y="698" type="curve" smooth="yes"/>
      <point x="134" y="723"/>
      <point x="119" y="737"/>
      <point x="100" y="737" type="curve" smooth="yes"/>
      <point x="80" y="737"/>
      <point x="65" y="723"/>
      <point x="65" y="698" type="curve" smooth="yes"/>
      <point x="65" y="672"/>
      <point x="80" y="659"/>
    </contour>
  </outline>
</glyph>
<glyph name="k" format="2">
  <advance width="477"/>
  <unicode hex="006B"/>
  <anchor x="241" y="0" name="bottom"/>
  <outline>
    <contour>
      <point x="454" y="0" type="line"/>
      <point x="454" y="29" type="line"/>
      <point x="453" y="29" type="line"/>
      <point x="425" y="29"/>
      <point x="402" y="36"/>
      <point x="377" y="67" type="curve" smooth="yes"/>
      <point x="200" y="290" type="line"/>
      <point x="200" y="273" type="line"/>
      <point x="341" y="430" type="line" smooth="yes"/>
      <point x="370" y="463"/>
      <point x="397" y="479"/>
      <point x="432" y="479" type="curve"/>
      <point x="433" y="479" type="line"/>
      <point x="433" y="508" type="line"/>
      <point x="255" y="508" type="line"/>
      <point x="255" y="479" type="line"/>
      <point x="258" y="479" type="line"/>
      <point x="284" y="479"/>
      <point x="325" y="476"/>
      <point x="325" y="461" type="curve"/>
      <point x="165" y="281" type="line"/>
      <point x="165" y="276" type="line"/>
      <point x="349" y="39" type="line"/>
      <point x="349" y="32"/>
      <point x="314" y="29"/>
      <point x="289" y="29" type="curve"/>
      <point x="284" y="29" type="line"/>
      <point x="284" y="0" type="line"/>
    </contour>
    <contour>
      <point x="135" y="735" type="line"/>
      <point x="29" y="735" type="line"/>
      <point x="29" y="706" type="line"/>
      <point x="37" y="704" type="line" smooth="yes"/>
      <point x="79" y="695"/>
      <point x="97" y="688"/>
      <point x="97" y="659" type="curve" smooth="yes"/>
      <point x="97" y="62" type="line" smooth="yes"/>
      <point x="97" y="33"/>
      <point x="70" y="26"/>
      <point x="31" y="26" type="curve"/>
      <point x="29" y="26" type="line"/>
      <point x="29" y="0" type="line"/>
      <point x="195" y="0" type="line"/>
      <point x="195" y="26" type="line"/>
      <point x="192" y="26" type="line" smooth="yes"/>
      <point x="171" y="26"/>
      <point x="135" y="29"/>
      <point x="135" y="36" type="curve" smooth="yes"/>
    </contour>
  </outline>
</glyph>
<glyph name="l" format="2">
  <advance width="227"/>
  <unicode hex="006C"/>
  <anchor x="120" y="746" name="top"/>
  <anchor x="218" y="735" name="right"/>
  <anchor x="269" y="391" name="mid"/>
  <anchor x="123" y="0" name="bottom"/>
  <outline>
    <contour>
      <point x="133" y="735" type="line"/>
      <point x="28" y="735" type="line"/>
      <point x="28" y="711" type="line"/>
      <point x="36" y="709" type="line" smooth="yes"/>
      <point x="77" y="699"/>
      <point x="96" y="693"/>
      <point x="96" y="664" type="curve" smooth="yes"/>
      <point x="96" y="62" type="line" smooth="yes"/>
      <point x="96" y="33"/>
      <point x="69" y="26"/>
      <point x="30" y="26" type="curve" smooth="yes"/>
      <point x="28" y="26" type="line"/>
      <point x="28" y="0" type="line"/>
      <point x="201" y="0" type="line"/>
      <point x="201" y="26" type="line"/>
      <point x="200" y="26" type="line" smooth="yes"/>
      <point x="161" y="26"/>
      <point x="133" y="33"/>
      <point x="133" y="62" type="curve" smooth="yes"/>
    </contour>
  </outline>
</glyph>
<glyph name="m" format="2">
  <advance width="706"/>
  <unicode hex="006D"/>
  <anchor x="358" y="-10" name="bottom"/>
  <outline>
    <contour>
      <point x="29" y="0" type="line"/>
      <point x="194" y="0" type="line"/>
      <point x="194" y="26" type="line"/>
      <point x="192" y="26" type="line" smooth="yes"/>
      <point x="169" y="26"/>
      <point x="134" y="29"/>
      <point x="134" y="36" type="curve" smooth="yes"/>
      <point x="134" y="398" type="line"/>
      <point x="133" y="398" type="line"/>
      <point x="133" y="508" type="line"/>
      <point x="29" y="508" type="line"/>
      <point x="29" y="484" type="line"/>
      <point x="37" y="482" type="line" smooth="yes"/>
      <point x="77" y="472"/>
      <point x="96" y="466"/>
      <point x="96" y="437" type="curve" smooth="yes"/>
      <point x="96" y="62" type="line" smooth="yes"/>
      <point x="96" y="33"/>
      <point x="69" y="26"/>
      <point x="30" y="26" type="curve" smooth="yes"/>
      <point x="29" y="26" type="line"/>
    </contour>
    <contour>
      <point x="435" y="0" type="line"/>
      <point x="435" y="26" type="line"/>
      <point x="433" y="26" type="line" smooth="yes"/>
      <point x="411" y="26"/>
      <point x="375" y="29"/>
      <point x="375" y="36" type="curve" smooth="yes"/>
      <point x="375" y="357" type="line" smooth="yes"/>
      <point x="375" y="468"/>
      <point x="334" y="518"/>
      <point x="264" y="518" type="curve"/>
      <point x="207" y="518"/>
      <point x="168" y="484"/>
      <point x="129" y="418" type="curve"/>
      <point x="129" y="376" type="line"/>
      <point x="164" y="444"/>
      <point x="204" y="487"/>
      <point x="258" y="487" type="curve"/>
      <point x="317" y="487"/>
      <point x="337" y="443"/>
      <point x="337" y="346" type="curve" smooth="yes"/>
      <point x="337" y="36" type="line" smooth="yes"/>
      <point x="337" y="29"/>
      <point x="301" y="26"/>
      <point x="279" y="26" type="curve" smooth="yes"/>
      <point x="277" y="26" type="line"/>
      <point x="277" y="0" type="line"/>
    </contour>
    <contour>
      <point x="684" y="0" type="line"/>
      <point x="684" y="26" type="line"/>
      <point x="682" y="26" type="line" smooth="yes"/>
      <point x="643" y="26"/>
      <point x="616" y="33"/>
      <point x="616" y="62" type="curve" smooth="yes"/>
      <point x="616" y="357" type="line" smooth="yes"/>
      <point x="616" y="468"/>
      <point x="574" y="518"/>
      <point x="505" y="518" type="curve"/>
      <point x="447" y="518"/>
      <point x="406" y="482"/>
      <point x="366" y="411" type="curve"/>
      <point x="366" y="368" type="line"/>
      <point x="403" y="440"/>
      <point x="443" y="487"/>
      <point x="499" y="487" type="curve"/>
      <point x="557" y="487"/>
      <point x="578" y="443"/>
      <point x="578" y="346" type="curve" smooth="yes"/>
      <point x="578" y="36" type="line" smooth="yes"/>
      <point x="578" y="29"/>
      <point x="542" y="26"/>
      <point x="520" y="26" type="curve" smooth="yes"/>
      <point x="518" y="26" type="line"/>
      <point x="518" y="0" type="line"/>
    </contour>
  </outline>
</glyph>
<glyph name="n" format="2">
  <advance width="489"/>
  <unicode hex="006E"/>
  <anchor x="241" y="508" name="top"/>
  <anchor x="249" y="0" name="bottom"/>
  <outline>
    <contour>
      <point x="29" y="0" type="line"/>
      <point x="194" y="0" type="line"/>
      <point x="194" y="26" type="line"/>
      <point x="192" y="26" type="line" smooth="yes"/>
      <point x="169" y="26"/>
      <point x="134" y="29"/>
      <point x="134" y="36" type="curve" smooth="yes"/>
      <point x="134" y="398" type="line"/>
      <point x="133" y="398" type="line"/>
      <point x="133" y="508" type="line"/>
      <point x="29" y="508" type="line"/>
      <point x="29" y="484" type="line"/>
      <point x="37" y="482" type="line" smooth="yes"/>
      <point x="77" y="472"/>
      <point x="96" y="466"/>
      <point x="96" y="437" type="curve" smooth="yes"/>
      <point x="96" y="62" type="line" smooth="yes"/>
      <point x="96" y="33"/>
      <point x="69" y="26"/>
      <point x="30" y="26" type="curve" smooth="yes"/>
      <point x="29" y="26" type="line"/>
    </contour>
    <contour>
      <point x="466" y="0" type="line"/>
      <point x="466" y="26" type="line"/>
      <point x="465" y="26" type="line" smooth="yes"/>
      <point x="426" y="26"/>
      <point x="399" y="33"/>
      <point x="399" y="62" type="curve" smooth="yes"/>
      <point x="399" y="357" type="line" smooth="yes"/>
      <point x="399" y="468"/>
      <point x="354" y="518"/>
      <point x="278" y="518" type="curve" smooth="yes"/>
      <point x="218" y="518"/>
      <point x="173" y="482"/>
      <point x="129" y="409" type="curve"/>
      <point x="129" y="367" type="line"/>
      <point x="169" y="441"/>
      <point x="214" y="487"/>
      <point x="272" y="487" type="curve" smooth="yes"/>
      <point x="338" y="487"/>
      <point x="362" y="443"/>
      <point x="362" y="346" type="curve" smooth="yes"/>
      <point x="362" y="36" type="line" smooth="yes"/>
      <point x="362" y="29"/>
      <point x="325" y="26"/>
      <point x="303" y="26" type="curve" smooth="yes"/>
      <point x="301" y="26" type="line"/>
      <point x="301" y="0" type="line"/>
    </contour>
  </outline>
</glyph>
<glyph name="o" format="2">
  <advance width="457"/>
  <unicode hex="006F"/>
  <anchor x="229" y="508" name="top"/>
  <anchor x="325" y="0" name="right"/>
  <anchor x="229" y="0" name="bottom"/>
  <outline>
    <contour>
      <point x="229" y="-10" type="curve"/>
      <point x="341" y="-10"/>
      <point x="422" y="97"/>
      <point x="422" y="254" type="curve" smooth="yes"/>
      <point x="422" y="409"/>
      <point x="341" y="518"/>
      <point x="229" y="518" type="curve" smooth="yes"/>
      <point x="117" y="518"/>
      <point x="36" y="410"/>
      <point x="36" y="254" type="curve" smooth="yes"/>
      <point x="36" y="97"/>
      <point x="117" y="-10"/>
    </contour>
    <contour>
      <point x="229" y="19" type="curve"/>
      <point x="135" y="19"/>
      <point x="76" y="111"/>
      <point x="76" y="254" type="curve" smooth="yes"/>
      <point x="76" y="394"/>
      <point x="135" y="489"/>
      <point x="229" y="489" type="curve" smooth="yes"/>
      <point x="323" y="489"/>
      <point x="382" y="394"/>
      <point x="382" y="254" type="curve" smooth="yes"/>
      <point x="382" y="110"/>
      <point x="323" y="19"/>
    </contour>
  </outline>
</glyph>
<glyph name="p" format="2">
  <advance width="496"/>
  <unicode hex="0070"/>
  <outline>
    <contour>
      <point x="216" y="-223" type="line"/>
      <point x="216" y="-197" type="line"/>
      <point x="192" y="-197" type="line" smooth="yes"/>
      <point x="171" y="-197"/>
      <point x="133" y="-194"/>
      <point x="133" y="-187" type="curve" smooth="yes"/>
      <point x="133" y="370" type="line"/>
      <point x="132" y="369" type="line"/>
      <point x="132" y="508" type="line"/>
      <point x="28" y="508" type="line"/>
      <point x="28" y="484" type="line"/>
      <point x="36" y="482" type="line" smooth="yes"/>
      <point x="77" y="472"/>
      <point x="96" y="466"/>
      <point x="96" y="437" type="curve" smooth="yes"/>
      <point x="96" y="-161" type="line" smooth="yes"/>
      <point x="96" y="-190"/>
      <point x="69" y="-197"/>
      <point x="30" y="-197" type="curve"/>
      <point x="28" y="-197" type="line"/>
      <point x="28" y="-223" type="line"/>
    </contour>
    <contour>
      <point x="281" y="-10" type="curve" smooth="yes"/>
      <point x="389" y="-10"/>
      <point x="461" y="99"/>
      <point x="461" y="257" type="curve" smooth="yes"/>
      <point x="461" y="414"/>
      <point x="392" y="518"/>
      <point x="288" y="518" type="curve" smooth="yes"/>
      <point x="216" y="518"/>
      <point x="171" y="468"/>
      <point x="129" y="388" type="curve"/>
      <point x="129" y="339" type="line"/>
      <point x="169" y="429"/>
      <point x="217" y="489"/>
      <point x="283" y="489" type="curve" smooth="yes"/>
      <point x="373" y="489"/>
      <point x="420" y="400"/>
      <point x="420" y="257" type="curve" smooth="yes"/>
      <point x="420" y="114"/>
      <point x="371" y="19"/>
      <point x="279" y="19" type="curve" smooth="yes"/>
      <point x="213" y="19"/>
      <point x="164" y="81"/>
      <point x="129" y="176" type="curve"/>
      <point x="129" y="120" type="line"/>
      <point x="168" y="37"/>
      <point x="212" y="-10"/>
    </contour>
  </outline>
</glyph>
<glyph name="t" format="2">
  <advance width="275"/>
  <unicode hex="0074"/>
  <anchor x="111" y="675" name="top"/>
  <anchor x="235" y="681" name="right"/>
  <anchor x="191" y="0" name="bottom"/>
  <outline>
    <contour>
      <point x="12" y="479" type="line"/>
      <point x="246" y="479" type="line"/>
      <point x="246" y="508" type="line"/>
      <point x="111" y="508" type="line"/>
      <point x="90" y="553" type="line"/>
      <point x="90" y="512"/>
      <point x="62" y="503"/>
      <point x="15" y="503" type="curve" smooth="yes"/>
      <point x="12" y="503" type="line"/>
    </contour>
    <contour>
      <point x="124" y="132" type="curve" smooth="yes"/>
      <point x="124" y="648" type="line"/>
      <point x="90" y="648" type="line"/>
      <point x="90" y="500" type="line"/>
      <point x="87" y="492" type="line"/>
      <point x="87" y="132" type="line" smooth="yes"/>
      <point x="87" y="27"/>
      <point x="139" y="-10"/>
      <point x="197" y="-10" type="curve" smooth="yes"/>
      <point x="221" y="-10"/>
      <point x="241" y="-3"/>
      <point x="255" y="5" type="curve"/>
      <point x="255" y="34" type="line"/>
      <point x="242" y="29"/>
      <point x="225" y="22"/>
      <point x="203" y="22" type="curve" smooth="yes"/>
      <point x="157" y="22"/>
      <point x="124" y="54"/>
    </contour>
  </outline>
</glyph>
<glyph name="z" format="2">
  <advance width="365"/>
  <unicode hex="007A"/>
  <anchor x="186" y="508" name="top"/>
  <anchor x="205" y="0" name="bottom"/>
  <outline>
    <contour>
      <point x="60" y="11" type="line"/>
      <point x="333" y="480" type="line"/>
      <point x="333" y="508" type="line"/>
      <point x="45" y="508" type="line"/>
      <point x="45" y="364" type="line"/>
      <point x="71" y="364" type="line"/>
      <point x="78" y="436" type="line" smooth="yes"/>
      <point x="82" y="472"/>
      <point x="108" y="479"/>
      <point x="178" y="479" type="curve" smooth="yes"/>
      <point x="312" y="479" type="line"/>
      <point x="299" y="494" type="line"/>
      <point x="30" y="32" type="line"/>
      <point x="30" y="0" type="line"/>
      <point x="344" y="0" type="line"/>
      <point x="344" y="157" type="line"/>
      <point x="319" y="157" type="line"/>
      <point x="311" y="74" type="line" smooth="yes"/>
      <point x="306" y="36"/>
      <point x="279" y="29"/>
      <point x="210" y="29" type="curve" smooth="yes"/>
      <point x="47" y="29" type="line"/>
    </contour>
  </outline>
</glyph>
<glyph name="currency" format="2">
  <advance width="452"/>
  <unicode hex="00A4"/>
  <outline>
    <contour>
      <point x="356" y="376" type="curve" smooth="yes"/>
      <point x="356" y="275"/>
      <point x="303" y="204"/>
      <point x="226" y="204" type="curve" smooth="yes"/>
      <point x="149" y="204"/>
      <point x="95" y="276"/>
      <point x="95" y="376" type="curve" smooth="yes"/>
      <point x="95" y="477"/>
      <point x="149" y="549"/>
      <point x="226" y="549" type="curve" smooth="yes"/>
      <point x="303" y="549"/>
      <point x="356" y="477"/>
    </contour>
    <contour>
      <point x="59" y="376" type="curve" smooth="yes"/>
      <point x="59" y="257"/>
      <point x="133" y="171"/>
      <point x="226" y="171" type="curve" smooth="yes"/>
      <point x="319" y="171"/>
      <point x="393" y="257"/>
      <point x="393" y="376" type="curve" smooth="yes"/>
      <point x="393" y="496"/>
      <point x="319" y="582"/>
      <point x="226" y="582" type="curve" smooth="yes"/>
      <point x="133" y="582"/>
      <point x="59" y="496"/>
    </contour>
    <contour>
      <point x="24" y="601" type="line"/>
      <point x="107" y="498" type="line"/>
      <point x="137" y="517" type="line"/>
      <point x="49" y="627" type="line"/>
    </contour>
    <contour>
      <point x="427" y="601" type="line"/>
      <point x="403" y="627" type="line"/>
      <point x="314" y="517" type="line"/>
      <point x="344" y="498" type="line"/>
    </contour>
    <contour>
      <point x="24" y="151" type="line"/>
      <point x="49" y="126" type="line"/>
      <point x="137" y="236" type="line"/>
      <point x="107" y="254" type="line"/>
    </contour>
    <contour>
      <point x="427" y="151" type="line"/>
      <point x="344" y="254" type="line"/>
      <point x="314" y="236" type="line"/>
      <point x="403" y="126" type="line"/>
    </contour>
  </outline>
</glyph>
<glyph name="logicalnot" format="2">
  <advance width="452"/>
  <unicode hex="00AC"/>
  <outline>
    <contour>
      <point x="346" y="341" type="line"/>
      <point x="346" y="177" type="line"/>
      <point x="378" y="177" type="line"/>
      <point x="378" y="361" type="line"/>
      <point x="74" y="361" type="line"/>
      <point x="74" y="329" type="line"/>
      <point x="366" y="329" type="line"/>
    </contour>
  </outline>
</glyph>
<glyph name="registered" format="2">
  <advance width="678"/>
  <unicode hex="00AE"/>
  <outline>
    <contour>
      <point x="339" y="1" type="curve" smooth="yes"/>
      <point x="179" y="1"/>
      <point x="64" y="154"/>
      <point x="64" y="355" type="curve" smooth="yes"/>
      <point x="64" y="556"/>
      <point x="179" y="709"/>
      <point x="339" y="709" type="curve" smooth="yes"/>
      <point x="499" y="709"/>
      <point x="614" y="556"/>
      <point x="614" y="355" type="curve" smooth="yes"/>
      <point x="614" y="154"/>
      <point x="499" y="1"/>
    </contour>
    <contour>
      <point x="339" y="-28" type="curve" smooth="yes"/>
      <point x="512" y="-28"/>
      <point x="645" y="138"/>
      <point x="645" y="355" type="curve" smooth="yes"/>
      <point x="645" y="572"/>
      <point x="512" y="738"/>
      <point x="339" y="738" type="curve" smooth="yes"/>
      <point x="166" y="738"/>
      <point x="32" y="572"/>
      <point x="32" y="355" type="curve" smooth="yes"/>
      <point x="32" y="138"/>
      <point x="166" y="-28"/>
    </contour>
    <contour>
      <point x="211" y="153" type="line"/>
      <point x="345" y="153" type="line"/>
      <point x="345" y="179" type="line"/>
      <point x="327" y="179" type="line" smooth="yes"/>
      <point x="312" y="179"/>
      <point x="291" y="180"/>
      <point x="291" y="184" type="curve" smooth="yes"/>
      <point x="291" y="323" type="line"/>
      <point x="344" y="323" type="line" smooth="yes"/>
      <point x="416" y="323"/>
      <point x="466" y="369"/>
      <point x="466" y="443" type="curve" smooth="yes"/>
      <point x="466" y="515"/>
      <point x="419" y="557"/>
      <point x="346" y="557" type="curve" smooth="yes"/>
      <point x="211" y="557" type="line"/>
      <point x="211" y="531" type="line"/>
      <point x="216" y="531" type="line" smooth="yes"/>
      <point x="239" y="531"/>
      <point x="256" y="527"/>
      <point x="256" y="511" type="curve" smooth="yes"/>
      <point x="256" y="199" type="line" smooth="yes"/>
      <point x="256" y="183"/>
      <point x="239" y="179"/>
      <point x="216" y="179" type="curve" smooth="yes"/>
      <point x="211" y="179" type="line"/>
    </contour>
    <contour>
      <point x="346" y="528" type="line" smooth="yes"/>
      <point x="401" y="528"/>
      <point x="428" y="504"/>
      <point x="428" y="443" type="curve" smooth="yes"/>
      <point x="428" y="384"/>
      <point x="401" y="352"/>
      <point x="343" y="352" type="curve" smooth="yes"/>
      <point x="291" y="352" type="line"/>
      <point x="291" y="528" type="line"/>
    </contour>
    <contour>
      <point x="348" y="341" type="line"/>
      <point x="424" y="152" type="line"/>
      <point x="484" y="152" type="line"/>
      <point x="484" y="178" type="line"/>
      <point x="477" y="178" type="line" smooth="yes"/>
      <point x="464" y="178"/>
      <point x="453" y="181"/>
      <point x="447" y="194" type="curve" smooth="yes"/>
      <point x="382" y="348" type="line"/>
    </contour>
  </outline>
</glyph>
<glyph name="macron" format="2">
  <advance width="403"/>
  <unicode hex="00AF"/>
  <anchor x="202" y="526" name="_top"/>
  <outline>
    <contour>
      <point x="99" y="689" type="line"/>
      <point x="99" y="661" type="line"/>
      <point x="305" y="661" type="line"/>
      <point x="305" y="689" type="line"/>
    </contour>
  </outline>
</glyph>
<glyph name="degree" format="2">
  <advance width="325"/>
  <unicode hex="00B0"/>
  <outline>
    <contour>
      <point x="244" y="600" type="curve" smooth="yes"/>
      <point x="244" y="540"/>
      <point x="212" y="500"/>
      <point x="163" y="500" type="curve" smooth="yes"/>
      <point x="113" y="500"/>
      <point x="81" y="540"/>
      <point x="81" y="600" type="curve" smooth="yes"/>
      <point x="81" y="661"/>
      <point x="114" y="701"/>
      <point x="163" y="701" type="curve" smooth="yes"/>
      <point x="212" y="701"/>
      <point x="244" y="661"/>
    </contour>
    <contour>
      <point x="48" y="600" type="curve" smooth="yes"/>
      <point x="48" y="524"/>
      <point x="99" y="472"/>
      <point x="163" y="472" type="curve" smooth="yes"/>
      <point x="226" y="472"/>
      <point x="277" y="524"/>
      <point x="277" y="600" type="curve" smooth="yes"/>
      <point x="277" y="677"/>
      <point x="226" y="729"/>
      <point x="163" y="729" type="curve" smooth="yes"/>
      <point x="99" y="729"/>
      <point x="48" y="677"/>
    </contour>
  </outline>
</glyph>
<glyph name="paragraph" format="2">
  <advance width="480"/>
  <unicode hex="00B6"/>
  <outline>
    <contour>
      <point x="240" y="0" type="line"/>
      <point x="209" y="0" type="line"/>
      <point x="209" y="356" type="line"/>
      <point x="205" y="356" type="line" smooth="yes"/>
      <point x="112" y="356"/>
      <point x="54" y="431"/>
      <point x="54" y="538" type="curve" smooth="yes"/>
      <point x="54" y="643"/>
      <point x="111" y="710"/>
      <point x="208" y="710" type="curve" smooth="yes"/>
      <point x="240" y="710" type="line"/>
    </contour>
    <contour>
      <point x="374" y="710" type="line"/>
      <point x="374" y="681" type="line"/>
      <point x="225" y="681" type="line"/>
      <point x="225" y="710" type="line"/>
    </contour>
    <contour>
      <point x="368" y="0" type="line"/>
      <point x="336" y="0" type="line"/>
      <point x="336" y="710" type="line"/>
      <point x="445" y="710" type="line"/>
      <point x="445" y="681" type="line"/>
      <point x="436" y="681" type="line" smooth="yes"/>
      <point x="397" y="681"/>
      <point x="368" y="674"/>
      <point x="368" y="645" type="curve" smooth="yes"/>
    </contour>
  </outline>
</glyph>
<glyph name="cedilla" format="2">
  <advance width="484"/>
  <unicode hex="00B8"/>
  <anchor x="245" y="34" name="_bottom"/>
  <outline>
    <contour>
      <point x="242" y="4" type="line"/>
      <point x="209" y="4" type="line"/>
      <point x="183" y="-88" type="line"/>
      <point x="194" y="-88" type="line" smooth="yes"/>
      <point x="246" y="-88"/>
      <point x="264" y="-112"/>
      <point x="264" y="-148" type="curve" smooth="yes"/>
      <point x="264" y="-186"/>
      <point x="244" y="-209"/>
      <point x="216" y="-209" type="curve" smooth="yes"/>
      <point x="181" y="-209"/>
      <point x="164" y="-182"/>
      <point x="149" y="-163" type="curve"/>
      <point x="129" y="-186" type="line"/>
      <point x="148" y="-215"/>
      <point x="174" y="-236"/>
      <point x="216" y="-236" type="curve" smooth="yes"/>
      <point x="260" y="-236"/>
      <point x="300" y="-204"/>
      <point x="300" y="-148" type="curve" smooth="yes"/>
      <point x="300" y="-89"/>
      <point x="258" y="-56"/>
      <point x="202" y="-60" type="curve"/>
      <point x="207" y="-78" type="line"/>
    </contour>
  </outline>
</glyph>
<glyph name="Eth" format="2">
  <advance width="588"/>
  <unicode hex="00D0"/>
  <outline>
    <contour>
      <point x="37" y="369" type="line"/>
      <point x="37" y="341" type="line"/>
      <point x="351" y="341" type="line"/>
      <point x="351" y="369" type="line"/>
    </contour>
    <component base="D"/>
  </outline>
</glyph>
<glyph name="multiply" format="2">
  <advance width="452"/>
  <unicode hex="00D7"/>
  <outline>
    <contour>
      <point x="100" y="521" type="line"/>
      <point x="79" y="500" type="line"/>
      <point x="352" y="160" type="line"/>
      <point x="372" y="181" type="line"/>
    </contour>
    <contour>
      <point x="351" y="521" type="line"/>
      <point x="79" y="181" type="line"/>
      <point x="99" y="160" type="line"/>
      <point x="372" y="500" type="line"/>
    </contour>
  </outline>
</glyph>
<glyph name="Oslash" format="2">
  <advance width="607"/>
  <unicode hex="00D8"/>
  <anchor x="304" y="731" name="top"/>
  <outline>
    <contour>
      <point x="5" y="-10" type="line"/>
      <point x="42" y="-10" type="line"/>
      <point x="592" y="720" type="line"/>
      <point x="555" y="720" type="line"/>
    </contour>
    <contour>
      <point x="303" y="-10" type="curve" smooth="yes"/>
      <point x="454" y="-10"/>
      <point x="570" y="139"/>
      <point x="570" y="355" type="curve" smooth="yes"/>
      <point x="570" y="572"/>
      <point x="454" y="720"/>
      <point x="303" y="720" type="curve" smooth="yes"/>
      <point x="153" y="720"/>
      <point x="38" y="572"/>
      <point x="38" y="355" type="curve" smooth="yes"/>
      <point x="38" y="139"/>
      <point x="153" y="-10"/>
    </contour>
    <contour>
      <point x="303" y="19" type="curve" smooth="yes"/>
      <point x="164" y="19"/>
      <point x="79" y="140"/>
      <point x="79" y="355" type="curve" smooth="yes"/>
      <point x="79" y="561"/>
      <point x="172" y="692"/>
      <point x="303" y="692" type="curve" smooth="yes"/>
      <point x="443" y="692"/>
      <point x="529" y="570"/>
      <point x="529" y="355" type="curve" smooth="yes"/>
      <point x="529" y="149"/>
      <point x="435" y="19"/>
    </contour>
  </outline>
</glyph>
<glyph name="icircumflex" format="2">
  <advance width="228"/>
  <unicode hex="00EE"/>
  <outline>
    <contour>
      <point x="133" y="739" type="line"/>
      <point x="216" y="608" type="line"/>
      <point x="216" y="598" type="line"/>
      <point x="194" y="598" type="line"/>
      <point x="90" y="728" type="line"/>
      <point x="121" y="728" type="line"/>
      <point x="17" y="598" type="line"/>
      <point x="1" y="598" type="line"/>
      <point x="1" y="608" type="line"/>
      <point x="81" y="739" type="line"/>
    </contour>
    <component base="dotlessi"/>
  </outline>
</glyph>
<glyph name="eth" format="2">
  <advance width="446"/>
  <unicode hex="00F0"/>
  <outline>
    <contour>
      <point x="372" y="400" type="line"/>
      <point x="348" y="471"/>
      <point x="288" y="518"/>
      <point x="227" y="518" type="curve" smooth="yes"/>
      <point x="115" y="518"/>
      <point x="36" y="413"/>
      <point x="36" y="256" type="curve" smooth="yes"/>
      <point x="36" y="99"/>
      <point x="115" y="-10"/>
      <point x="225" y="-10" type="curve" smooth="yes"/>
      <point x="339" y="-10"/>
      <point x="410" y="104"/>
      <point x="410" y="292" type="curve" smooth="yes"/>
      <point x="410" y="484"/>
      <point x="336" y="669"/>
      <point x="134" y="758" type="curve"/>
      <point x="121" y="737" type="line"/>
      <point x="303" y="647"/>
      <point x="370" y="495"/>
      <point x="370" y="292" type="curve" smooth="yes"/>
      <point x="370" y="118"/>
      <point x="321" y="19"/>
      <point x="225" y="19" type="curve" smooth="yes"/>
      <point x="132" y="19"/>
      <point x="76" y="114"/>
      <point x="76" y="256" type="curve" smooth="yes"/>
      <point x="76" y="397"/>
      <point x="138" y="489"/>
      <point x="228" y="489" type="curve" smooth="yes"/>
      <point x="294" y="489"/>
      <point x="339" y="443"/>
      <point x="384" y="354" type="curve"/>
    </contour>
    <contour>
      <point x="82" y="585" type="line"/>
      <point x="93" y="561" type="line"/>
      <point x="360" y="725" type="line"/>
      <point x="349" y="749" type="line"/>
    </contour>
  </outline>
</glyph>
<glyph name="oslash" format="2">
  <advance width="457"/>
  <unicode hex="00F8"/>
  <anchor x="229" y="508" name="top"/>
  <outline>
    <contour>
      <point x="-2" y="-13" type="line"/>
      <point x="36" y="-13" type="line"/>
      <point x="457" y="518" type="line"/>
      <point x="418" y="518" type="line"/>
    </contour>
    <contour>
      <point x="231" y="-10" type="curve"/>
      <point x="343" y="-10"/>
      <point x="424" y="97"/>
      <point x="424" y="254" type="curve" smooth="yes"/>
      <point x="424" y="409"/>
      <point x="343" y="518"/>
      <point x="231" y="518" type="curve" smooth="yes"/>
      <point x="119" y="518"/>
      <point x="38" y="410"/>
      <point x="38" y="254" type="curve" smooth="yes"/>
      <point x="38" y="97"/>
      <point x="119" y="-10"/>
    </contour>
    <contour>
      <point x="231" y="19" type="curve"/>
      <point x="134" y="19"/>
      <point x="78" y="96"/>
      <point x="78" y="254" type="curve" smooth="yes"/>
      <point x="78" y="394"/>
      <point x="136" y="489"/>
      <point x="231" y="489" type="curve" smooth="yes"/>
      <point x="328" y="489"/>
      <point x="384" y="409"/>
      <point x="384" y="254" type="curve" smooth="yes"/>
      <point x="384" y="110"/>
      <point x="325" y="19"/>
    </contour>
  </outline>
</glyph>
<glyph name="Aogonek" format="2">
  <advance width="549"/>
  <unicode hex="0104"/>
  <outline>
    <contour>
      <point x="147" y="298" type="line"/>
      <point x="142" y="269" type="line"/>
      <point x="398" y="269" type="line"/>
      <point x="397" y="298" type="line"/>
    </contour>
    <contour>
      <point x="466" y="28" type="line"/>
      <point x="398" y="-18"/>
      <point x="350" y="-69"/>
      <point x="350" y="-140" type="curve" smooth="yes"/>
      <point x="350" y="-198"/>
      <point x="385" y="-233"/>
      <point x="428" y="-233" type="curve" smooth="yes"/>
      <point x="464" y="-233"/>
      <point x="489" y="-211"/>
      <point x="511" y="-180" type="curve"/>
      <point x="495" y="-160" type="line"/>
      <point x="478" y="-184"/>
      <point x="461" y="-204"/>
      <point x="434" y="-204" type="curve" smooth="yes"/>
      <point x="409" y="-204"/>
      <point x="388" y="-182"/>
      <point x="388" y="-140" type="curve" smooth="yes"/>
      <point x="388" y="-82"/>
      <point x="411" y="-46"/>
      <point x="475" y="1" type="curve"/>
    </contour>
    <contour>
      <point x="541" y="0" type="line"/>
      <point x="541" y="29" type="line"/>
      <point x="537" y="29" type="line"/>
      <point x="510" y="29"/>
      <point x="492" y="31"/>
      <point x="485" y="57" type="curve" smooth="yes"/>
      <point x="299" y="710" type="line"/>
      <point x="248" y="710" type="line"/>
      <point x="69" y="72" type="line" smooth="yes"/>
      <point x="58" y="35"/>
      <point x="41" y="29"/>
      <point x="12" y="29" type="curve"/>
      <point x="8" y="29" type="line"/>
      <point x="8" y="0" type="line"/>
      <point x="174" y="0" type="line"/>
      <point x="174" y="29" type="line"/>
      <point x="162" y="29" type="line" smooth="yes"/>
      <point x="132" y="29"/>
      <point x="95" y="36"/>
      <point x="95" y="47" type="curve"/>
      <point x="274" y="697" type="line"/>
      <point x="264" y="706" type="line"/>
      <point x="462" y="0" type="line"/>
    </contour>
  </outline>
</glyph>
<glyph name="eogonek" format="2">
  <advance width="417"/>
  <unicode hex="0119"/>
  <outline>
    <contour>
      <point x="249" y="-233" type="curve" smooth="yes"/>
      <point x="285" y="-233"/>
      <point x="311" y="-211"/>
      <point x="332" y="-180" type="curve"/>
      <point x="316" y="-160" type="line"/>
      <point x="299" y="-184"/>
      <point x="282" y="-204"/>
      <point x="256" y="-204" type="curve" smooth="yes"/>
      <point x="230" y="-204"/>
      <point x="209" y="-182"/>
      <point x="209" y="-140" type="curve" smooth="yes"/>
      <point x="209" y="-70"/>
      <point x="271" y="-23"/>
      <point x="330" y="27" type="curve" smooth="yes"/>
      <point x="355" y="49"/>
      <point x="369" y="73"/>
      <point x="381" y="100" type="curve"/>
      <point x="359" y="122" type="line"/>
      <point x="336" y="67"/>
      <point x="297" y="17"/>
      <point x="226" y="17" type="curve" smooth="yes"/>
      <point x="140" y="17"/>
      <point x="75" y="101"/>
      <point x="75" y="249" type="curve" smooth="yes"/>
      <point x="75" y="398"/>
      <point x="135" y="489"/>
      <point x="217" y="489" type="curve" smooth="yes"/>
      <point x="300" y="489"/>
      <point x="339" y="415"/>
      <point x="342" y="265" type="curve"/>
      <point x="356" y="281" type="line"/>
      <point x="58" y="281" type="line"/>
      <point x="59" y="252" type="line"/>
      <point x="382" y="252" type="line"/>
      <point x="381" y="423"/>
      <point x="325" y="518"/>
      <point x="217" y="518" type="curve" smooth="yes"/>
      <point x="113" y="518"/>
      <point x="36" y="409"/>
      <point x="36" y="251" type="curve" smooth="yes"/>
      <point x="36" y="90"/>
      <point x="119" y="-12"/>
      <point x="226" y="-12" type="curve" smooth="yes"/>
      <point x="249" y="-12"/>
      <point x="271" y="-8"/>
      <point x="289" y="-2" type="curve"/>
      <point x="294" y="17" type="line"/>
      <point x="231" y="-25"/>
      <point x="171" y="-69"/>
      <point x="171" y="-140" type="curve" smooth="yes"/>
      <point x="171" y="-198"/>
      <point x="206" y="-233"/>
    </contour>
  </outline>
</glyph>
<glyph name="OE" format="2">
  <advance width="798"/>
  <unicode hex="0152"/>
  <outline>
    <contour>
      <point x="340" y="29" type="line" smooth="yes"/>
      <point x="173" y="29"/>
      <point x="79" y="146"/>
      <point x="79" y="353" type="curve" smooth="yes"/>
      <point x="79" y="560"/>
      <point x="173" y="681"/>
      <point x="340" y="681" type="curve" smooth="yes"/>
      <point x="431" y="681" type="line"/>
      <point x="431" y="29" type="line"/>
    </contour>
    <contour>
      <point x="451" y="377" type="curve"/>
      <point x="451" y="351" type="line"/>
      <point x="522" y="350"/>
      <point x="592" y="348"/>
      <point x="663" y="347" type="curve"/>
      <point x="663" y="381" type="line"/>
      <point x="592" y="380"/>
      <point x="522" y="378"/>
    </contour>
    <contour>
      <point x="753" y="0" type="line"/>
      <point x="753" y="187" type="line"/>
      <point x="728" y="187" type="line"/>
      <point x="721" y="72" type="line" smooth="yes"/>
      <point x="719" y="36"/>
      <point x="690" y="29"/>
      <point x="620" y="29" type="curve" smooth="yes"/>
      <point x="469" y="29" type="line"/>
      <point x="469" y="681" type="line"/>
      <point x="597" y="681" type="line" smooth="yes"/>
      <point x="666" y="681"/>
      <point x="695" y="674"/>
      <point x="698" y="638" type="curve" smooth="yes"/>
      <point x="705" y="548" type="line"/>
      <point x="729" y="548" type="line"/>
      <point x="729" y="710" type="line"/>
      <point x="340" y="710" type="line" smooth="yes"/>
      <point x="150" y="710"/>
      <point x="38" y="569"/>
      <point x="38" y="353" type="curve" smooth="yes"/>
      <point x="38" y="136"/>
      <point x="150" y="0"/>
      <point x="340" y="0" type="curve" smooth="yes"/>
    </contour>
  </outline>
</glyph>
<glyph name="uogonek" format="2">
  <advance width="469"/>
  <unicode hex="0173"/>
  <outline>
    <contour>
      <point x="122" y="508" type="line"/>
      <point x="16" y="508" type="line"/>
      <point x="16" y="482" type="line"/>
      <point x="19" y="482" type="line" smooth="yes"/>
      <point x="58" y="482"/>
      <point x="84" y="476"/>
      <point x="84" y="447" type="curve" smooth="yes"/>
      <point x="84" y="151" type="line" smooth="yes"/>
      <point x="84" y="40"/>
      <point x="129" y="-10"/>
      <point x="203" y="-10" type="curve" smooth="yes"/>
      <point x="263" y="-10"/>
      <point x="308" y="26"/>
      <point x="351" y="99" type="curve"/>
      <point x="351" y="141" type="line"/>
      <point x="312" y="67"/>
      <point x="267" y="22"/>
      <point x="210" y="22" type="curve" smooth="yes"/>
      <point x="144" y="22"/>
      <point x="122" y="65"/>
      <point x="122" y="162" type="curve"/>
    </contour>
    <contour>
      <point x="383" y="508" type="line"/>
      <point x="271" y="508" type="line"/>
      <point x="271" y="482" type="line"/>
      <point x="275" y="482" type="line"/>
      <point x="320" y="482"/>
      <point x="346" y="476"/>
      <point x="346" y="447" type="curve" smooth="yes"/>
      <point x="346" y="117" type="line"/>
      <point x="347" y="118" type="line"/>
      <point x="347" y="0" type="line"/>
      <point x="453" y="0" type="line"/>
      <point x="453" y="26" type="line"/>
      <point x="450" y="26" type="line" smooth="yes"/>
      <point x="412" y="26"/>
      <point x="383" y="33"/>
      <point x="383" y="62" type="curve" smooth="yes"/>
    </contour>
    <contour>
      <point x="374" y="20" type="line"/>
      <point x="318" y="-22"/>
      <point x="266" y="-69"/>
      <point x="266" y="-140" type="curve" smooth="yes"/>
      <point x="266" y="-198"/>
      <point x="301" y="-233"/>
      <point x="344" y="-233" type="curve" smooth="yes"/>
      <point x="379" y="-233"/>
      <point x="405" y="-211"/>
      <point x="427" y="-180" type="curve"/>
      <point x="411" y="-160" type="line"/>
      <point x="394" y="-184"/>
      <point x="376" y="-204"/>
      <point x="350" y="-204" type="curve" smooth="yes"/>
      <point x="325" y="-204"/>
      <point x="304" y="-182"/>
      <point x="304" y="-140" type="curve" smooth="yes"/>
      <point x="304" y="-82"/>
      <point x="331" y="-50"/>
      <point x="390" y="1" type="curve"/>
    </contour>
  </outline>
</glyph>
<glyph name="schwa" format="2">
  <advance width="417"/>
  <unicode hex="0259"/>
  <outline>
    <contour>
      <point x="201" y="518" type="curve" smooth="yes"/>
      <point x="120" y="518"/>
      <point x="70" y="466"/>
      <point x="40" y="401" type="curve"/>
      <point x="65" y="386" type="line"/>
      <point x="84" y="426"/>
      <point x="122" y="489"/>
      <point x="201" y="489" type="curve" smooth="yes"/>
      <point x="283" y="489"/>
      <point x="343" y="410"/>
      <point x="343" y="258" type="curve" smooth="yes"/>
      <point x="343" y="110"/>
      <point x="283" y="19"/>
      <point x="201" y="19" type="curve" smooth="yes"/>
      <point x="118" y="19"/>
      <point x="79" y="93"/>
      <point x="75" y="243" type="curve"/>
      <point x="61" y="227" type="line"/>
      <point x="359" y="227" type="line"/>
      <point x="359" y="256" type="line"/>
      <point x="36" y="256" type="line"/>
      <point x="37" y="85"/>
      <point x="92" y="-10"/>
      <point x="201" y="-10" type="curve" smooth="yes"/>
      <point x="304" y="-10"/>
      <point x="382" y="99"/>
      <point x="382" y="256" type="curve" smooth="yes"/>
      <point x="382" y="421"/>
      <point x="304" y="518"/>
    </contour>
  </outline>
</glyph>
<glyph name="breve" format="2">
  <advance width="403"/>
  <unicode hex="02D8"/>
  <anchor x="201" y="517" name="_top"/>
  <outline>
    <contour>
      <point x="204" y="595" type="curve" smooth="yes"/>
      <point x="147" y="595"/>
      <point x="108" y="644"/>
      <point x="104" y="736" type="curve"/>
      <point x="130" y="736" type="line"/>
      <point x="137" y="662"/>
      <point x="163" y="636"/>
      <point x="205" y="636" type="curve" smooth="yes"/>
      <point x="246" y="636"/>
      <point x="272" y="662"/>
      <point x="279" y="736" type="curve"/>
      <point x="303" y="736" type="line"/>
      <point x="299" y="644"/>
      <point x="260" y="595"/>
    </contour>
  </outline>
</glyph>
<glyph name="ring" format="2">
  <advance width="403"/>
  <unicode hex="02DA"/>
  <anchor x="202" y="526" name="_top"/>
  <outline>
    <contour>
      <point x="202" y="612" type="curve" smooth="yes"/>
      <point x="174" y="612"/>
      <point x="152" y="634"/>
      <point x="152" y="677" type="curve" smooth="yes"/>
      <point x="152" y="720"/>
      <point x="174" y="742"/>
      <point x="202" y="742" type="curve" smooth="yes"/>
      <point x="230" y="742"/>
      <point x="252" y="720"/>
      <point x="252" y="677" type="curve" smooth="yes"/>
      <point x="252" y="634"/>
      <point x="230" y="612"/>
    </contour>
    <contour>
      <point x="202" y="768" type="curve" smooth="yes"/>
      <point x="156" y="768"/>
      <point x="119" y="735"/>
      <point x="119" y="677" type="curve" smooth="yes"/>
      <point x="119" y="620"/>
      <point x="157" y="587"/>
      <point x="202" y="587" type="curve" smooth="yes"/>
      <point x="247" y="587"/>
      <point x="285" y="620"/>
      <point x="285" y="677" type="curve" smooth="yes"/>
      <point x="285" y="735"/>
      <point x="247" y="768"/>
    </contour>
  </outline>
</glyph>
<glyph name="ogonek" format="2">
  <advance width="484"/>
  <unicode hex="02DB"/>
  <anchor x="288" y="9" name="_right"/>
  <outline>
    <contour>
      <point x="311" y="20" type="line"/>
      <point x="254" y="-22"/>
      <point x="202" y="-69"/>
      <point x="202" y="-140" type="curve" smooth="yes"/>
      <point x="202" y="-198"/>
      <point x="237" y="-233"/>
      <point x="280" y="-233" type="curve" smooth="yes"/>
      <point x="316" y="-233"/>
      <point x="342" y="-211"/>
      <point x="363" y="-180" type="curve"/>
      <point x="346" y="-160" type="line"/>
      <point x="330" y="-184"/>
      <point x="312" y="-204"/>
      <point x="287" y="-204" type="curve" smooth="yes"/>
      <point x="261" y="-204"/>
      <point x="239" y="-182"/>
      <point x="239" y="-140" type="curve" smooth="yes"/>
      <point x="239" y="-82"/>
      <point x="267" y="-50"/>
      <point x="326" y="1" type="curve"/>
    </contour>
  </outline>
</glyph>
<glyph name="Delta" format="2">
  <advance width="570"/>
  <unicode hex="0394"/>
  <outline>
    <contour>
      <point x="30" y="0" type="line"/>
      <point x="540" y="0" type="line"/>
      <point x="540" y="25" type="line"/>
      <point x="307" y="710" type="line"/>
      <point x="263" y="710" type="line"/>
      <point x="30" y="25" type="line"/>
    </contour>
    <contour>
      <point x="504" y="21" type="line"/>
      <point x="518" y="30" type="line"/>
      <point x="54" y="30" type="line"/>
      <point x="61" y="15" type="line"/>
      <point x="290" y="696" type="line"/>
      <point x="274" y="697" type="line"/>
    </contour>
  </outline>
</glyph>
<glyph name="Omega" format="2">
  <advance width="619"/>
  <unicode hex="03A9"/>
  <outline>
    <contour>
      <point x="310" y="720" type="curve" smooth="yes"/>
      <point x="449" y="720"/>
      <point x="549" y="593"/>
      <point x="549" y="439" type="curve" smooth="yes"/>
      <point x="549" y="278"/>
      <point x="473" y="188"/>
      <point x="359" y="8" type="curve"/>
      <point x="362" y="28" type="line"/>
      <point x="448" y="28" type="line" smooth="yes"/>
      <point x="516" y="28"/>
      <point x="544" y="35"/>
      <point x="547" y="71" type="curve" smooth="yes"/>
      <point x="554" y="179" type="line"/>
      <point x="579" y="179" type="line"/>
      <point x="579" y="0" type="line"/>
      <point x="349" y="0" type="line"/>
      <point x="349" y="41" type="line"/>
      <point x="445" y="194"/>
      <point x="509" y="265"/>
      <point x="509" y="439" type="curve" smooth="yes"/>
      <point x="509" y="594"/>
      <point x="430" y="692"/>
      <point x="310" y="692" type="curve" smooth="yes"/>
      <point x="190" y="692"/>
      <point x="111" y="594"/>
      <point x="111" y="439" type="curve" smooth="yes"/>
      <point x="111" y="265"/>
      <point x="175" y="194"/>
      <point x="270" y="41" type="curve"/>
      <point x="270" y="0" type="line"/>
      <point x="40" y="0" type="line"/>
      <point x="40" y="179" type="line"/>
      <point x="65" y="179" type="line"/>
      <point x="72" y="71" type="line" smooth="yes"/>
      <point x="75" y="35"/>
      <point x="104" y="28"/>
      <point x="171" y="28" type="curve" smooth="yes"/>
      <point x="257" y="28" type="line"/>
      <point x="260" y="8" type="line"/>
      <point x="147" y="188"/>
      <point x="71" y="278"/>
      <point x="71" y="439" type="curve" smooth="yes"/>
      <point x="71" y="593"/>
      <point x="170" y="720"/>
    </contour>
  </outline>
</glyph>
<glyph name="thai:baht" format="2">
  <advance width="453"/>
  <unicode hex="0E3F"/>
  <outline>
    <contour>
      <point x="227" y="385" type="curve"/>
      <point x="119" y="385" type="line"/>
      <point x="119" y="682" type="line"/>
      <point x="239" y="682" type="line"/>
      <point x="322" y="682"/>
      <point x="357" y="631"/>
      <point x="357" y="542" type="curve" smooth="yes"/>
      <point x="357" y="450"/>
      <point x="320" y="385"/>
    </contour>
    <contour>
      <point x="231" y="359" type="line"/>
      <point x="332" y="359"/>
      <point x="378" y="290"/>
      <point x="378" y="191" type="curve" smooth="yes"/>
      <point x="378" y="87"/>
      <point x="335" y="28"/>
      <point x="244" y="28" type="curve" smooth="yes"/>
      <point x="119" y="28" type="line"/>
      <point x="119" y="359" type="line"/>
    </contour>
    <contour>
      <point x="214" y="790" type="line"/>
      <point x="214" y="700" type="line"/>
      <point x="214" y="693" type="line"/>
      <point x="214" y="20" type="line"/>
      <point x="214" y="10" type="line"/>
      <point x="214" y="-121" type="line"/>
      <point x="244" y="-121" type="line"/>
      <point x="244" y="10" type="line"/>
      <point x="243" y="20" type="line"/>
      <point x="243" y="692" type="line"/>
      <point x="244" y="700" type="line"/>
      <point x="244" y="790" type="line"/>
    </contour>
    <contour>
      <point x="201" y="363" type="line"/>
      <point x="337" y="363"/>
      <point x="397" y="435"/>
      <point x="397" y="543" type="curve" smooth="yes"/>
      <point x="397" y="646"/>
      <point x="342" y="711"/>
      <point x="238" y="711" type="curve"/>
      <point x="18" y="711" type="line"/>
      <point x="18" y="681" type="line"/>
      <point x="26" y="681" type="line" smooth="yes"/>
      <point x="58" y="681"/>
      <point x="81" y="674"/>
      <point x="81" y="645" type="curve" smooth="yes"/>
      <point x="81" y="65" type="line" smooth="yes"/>
      <point x="81" y="36"/>
      <point x="58" y="29"/>
      <point x="26" y="29" type="curve" smooth="yes"/>
      <point x="18" y="29" type="line"/>
      <point x="18" y="-1" type="line"/>
      <point x="244" y="-1" type="line" smooth="yes"/>
      <point x="357" y="-1"/>
      <point x="419" y="72"/>
      <point x="419" y="190" type="curve" smooth="yes"/>
      <point x="419" y="309"/>
      <point x="350" y="384"/>
      <point x="206" y="384" type="curve"/>
      <point x="265" y="365" type="line"/>
      <point x="265" y="382" type="line"/>
    </contour>
  </outline>
</glyph>
<glyph name="Germandbls" format="2">
  <advance width="632"/>
  <unicode hex="1E9E"/>
  <outline>
    <contour>
      <point x="445" y="19" type="curve" smooth="yes"/>
      <point x="358" y="19"/>
      <point x="306" y="90"/>
      <point x="288" y="211" type="curve"/>
      <point x="253" y="211" type="line"/>
      <point x="253" y="0" type="line"/>
      <point x="280" y="0" type="line"/>
      <point x="288" y="160" type="line"/>
      <point x="286" y="178"/>
      <point x="281" y="179"/>
      <point x="271" y="179" type="curve"/>
      <point x="294" y="61"/>
      <point x="350" y="-10"/>
      <point x="446" y="-10" type="curve" smooth="yes"/>
      <point x="540" y="-10"/>
      <point x="603" y="64"/>
      <point x="603" y="181" type="curve" smooth="yes"/>
      <point x="603" y="332"/>
      <point x="492" y="400"/>
      <point x="379" y="414" type="curve"/>
      <point x="385" y="405" type="line"/>
      <point x="535" y="685" type="line"/>
      <point x="535" y="710" type="line"/>
      <point x="307" y="710" type="line" smooth="yes"/>
      <point x="163" y="710"/>
      <point x="114" y="641"/>
      <point x="114" y="479" type="curve" smooth="yes"/>
      <point x="114" y="65" type="line" smooth="yes"/>
      <point x="114" y="36"/>
      <point x="85" y="29"/>
      <point x="45" y="29" type="curve" smooth="yes"/>
      <point x="37" y="29" type="line"/>
      <point x="37" y="0" type="line"/>
      <point x="152" y="0" type="line"/>
      <point x="152" y="492" type="line" smooth="yes"/>
      <point x="152" y="621"/>
      <point x="185" y="681"/>
      <point x="307" y="681" type="curve" smooth="yes"/>
      <point x="511" y="681" type="line"/>
      <point x="515" y="686"/>
      <point x="510" y="699"/>
      <point x="502" y="696" type="curve"/>
      <point x="350" y="409" type="line"/>
      <point x="350" y="387" type="line"/>
      <point x="475" y="376"/>
      <point x="565" y="316"/>
      <point x="565" y="182" type="curve" smooth="yes"/>
      <point x="565" y="80"/>
      <point x="521" y="19"/>
    </contour>
  </outline>
</glyph>
<glyph name="quoteright" format="2">
  <advance width="160"/>
  <unicode hex="2019"/>
  <outline>
    <contour>
      <point x="56" y="529" type="line"/>
      <point x="97" y="570"/>
      <point x="120" y="614"/>
      <point x="120" y="670" type="curve" smooth="yes"/>
      <point x="120" y="700"/>
      <point x="105" y="715"/>
      <point x="85" y="715" type="curve" smooth="yes"/>
      <point x="68" y="715"/>
      <point x="54" y="702"/>
      <point x="54" y="683" type="curve" smooth="yes"/>
      <point x="54" y="664"/>
      <point x="66" y="651"/>
      <point x="86" y="651" type="curve" smooth="yes"/>
      <point x="97" y="651"/>
      <point x="104" y="657"/>
      <point x="107" y="673" type="curve"/>
      <point x="98" y="663" type="line"/>
      <point x="98" y="626"/>
      <point x="71" y="577"/>
      <point x="30" y="543" type="curve"/>
    </contour>
  </outline>
</glyph>
<glyph name="guilsinglleft" format="2">
  <advance width="234"/>
  <unicode hex="2039"/>
  <outline>
    <contour>
      <point x="81" y="250" type="line"/>
      <point x="183" y="455" type="line"/>
      <point x="159" y="455" type="line"/>
      <point x="51" y="282" type="line"/>
      <point x="51" y="248" type="line"/>
      <point x="159" y="75" type="line"/>
      <point x="183" y="75" type="line"/>
      <point x="82" y="278" type="line"/>
    </contour>
  </outline>
</glyph>
<glyph name="peseta" format="2">
  <advance width="452"/>
  <unicode hex="20A7"/>
  <outline>
    <contour>
      <point x="-5" y="0" type="line"/>
      <point x="153" y="0" type="line"/>
      <point x="153" y="29" type="line"/>
      <point x="135" y="29" type="line" smooth="yes"/>
      <point x="112" y="29"/>
      <point x="88" y="32"/>
      <point x="88" y="39" type="curve" smooth="yes"/>
      <point x="88" y="280" type="line"/>
      <point x="101" y="280" type="line" smooth="yes"/>
      <point x="216" y="280"/>
      <point x="274" y="369"/>
      <point x="274" y="499" type="curve" smooth="yes"/>
      <point x="274" y="628"/>
      <point x="218" y="710"/>
      <point x="105" y="710" type="curve" smooth="yes"/>
      <point x="-5" y="710" type="line"/>
      <point x="-5" y="681" type="line"/>
      <point x="4" y="681" type="line" smooth="yes"/>
      <point x="32" y="681"/>
      <point x="51" y="674"/>
      <point x="51" y="645" type="curve" smooth="yes"/>
      <point x="51" y="65" type="line" smooth="yes"/>
      <point x="51" y="36"/>
      <point x="32" y="29"/>
      <point x="4" y="29" type="curve" smooth="yes"/>
      <point x="-5" y="29" type="line"/>
    </contour>
    <contour>
      <point x="105" y="681" type="line" smooth="yes"/>
      <point x="194" y="681"/>
      <point x="234" y="614"/>
      <point x="234" y="498" type="curve" smooth="yes"/>
      <point x="234" y="383"/>
      <point x="195" y="309"/>
      <point x="101" y="309" type="curve" smooth="yes"/>
      <point x="88" y="309" type="line"/>
      <point x="88" y="681" type="line"/>
    </contour>
    <contour>
      <point x="359" y="508" type="line"/>
      <point x="327" y="492" type="line"/>
      <point x="327" y="111" type="line" smooth="yes"/>
      <point x="327" y="24"/>
      <point x="366" y="-11"/>
      <point x="415" y="-11" type="curve" smooth="yes"/>
      <point x="439" y="-11"/>
      <point x="455" y="-5"/>
      <point x="463" y="1" type="curve"/>
      <point x="463" y="32" type="line"/>
      <point x="456" y="29"/>
      <point x="439" y="21"/>
      <point x="423" y="21" type="curve" smooth="yes"/>
      <point x="387" y="21"/>
      <point x="364" y="51"/>
      <point x="364" y="111" type="curve" smooth="yes"/>
      <point x="364" y="648" type="line"/>
      <point x="333" y="648" type="line"/>
      <point x="333" y="552" type="line"/>
      <point x="333" y="512"/>
      <point x="313" y="503"/>
      <point x="274" y="503" type="curve" smooth="yes"/>
      <point x="257" y="503" type="line"/>
      <point x="257" y="479" type="line"/>
      <point x="454" y="479" type="line"/>
      <point x="454" y="508" type="line"/>
    </contour>
  </outline>
</glyph>
<glyph name="dong" format="2">
  <advance width="452"/>
  <unicode hex="20AB"/>
  <outline>
    <contour>
      <point x="72" y="250" type="curve" smooth="yes"/>
      <point x="72" y="393"/>
      <point x="121" y="489"/>
      <point x="206" y="489" type="curve" smooth="yes"/>
      <point x="274" y="489"/>
      <point x="320" y="424"/>
      <point x="347" y="326" type="curve"/>
      <point x="365" y="347" type="line"/>
      <point x="328" y="457"/>
      <point x="285" y="518"/>
      <point x="204" y="518" type="curve" smooth="yes"/>
      <point x="102" y="518"/>
      <point x="32" y="408"/>
      <point x="32" y="250" type="curve" smooth="yes"/>
      <point x="32" y="93"/>
      <point x="96" y="-11"/>
      <point x="194" y="-11" type="curve" smooth="yes"/>
      <point x="280" y="-11"/>
      <point x="326" y="62"/>
      <point x="371" y="169" type="curve"/>
      <point x="356" y="196" type="line"/>
      <point x="319" y="95"/>
      <point x="271" y="18"/>
      <point x="199" y="18" type="curve" smooth="yes"/>
      <point x="116" y="18"/>
      <point x="72" y="107"/>
    </contour>
    <contour>
      <point x="340" y="735" type="line"/>
      <point x="340" y="138" type="line"/>
      <point x="341" y="133" type="line"/>
      <point x="341" y="0" type="line"/>
      <point x="445" y="0" type="line"/>
      <point x="445" y="26" type="line"/>
      <point x="443" y="26" type="line"/>
      <point x="405" y="26"/>
      <point x="377" y="33"/>
      <point x="377" y="62" type="curve" smooth="yes"/>
      <point x="377" y="735" type="line"/>
    </contour>
    <contour>
      <point x="75" y="-126" type="line"/>
      <point x="75" y="-154" type="line"/>
      <point x="400" y="-154" type="line"/>
      <point x="400" y="-126" type="line"/>
    </contour>
    <contour>
      <point x="186" y="629" type="line"/>
      <point x="186" y="600" type="line"/>
      <point x="446" y="600" type="line"/>
      <point x="446" y="629" type="line"/>
    </contour>
  </outline>
</glyph>
<glyph name="kip" format="2">
  <advance width="452"/>
  <unicode hex="20AD"/>
  <outline>
    <contour>
      <point x="23" y="385" type="line"/>
      <point x="23" y="357" type="line"/>
      <point x="396" y="357" type="line"/>
      <point x="396" y="385" type="line"/>
    </contour>
    <contour>
      <point x="23" y="0" type="line"/>
      <point x="208" y="0" type="line" smooth="yes"/>
      <point x="208" y="29" type="line" smooth="yes"/>
      <point x="201" y="29" type="line" smooth="yes"/>
      <point x="172" y="29"/>
      <point x="134" y="32"/>
      <point x="134" y="39" type="curve" smooth="yes"/>
      <point x="134" y="671" type="line" smooth="yes"/>
      <point x="134" y="678"/>
      <point x="172" y="681"/>
      <point x="201" y="681" type="curve" smooth="yes"/>
      <point x="208" y="681" type="line" smooth="yes"/>
      <point x="208" y="710" type="line" smooth="yes"/>
      <point x="23" y="710" type="line"/>
      <point x="23" y="681" type="line"/>
      <point x="32" y="681" type="line" smooth="yes"/>
      <point x="69" y="681"/>
      <point x="97" y="674"/>
      <point x="97" y="645" type="curve" smooth="yes"/>
      <point x="97" y="65" type="line" smooth="yes"/>
      <point x="97" y="36"/>
      <point x="69" y="29"/>
      <point x="32" y="29" type="curve" smooth="yes"/>
      <point x="23" y="29" type="line"/>
    </contour>
    <contour>
      <point x="449" y="29" type="line"/>
      <point x="440" y="29" type="line" smooth="yes"/>
      <point x="411" y="29"/>
      <point x="397" y="32"/>
      <point x="381" y="62" type="curve" smooth="yes"/>
      <point x="207" y="381" type="line"/>
      <point x="201" y="358" type="line"/>
      <point x="375" y="652" type="line" smooth="yes"/>
      <point x="388" y="675"/>
      <point x="403" y="681"/>
      <point x="426" y="681" type="curve" smooth="yes"/>
      <point x="439" y="681" type="line"/>
      <point x="439" y="710" type="line"/>
      <point x="281" y="710" type="line"/>
      <point x="281" y="681" type="line"/>
      <point x="288" y="681" type="line" smooth="yes"/>
      <point x="316" y="681"/>
      <point x="349" y="678"/>
      <point x="350" y="671" type="curve"/>
      <point x="171" y="367" type="line"/>
      <point x="179" y="363" type="line"/>
      <point x="350" y="39" type="line"/>
      <point x="350" y="32"/>
      <point x="314" y="29"/>
      <point x="285" y="29" type="curve" smooth="yes"/>
      <point x="277" y="29" type="line"/>
      <point x="277" y="0" type="line"/>
      <point x="449" y="0" type="line"/>
    </contour>
  </outline>
</glyph>
<glyph name="litre" format="2">
  <advance width="421"/>
  <unicode hex="2113"/>
  <outline>
    <contour>
      <point x="183" y="238" type="curve" smooth="yes"/>
      <point x="183" y="580"/>
      <point x="220" y="681"/>
      <point x="276" y="681" type="curve" smooth="yes"/>
      <point x="312" y="681"/>
      <point x="323" y="632"/>
      <point x="323" y="562" type="curve" smooth="yes"/>
      <point x="323" y="392"/>
      <point x="210" y="282"/>
      <point x="47" y="217" type="curve"/>
      <point x="54" y="191" type="line"/>
      <point x="225" y="255"/>
      <point x="357" y="395"/>
      <point x="357" y="562" type="curve" smooth="yes"/>
      <point x="357" y="638"/>
      <point x="335" y="710"/>
      <point x="276" y="710" type="curve" smooth="yes"/>
      <point x="195" y="710"/>
      <point x="143" y="580"/>
      <point x="143" y="238" type="curve" smooth="yes"/>
      <point x="143" y="55"/>
      <point x="184" y="-10"/>
      <point x="251" y="-10" type="curve" smooth="yes"/>
      <point x="311" y="-10"/>
      <point x="346" y="59"/>
      <point x="366" y="130" type="curve"/>
      <point x="345" y="145" type="line"/>
      <point x="328" y="92"/>
      <point x="302" y="19"/>
      <point x="254" y="19" type="curve" smooth="yes"/>
      <point x="217" y="19"/>
      <point x="183" y="57"/>
    </contour>
  </outline>
</glyph>
<glyph name="trademark" format="2">
  <advance width="676"/>
  <unicode hex="2122"/>
  <outline>
    <contour>
      <point x="55" y="710" type="line"/>
      <point x="55" y="618" type="line"/>
      <point x="77" y="618" type="line"/>
      <point x="81" y="666" type="line" smooth="yes"/>
      <point x="82" y="680"/>
      <point x="95" y="687"/>
      <point x="125" y="687" type="curve" smooth="yes"/>
      <point x="151" y="687" type="line"/>
      <point x="151" y="435" type="line" smooth="yes"/>
      <point x="151" y="422"/>
      <point x="137" y="418"/>
      <point x="120" y="418" type="curve" smooth="yes"/>
      <point x="112" y="418" type="line"/>
      <point x="112" y="395" type="line"/>
      <point x="222" y="395" type="line"/>
      <point x="222" y="418" type="line"/>
      <point x="214" y="418" type="line" smooth="yes"/>
      <point x="196" y="418"/>
      <point x="183" y="422"/>
      <point x="183" y="435" type="curve" smooth="yes"/>
      <point x="183" y="687" type="line"/>
      <point x="209" y="687" type="line" smooth="yes"/>
      <point x="240" y="687"/>
      <point x="253" y="680"/>
      <point x="254" y="666" type="curve" smooth="yes"/>
      <point x="257" y="618" type="line"/>
      <point x="279" y="618" type="line"/>
      <point x="279" y="710" type="line"/>
    </contour>
    <contour>
      <point x="313" y="395" type="line"/>
      <point x="401" y="395" type="line"/>
      <point x="401" y="418" type="line"/>
      <point x="398" y="418" type="line" smooth="yes"/>
      <point x="390" y="418"/>
      <point x="373" y="421"/>
      <point x="373" y="423" type="curve" smooth="yes"/>
      <point x="373" y="702" type="line"/>
      <point x="371" y="701" type="line"/>
      <point x="454" y="394" type="line"/>
      <point x="477" y="394" type="line"/>
      <point x="564" y="701" type="line"/>
      <point x="561" y="701" type="line"/>
      <point x="561" y="423" type="line" smooth="yes"/>
      <point x="561" y="421"/>
      <point x="546" y="418"/>
      <point x="537" y="418" type="curve" smooth="yes"/>
      <point x="533" y="418" type="line"/>
      <point x="533" y="395" type="line"/>
      <point x="627" y="395" type="line"/>
      <point x="627" y="418" type="line"/>
      <point x="621" y="418" type="line" smooth="yes"/>
      <point x="604" y="418"/>
      <point x="592" y="422"/>
      <point x="592" y="435" type="curve" smooth="yes"/>
      <point x="592" y="671" type="line" smooth="yes"/>
      <point x="592" y="685"/>
      <point x="604" y="687"/>
      <point x="621" y="687" type="curve" smooth="yes"/>
      <point x="627" y="687" type="line"/>
      <point x="627" y="710" type="line"/>
      <point x="540" y="710" type="line"/>
      <point x="466" y="435" type="line"/>
      <point x="472" y="434" type="line"/>
      <point x="402" y="710" type="line"/>
      <point x="313" y="710" type="line"/>
      <point x="313" y="687" type="line"/>
      <point x="318" y="687" type="line" smooth="yes"/>
      <point x="335" y="687"/>
      <point x="349" y="685"/>
      <point x="349" y="671" type="curve" smooth="yes"/>
      <point x="349" y="435" type="line" smooth="yes"/>
      <point x="349" y="422"/>
      <point x="335" y="418"/>
      <point x="318" y="418" type="curve"/>
      <point x="313" y="418" type="line"/>
    </contour>
  </outline>
</glyph>
<glyph name="partialdiff" format="2">
  <advance width="444"/>
  <unicode hex="2202"/>
  <outline>
    <contour>
      <point x="183" y="-12" type="curve" smooth="yes"/>
      <point x="312" y="-12"/>
      <point x="396" y="199"/>
      <point x="396" y="457" type="curve" smooth="yes"/>
      <point x="396" y="665"/>
      <point x="334" y="748"/>
      <point x="240" y="748" type="curve" smooth="yes"/>
      <point x="196" y="748"/>
      <point x="157" y="727"/>
      <point x="128" y="703" type="curve"/>
      <point x="141" y="679" type="line"/>
      <point x="165" y="697"/>
      <point x="199" y="719"/>
      <point x="236" y="719" type="curve" smooth="yes"/>
      <point x="306" y="719"/>
      <point x="357" y="647"/>
      <point x="357" y="489" type="curve" smooth="yes"/>
      <point x="357" y="247"/>
      <point x="297" y="17"/>
      <point x="184" y="17" type="curve" smooth="yes"/>
      <point x="117" y="17"/>
      <point x="87" y="83"/>
      <point x="87" y="203" type="curve" smooth="yes"/>
      <point x="87" y="357"/>
      <point x="157" y="489"/>
      <point x="254" y="489" type="curve" smooth="yes"/>
      <point x="311" y="489"/>
      <point x="354" y="454"/>
      <point x="380" y="417" type="curve"/>
      <point x="382" y="416"/>
      <point x="373" y="448"/>
      <point x="368" y="468" type="curve"/>
      <point x="353" y="486"/>
      <point x="316" y="518"/>
      <point x="255" y="518" type="curve" smooth="yes"/>
      <point x="142" y="518"/>
      <point x="47" y="380"/>
      <point x="47" y="197" type="curve" smooth="yes"/>
      <point x="47" y="64"/>
      <point x="100" y="-12"/>
    </contour>
  </outline>
</glyph>
<glyph name="emptyset" format="2">
  <advance width="563"/>
  <unicode hex="2205"/>
  <outline>
    <contour>
      <point x="58" y="-40" type="line"/>
      <point x="526" y="555" type="line"/>
      <point x="505" y="580" type="line"/>
      <point x="36" y="-15" type="line"/>
    </contour>
    <contour>
      <point x="281" y="-7" type="curve" smooth="yes"/>
      <point x="405" y="-7"/>
      <point x="507" y="112"/>
      <point x="507" y="270" type="curve" smooth="yes"/>
      <point x="507" y="428"/>
      <point x="405" y="547"/>
      <point x="281" y="547" type="curve" smooth="yes"/>
      <point x="158" y="547"/>
      <point x="56" y="428"/>
      <point x="56" y="270" type="curve" smooth="yes"/>
      <point x="56" y="112"/>
      <point x="158" y="-7"/>
    </contour>
    <contour>
      <point x="281" y="28" type="curve" smooth="yes"/>
      <point x="175" y="28"/>
      <point x="90" y="127"/>
      <point x="90" y="270" type="curve" smooth="yes"/>
      <point x="90" y="412"/>
      <point x="177" y="513"/>
      <point x="281" y="513" type="curve" smooth="yes"/>
      <point x="390" y="513"/>
      <point x="473" y="414"/>
      <point x="473" y="270" type="curve" smooth="yes"/>
      <point x="473" y="129"/>
      <point x="387" y="28"/>
    </contour>
  </outline>
</glyph>
<glyph name="infinity" format="2">
  <advance width="626"/>
  <unicode hex="221E"/>
  <outline>
    <contour>
      <point x="176" y="154" type="curve" smooth="yes"/>
      <point x="97" y="154"/>
      <point x="40" y="236"/>
      <point x="40" y="353" type="curve" smooth="yes"/>
      <point x="40" y="471"/>
      <point x="99" y="556"/>
      <point x="175" y="556" type="curve" smooth="yes"/>
      <point x="260" y="556"/>
      <point x="294" y="463"/>
      <point x="325" y="380" type="curve" smooth="yes"/>
      <point x="366" y="262"/>
      <point x="396" y="187"/>
      <point x="462" y="187" type="curve" smooth="yes"/>
      <point x="520" y="187"/>
      <point x="558" y="256"/>
      <point x="558" y="360" type="curve" smooth="yes"/>
      <point x="558" y="459"/>
      <point x="518" y="523"/>
      <point x="451" y="523" type="curve" smooth="yes"/>
      <point x="384" y="523"/>
      <point x="345" y="453"/>
      <point x="323" y="359" type="curve"/>
      <point x="305" y="360" type="line"/>
      <point x="322" y="470"/>
      <point x="375" y="556"/>
      <point x="451" y="556" type="curve" smooth="yes"/>
      <point x="529" y="556"/>
      <point x="585" y="474"/>
      <point x="585" y="357" type="curve" smooth="yes"/>
      <point x="585" y="239"/>
      <point x="528" y="154"/>
      <point x="453" y="154" type="curve" smooth="yes"/>
      <point x="369" y="154"/>
      <point x="331" y="238"/>
      <point x="301" y="332" type="curve" smooth="yes"/>
      <point x="268" y="447"/>
      <point x="230" y="523"/>
      <point x="167" y="523" type="curve" smooth="yes"/>
      <point x="107" y="523"/>
      <point x="67" y="455"/>
      <point x="67" y="350" type="curve" smooth="yes"/>
      <point x="67" y="251"/>
      <point x="108" y="187"/>
      <point x="176" y="187" type="curve" smooth="yes"/>
      <point x="244" y="187"/>
      <point x="280" y="257"/>
      <point x="302" y="352" type="curve"/>
      <point x="320" y="351" type="line"/>
      <point x="304" y="240"/>
      <point x="252" y="154"/>
    </contour>
  </outline>
</glyph>
<glyph name="approxequal" format="2">
  <advance width="452"/>
  <unicode hex="2248"/>
  <outline>
    <contour>
      <point x="296" y="328" type="curve" smooth="yes"/>
      <point x="353" y="328"/>
      <point x="375" y="395"/>
      <point x="388" y="444" type="curve"/>
      <point x="361" y="451" type="line"/>
      <point x="354" y="425"/>
      <point x="341" y="358"/>
      <point x="297" y="358" type="curve" smooth="yes"/>
      <point x="238" y="358"/>
      <point x="215" y="454"/>
      <point x="144" y="454" type="curve" smooth="yes"/>
      <point x="86" y="454"/>
      <point x="58" y="395"/>
      <point x="50" y="341" type="curve"/>
      <point x="77" y="334" type="line"/>
      <point x="84" y="373"/>
      <point x="99" y="424"/>
      <point x="143" y="424" type="curve" smooth="yes"/>
      <point x="197" y="424"/>
      <point x="228" y="328"/>
    </contour>
    <contour>
      <point x="296" y="121" type="curve" smooth="yes"/>
      <point x="353" y="121"/>
      <point x="375" y="188"/>
      <point x="388" y="237" type="curve"/>
      <point x="361" y="244" type="line"/>
      <point x="354" y="218"/>
      <point x="341" y="151"/>
      <point x="297" y="151" type="curve" smooth="yes"/>
      <point x="238" y="151"/>
      <point x="215" y="247"/>
      <point x="144" y="247" type="curve" smooth="yes"/>
      <point x="86" y="247"/>
      <point x="58" y="188"/>
      <point x="50" y="134" type="curve"/>
      <point x="77" y="127" type="line"/>
      <point x="84" y="166"/>
      <point x="99" y="217"/>
      <point x="143" y="217" type="curve" smooth="yes"/>
      <point x="197" y="217"/>
      <point x="228" y="121"/>
    </contour>
  </outline>
</glyph>
<glyph name="hook" format="2">
  <advance width="411"/>
  <unicode hex="2440"/>
  <anchor x="189" y="517" name="_top"/>
  <outline>
    <contour>
      <point x="108" y="691" type="line"/>
      <point x="112" y="732"/>
      <point x="140" y="766"/>
      <point x="193" y="766" type="curve" smooth="yes"/>
      <point x="241" y="766"/>
      <point x="268" y="744"/>
      <point x="268" y="699" type="curve" smooth="yes"/>
      <point x="268" y="651"/>
      <point x="227" y="625"/>
      <point x="180" y="622" type="curve"/>
      <point x="201" y="648" type="line"/>
      <point x="201" y="581" type="line"/>
      <point x="169" y="581" type="line"/>
      <point x="169" y="646" type="line"/>
      <point x="207" y="648"/>
      <point x="232" y="663"/>
      <point x="232" y="698" type="curve" smooth="yes"/>
      <point x="232" y="725"/>
      <point x="218" y="742"/>
      <point x="193" y="742" type="curve" smooth="yes"/>
      <point x="160" y="742"/>
      <point x="148" y="719"/>
      <point x="143" y="691" type="curve"/>
    </contour>
  </outline>
</glyph>
<glyph name="uni25B5" format="2">
  <advance width="504"/>
  <unicode hex="25B5"/>
  <outline>
    <contour>
      <point x="468" y="91" type="line"/>
      <point x="251" y="464" type="line"/>
      <point x="37" y="91" type="line"/>
    </contour>
    <contour>
      <point x="111" y="125" type="line"/>
      <point x="257" y="380" type="line"/>
      <point x="248" y="380" type="line"/>
      <point x="394" y="125" type="line"/>
      <point x="400" y="141" type="line"/>
      <point x="105" y="141" type="line"/>
    </contour>
  </outline>
</glyph>
<glyph name="six.den" format="2">
  <advance width="261"/>
  <unicode hex="E408"/>
  <outline>
    <contour>
      <point x="205" y="328" type="line"/>
      <point x="115" y="308"/>
      <point x="67" y="237"/>
      <point x="67" y="143" type="curve" smooth="yes"/>
      <point x="67" y="61"/>
      <point x="93" y="24"/>
      <point x="132" y="24" type="curve" smooth="yes"/>
      <point x="169" y="24"/>
      <point x="193" y="61"/>
      <point x="193" y="117" type="curve" smooth="yes"/>
      <point x="193" y="160"/>
      <point x="178" y="194"/>
      <point x="138" y="194" type="curve" smooth="yes"/>
      <point x="103" y="194"/>
      <point x="73" y="161"/>
      <point x="55" y="114" type="curve"/>
      <point x="49" y="142" type="line"/>
      <point x="62" y="180"/>
      <point x="98" y="225"/>
      <point x="145" y="225" type="curve" smooth="yes"/>
      <point x="200" y="225"/>
      <point x="233" y="182"/>
      <point x="233" y="117" type="curve" smooth="yes"/>
      <point x="233" y="47"/>
      <point x="190" y="-6"/>
      <point x="132" y="-6" type="curve" smooth="yes"/>
      <point x="71" y="-6"/>
      <point x="28" y="47"/>
      <point x="28" y="143" type="curve" smooth="yes"/>
      <point x="28" y="249"/>
      <point x="92" y="338"/>
      <point x="202" y="358" type="curve"/>
    </contour>
  </outline>
</glyph>
<glyph name="f_f" format="2">
  <advance width="565"/>
  <unicode hex="FB00"/>
  <outline>
    <contour>
      <point x="29" y="508" type="line"/>
      <point x="29" y="483" type="line"/>
      <point x="350" y="483" type="line"/>
      <point x="350" y="508" type="line"/>
    </contour>
    <contour>
      <point x="293" y="508" type="line"/>
      <point x="293" y="483" type="line"/>
      <point x="543" y="483" type="line"/>
      <point x="543" y="508" type="line"/>
    </contour>
    <contour>
      <point x="150" y="36" type="curve"/>
      <point x="150" y="578" type="line" smooth="yes"/>
      <point x="150" y="677"/>
      <point x="181" y="711"/>
      <point x="231" y="711" type="curve" smooth="yes"/>
      <point x="256" y="711"/>
      <point x="277" y="702"/>
      <point x="294" y="694" type="curve"/>
      <point x="294" y="727" type="line"/>
      <point x="280" y="733"/>
      <point x="256" y="737"/>
      <point x="232" y="737" type="curve" smooth="yes"/>
      <point x="164" y="737"/>
      <point x="112" y="690"/>
      <point x="112" y="578" type="curve" smooth="yes"/>
      <point x="112" y="62" type="line" smooth="yes"/>
      <point x="112" y="33"/>
      <point x="86" y="26"/>
      <point x="42" y="26" type="curve" smooth="yes"/>
      <point x="33" y="26" type="line"/>
      <point x="33" y="0" type="line"/>
      <point x="234" y="0" type="line"/>
      <point x="234" y="26" type="line"/>
      <point x="225" y="26" type="line" smooth="yes"/>
      <point x="182" y="26"/>
      <point x="150" y="29"/>
    </contour>
    <contour>
      <point x="377" y="36" type="line"/>
      <point x="377" y="29"/>
      <point x="343" y="26"/>
      <point x="310" y="26" type="curve" smooth="yes"/>
      <point x="297" y="26" type="line"/>
      <point x="297" y="0" type="line"/>
      <point x="502" y="0" type="line"/>
      <point x="502" y="26" type="line"/>
      <point x="492" y="26" type="line" smooth="yes"/>
      <point x="448" y="26"/>
      <point x="415" y="29"/>
      <point x="415" y="36" type="curve" smooth="yes"/>
      <point x="415" y="597" type="line" smooth="yes"/>
      <point x="415" y="696"/>
      <point x="447" y="723"/>
      <point x="499" y="723" type="curve" smooth="yes"/>
      <point x="522" y="723"/>
      <point x="543" y="717"/>
      <point x="560" y="711" type="curve"/>
      <point x="560" y="742" type="line"/>
      <point x="547" y="748"/>
      <point x="524" y="752"/>
      <point x="500" y="752" type="curve" smooth="yes"/>
      <point x="431" y="752"/>
      <point x="377" y="709"/>
      <point x="377" y="597" type="curve"/>
    </contour>
  </outline>
</glyph>
<glyph name="AE.alt" format="2">
  <advance width="760"/>
  <outline>
    <contour>
      <point x="194" y="298" type="line"/>
      <point x="177" y="269" type="line"/>
      <point x="401" y="269" type="line"/>
      <point x="401" y="298" type="line"/>
    </contour>
    <contour>
      <point x="314" y="0" type="line"/>
      <point x="715" y="0" type="line"/>
      <point x="715" y="187" type="line"/>
      <point x="690" y="187" type="line"/>
      <point x="683" y="72" type="line" smooth="yes"/>
      <point x="680" y="36"/>
      <point x="651" y="29"/>
      <point x="582" y="29" type="curve" smooth="yes"/>
      <point x="429" y="29" type="line"/>
      <point x="429" y="681" type="line"/>
      <point x="558" y="681" type="line" smooth="yes"/>
      <point x="628" y="681"/>
      <point x="656" y="674"/>
      <point x="659" y="638" type="curve" smooth="yes"/>
      <point x="667" y="548" type="line"/>
      <point x="691" y="548" type="line"/>
      <point x="691" y="710" type="line"/>
      <point x="263" y="710" type="line"/>
      <point x="263" y="681" type="line"/>
      <point x="273" y="681" type="line" smooth="yes"/>
      <point x="315" y="681"/>
      <point x="345" y="674"/>
      <point x="347" y="656" type="curve"/>
      <point x="55" y="72" type="line" smooth="yes"/>
      <point x="37" y="38"/>
      <point x="25" y="29"/>
      <point x="-2" y="29" type="curve" smooth="yes"/>
      <point x="-6" y="29" type="line"/>
      <point x="-6" y="0" type="line"/>
      <point x="158" y="0" type="line"/>
      <point x="158" y="29" type="line"/>
      <point x="146" y="29" type="line" smooth="yes"/>
      <point x="115" y="29"/>
      <point x="78" y="36"/>
      <point x="78" y="47" type="curve"/>
      <point x="392" y="678" type="line"/>
      <point x="392" y="678" type="line"/>
      <point x="392" y="39" type="line"/>
      <point x="392" y="32"/>
      <point x="352" y="29"/>
      <point x="321" y="29" type="curve" smooth="yes"/>
      <point x="314" y="29" type="line"/>
    </contour>
    <contour>
      <point x="408" y="378" type="line"/>
      <point x="408" y="350" type="line"/>
      <point x="581" y="350" type="line" smooth="yes"/>
      <point x="606" y="350"/>
      <point x="614" y="321"/>
      <point x="614" y="287" type="curve" smooth="yes"/>
      <point x="614" y="279" type="line"/>
      <point x="637" y="279" type="line"/>
      <point x="637" y="450" type="line"/>
      <point x="614" y="450" type="line"/>
      <point x="614" y="442" type="line" smooth="yes"/>
      <point x="614" y="407"/>
      <point x="606" y="378"/>
      <point x="581" y="378" type="curve" smooth="yes"/>
    </contour>
  </outline>
</glyph>
<glyph name="E.alt" format="2">
  <advance width="485"/>
  <outline>
    <contour>
      <point x="441" y="187" type="line"/>
      <point x="416" y="187" type="line"/>
      <point x="409" y="72" type="line" smooth="yes"/>
      <point x="406" y="36"/>
      <point x="377" y="29"/>
      <point x="308" y="29" type="curve" smooth="yes"/>
      <point x="152" y="29" type="line"/>
      <point x="152" y="681" type="line"/>
      <point x="284" y="681" type="line" smooth="yes"/>
      <point x="354" y="681"/>
      <point x="381" y="674"/>
      <point x="385" y="638" type="curve" smooth="yes"/>
      <point x="393" y="548" type="line"/>
      <point x="417" y="548" type="line"/>
      <point x="417" y="710" type="line"/>
      <point x="37" y="710" type="line"/>
      <point x="37" y="681" type="line"/>
      <point x="45" y="681" type="line" smooth="yes"/>
      <point x="85" y="681"/>
      <point x="114" y="674"/>
      <point x="114" y="645" type="curve" smooth="yes"/>
      <point x="114" y="65" type="line" smooth="yes"/>
      <point x="114" y="36"/>
      <point x="85" y="29"/>
      <point x="45" y="29" type="curve" smooth="yes"/>
      <point x="37" y="29" type="line"/>
      <point x="37" y="0" type="line"/>
      <point x="441" y="0" type="line"/>
    </contour>
    <contour>
      <point x="135" y="378" type="line"/>
      <point x="135" y="350" type="line"/>
      <point x="307" y="350" type="line" smooth="yes"/>
      <point x="332" y="350"/>
      <point x="340" y="321"/>
      <point x="340" y="287" type="curve" smooth="yes"/>
      <point x="340" y="279" type="line"/>
      <point x="363" y="279" type="line"/>
      <point x="363" y="450" type="line"/>
      <point x="340" y="450" type="line"/>
      <point x="340" y="442" type="line" smooth="yes"/>
      <point x="340" y="407"/>
      <point x="332" y="378"/>
      <point x="307" y="378" type="curve" smooth="yes"/>
    </contour>
  </outline>
</glyph>
<glyph name="F.alt" format="2">
  <advance width="472"/>
  <outline>
    <contour>
      <point x="152" y="681" type="line"/>
      <point x="289" y="681" type="line" smooth="yes"/>
      <point x="358" y="681"/>
      <point x="387" y="674"/>
      <point x="390" y="638" type="curve" smooth="yes"/>
      <point x="397" y="548" type="line"/>
      <point x="421" y="548" type="line"/>
      <point x="421" y="710" type="line"/>
      <point x="37" y="710" type="line"/>
      <point x="37" y="681" type="line"/>
      <point x="45" y="681" type="line" smooth="yes"/>
      <point x="85" y="681"/>
      <point x="114" y="674"/>
      <point x="114" y="645" type="curve" smooth="yes"/>
      <point x="114" y="65" type="line" smooth="yes"/>
      <point x="114" y="36"/>
      <point x="85" y="29"/>
      <point x="45" y="29" type="curve" smooth="yes"/>
      <point x="37" y="29" type="line"/>
      <point x="37" y="0" type="line"/>
      <point x="242" y="0" type="line"/>
      <point x="242" y="29" type="line"/>
      <point x="228" y="29" type="line" smooth="yes"/>
      <point x="193" y="29"/>
      <point x="152" y="30"/>
      <point x="152" y="65" type="curve" smooth="yes"/>
    </contour>
    <contour>
      <point x="133" y="372" type="line"/>
      <point x="133" y="343" type="line"/>
      <point x="315" y="343" type="line" smooth="yes"/>
      <point x="339" y="343"/>
      <point x="348" y="314"/>
      <point x="348" y="280" type="curve" smooth="yes"/>
      <point x="348" y="272" type="line"/>
      <point x="371" y="272" type="line"/>
      <point x="371" y="444" type="line"/>
      <point x="348" y="444" type="line"/>
      <point x="348" y="435" type="line" smooth="yes"/>
      <point x="348" y="400"/>
      <point x="339" y="372"/>
      <point x="315" y="372" type="curve" smooth="yes"/>
    </contour>
  </outline>
</glyph>
<glyph name="OE.alt" format="2">
  <advance width="798"/>
  <outline>
    <contour>
      <point x="753" y="187" type="line"/>
      <point x="728" y="187" type="line"/>
      <point x="721" y="72" type="line" smooth="yes"/>
      <point x="719" y="36"/>
      <point x="690" y="29"/>
      <point x="620" y="29" type="curve" smooth="yes"/>
      <point x="469" y="29" type="line"/>
      <point x="469" y="681" type="line"/>
      <point x="597" y="681" type="line" smooth="yes"/>
      <point x="666" y="681"/>
      <point x="695" y="674"/>
      <point x="698" y="638" type="curve" smooth="yes"/>
      <point x="705" y="548" type="line"/>
      <point x="729" y="548" type="line"/>
      <point x="729" y="710" type="line"/>
      <point x="340" y="710" type="line" smooth="yes"/>
      <point x="150" y="710"/>
      <point x="38" y="569"/>
      <point x="38" y="353" type="curve" smooth="yes"/>
      <point x="38" y="136"/>
      <point x="150" y="0"/>
      <point x="340" y="0" type="curve" smooth="yes"/>
      <point x="753" y="0" type="line"/>
    </contour>
    <contour>
      <point x="79" y="353" type="curve" smooth="yes"/>
      <point x="79" y="560"/>
      <point x="173" y="681"/>
      <point x="340" y="681" type="curve" smooth="yes"/>
      <point x="431" y="681" type="line"/>
      <point x="431" y="29" type="line"/>
      <point x="340" y="29" type="line" smooth="yes"/>
      <point x="173" y="29"/>
      <point x="79" y="146"/>
    </contour>
    <contour>
      <point x="451" y="378" type="line"/>
      <point x="451" y="350" type="line"/>
      <point x="620" y="350" type="line" smooth="yes"/>
      <point x="644" y="350"/>
      <point x="652" y="321"/>
      <point x="652" y="287" type="curve" smooth="yes"/>
      <point x="652" y="279" type="line"/>
      <point x="676" y="279" type="line"/>
      <point x="676" y="450" type="line"/>
      <point x="652" y="450" type="line"/>
      <point x="652" y="442" type="line" smooth="yes"/>
      <point x="652" y="407"/>
      <point x="644" y="378"/>
      <point x="620" y="378" type="curve" smooth="yes"/>
    </contour>
  </outline>
</glyph>
<glyph name="bar.uc" format="2">
  <advance width="226"/>
  <outline>
    <contour>
      <point x="98" y="745" type="line"/>
      <point x="98" y="-35" type="line"/>
      <point x="128" y="-35" type="line"/>
      <point x="128" y="745" type="line"/>
    </contour>
  </outline>
</glyph>
<glyph name="blackcircle" format="2">
  <advance width="477"/>
  <outline>
    <contour>
      <point x="239" y="80" type="curve" smooth="yes"/>
      <point x="340" y="80"/>
      <point x="421" y="177"/>
      <point x="421" y="304" type="curve" smooth="yes"/>
      <point x="421" y="431"/>
      <point x="340" y="528"/>
      <point x="239" y="528" type="curve" smooth="yes"/>
      <point x="137" y="528"/>
      <point x="56" y="431"/>
      <point x="56" y="304" type="curve" smooth="yes"/>
      <point x="56" y="177"/>
      <point x="137" y="80"/>
    </contour>
  </outline>
</glyph>
<glyph name="breve_acute.uc" format="2">
  <advance width="411"/>
  <anchor x="204" y="744" name="_top"/>
  <outline>
    <contour>
      <point x="250" y="1018" type="curve" smooth="yes"/>
      <point x="183" y="930" type="line"/>
      <point x="183" y="916" type="line"/>
      <point x="196" y="916" type="line"/>
      <point x="279" y="989" type="line" smooth="yes"/>
      <point x="303" y="1008"/>
      <point x="315" y="1019"/>
      <point x="315" y="1034" type="curve" smooth="yes"/>
      <point x="315" y="1047"/>
      <point x="307" y="1056"/>
      <point x="294" y="1056" type="curve" smooth="yes"/>
      <point x="278" y="1056"/>
      <point x="268" y="1042"/>
    </contour>
    <component base="breve.uc"/>
  </outline>
</glyph>
<glyph name="breve_hook" format="2">
  <advance width="411"/>
  <anchor x="201" y="525" name="_top"/>
  <outline>
    <contour>
      <point x="127" y="833" type="line"/>
      <point x="132" y="870"/>
      <point x="156" y="907"/>
      <point x="210" y="907" type="curve" smooth="yes"/>
      <point x="260" y="907"/>
      <point x="285" y="882"/>
      <point x="285" y="842" type="curve" smooth="yes"/>
      <point x="285" y="795"/>
      <point x="248" y="769"/>
      <point x="198" y="767" type="curve"/>
      <point x="218" y="793" type="line"/>
      <point x="218" y="734" type="line"/>
      <point x="188" y="734" type="line"/>
      <point x="188" y="793" type="line"/>
      <point x="230" y="796"/>
      <point x="250" y="808"/>
      <point x="250" y="841" type="curve" smooth="yes"/>
      <point x="250" y="863"/>
      <point x="237" y="880"/>
      <point x="210" y="880" type="curve" smooth="yes"/>
      <point x="176" y="880"/>
      <point x="165" y="858"/>
      <point x="161" y="833" type="curve"/>
    </contour>
    <contour>
      <point x="204" y="595" type="curve" smooth="yes"/>
      <point x="147" y="595"/>
      <point x="108" y="644"/>
      <point x="104" y="736" type="curve"/>
      <point x="130" y="736" type="line"/>
      <point x="137" y="662"/>
      <point x="163" y="636"/>
      <point x="205" y="636" type="curve" smooth="yes"/>
      <point x="246" y="636"/>
      <point x="272" y="662"/>
      <point x="279" y="736" type="curve"/>
      <point x="303" y="736" type="line"/>
      <point x="299" y="644"/>
      <point x="260" y="595"/>
    </contour>
  </outline>
</glyph>
<glyph name="brokenbar.uc" format="2">
  <advance width="226"/>
  <outline>
    <contour>
      <point x="128" y="457" type="line"/>
      <point x="128" y="771" type="line"/>
      <point x="98" y="771" type="line"/>
      <point x="98" y="457" type="line"/>
    </contour>
    <contour>
      <point x="98" y="317" type="line"/>
      <point x="98" y="2" type="line"/>
      <point x="128" y="2" type="line"/>
      <point x="128" y="317" type="line"/>
    </contour>
  </outline>
</glyph>
<glyph name="cent.altprop" format="2">
  <advance width="452"/>
  <outline>
    <contour>
      <point x="254" y="503" type="line"/>
      <point x="254" y="623" type="line"/>
      <point x="223" y="623" type="line"/>
      <point x="223" y="507" type="line"/>
    </contour>
    <contour>
      <point x="223" y="3" type="line"/>
      <point x="223" y="-126" type="line"/>
      <point x="254" y="-126" type="line"/>
      <point x="254" y="-1" type="line"/>
    </contour>
    <contour>
      <point x="242" y="17" type="curve" smooth="yes"/>
      <point x="149" y="17"/>
      <point x="86" y="104"/>
      <point x="86" y="253" type="curve" smooth="yes"/>
      <point x="86" y="393"/>
      <point x="143" y="489"/>
      <point x="249" y="489" type="curve" smooth="yes"/>
      <point x="309" y="489"/>
      <point x="356" y="459"/>
      <point x="375" y="428" type="curve"/>
      <point x="383" y="449"/>
      <point x="376" y="452"/>
      <point x="356" y="463" type="curve"/>
      <point x="356" y="369" type="line"/>
      <point x="399" y="369" type="line"/>
      <point x="399" y="458" type="line"/>
      <point x="381" y="478"/>
      <point x="330" y="518"/>
      <point x="249" y="518" type="curve" smooth="yes"/>
      <point x="122" y="518"/>
      <point x="46" y="406"/>
      <point x="46" y="253" type="curve" smooth="yes"/>
      <point x="46" y="91"/>
      <point x="130" y="-12"/>
      <point x="242" y="-12" type="curve" smooth="yes"/>
      <point x="329" y="-12"/>
      <point x="377" y="52"/>
      <point x="405" y="125" type="curve"/>
      <point x="380" y="138" type="line"/>
      <point x="359" y="79"/>
      <point x="318" y="17"/>
    </contour>
  </outline>
</glyph>
<glyph name="circumflex_acute" format="2">
  <advance width="411"/>
  <anchor x="180" y="558" name="_top"/>
  <outline>
    <contour>
      <point x="333" y="824" type="curve" smooth="yes"/>
      <point x="290" y="707" type="line"/>
      <point x="290" y="693" type="line"/>
      <point x="303" y="693" type="line"/>
      <point x="371" y="801" type="line" smooth="yes"/>
      <point x="383" y="818"/>
      <point x="392" y="833"/>
      <point x="392" y="848" type="curve" smooth="yes"/>
      <point x="392" y="861"/>
      <point x="383" y="871"/>
      <point x="370" y="871" type="curve" smooth="yes"/>
      <point x="354" y="871"/>
      <point x="345" y="854"/>
    </contour>
    <component base="circumflex" xOffset="-8"/>
  </outline>
</glyph>
<glyph name="circumflex_acute.uc" format="2">
  <advance width="411"/>
  <anchor x="190" y="749" name="_top"/>
  <outline>
    <contour>
      <point x="339" y="922" type="curve" smooth="yes"/>
      <point x="302" y="847" type="line"/>
      <point x="302" y="833" type="line"/>
      <point x="315" y="833" type="line"/>
      <point x="371" y="905" type="line" smooth="yes"/>
      <point x="390" y="926"/>
      <point x="400" y="937"/>
      <point x="400" y="952" type="curve" smooth="yes"/>
      <point x="400" y="964"/>
      <point x="392" y="973"/>
      <point x="379" y="973" type="curve" smooth="yes"/>
      <point x="364" y="973"/>
      <point x="356" y="958"/>
    </contour>
    <component base="circumflex.uc"/>
  </outline>
</glyph>
<glyph name="circumflex_hook.uc" format="2">
  <advance width="411"/>
  <anchor x="188" y="694" name="_top"/>
  <outline>
    <contour>
      <point x="261" y="943" type="line"/>
      <point x="267" y="980"/>
      <point x="292" y="1017"/>
      <point x="343" y="1017" type="curve" smooth="yes"/>
      <point x="390" y="1017"/>
      <point x="417" y="993"/>
      <point x="417" y="949" type="curve" smooth="yes"/>
      <point x="417" y="901"/>
      <point x="377" y="879"/>
      <point x="331" y="878" type="curve"/>
      <point x="351" y="904" type="line"/>
      <point x="351" y="839" type="line"/>
      <point x="320" y="839" type="line"/>
      <point x="320" y="901" type="line"/>
      <point x="357" y="904"/>
      <point x="379" y="916"/>
      <point x="379" y="949" type="curve" smooth="yes"/>
      <point x="379" y="976"/>
      <point x="367" y="990"/>
      <point x="343" y="990" type="curve" smooth="yes"/>
      <point x="313" y="990"/>
      <point x="302" y="967"/>
      <point x="296" y="943" type="curve"/>
    </contour>
    <component base="circumflex.uc"/>
  </outline>
</glyph>
<glyph name="circumflex_tilde" format="2">
  <advance width="403"/>
  <anchor x="197" y="551" name="_top"/>
  <outline>
    <contour>
      <point x="244" y="780" type="curve" smooth="yes"/>
      <point x="281" y="780"/>
      <point x="299" y="815"/>
      <point x="312" y="877" type="curve"/>
      <point x="287" y="886" type="line"/>
      <point x="278" y="841"/>
      <point x="269" y="811"/>
      <point x="249" y="811" type="curve" smooth="yes"/>
      <point x="217" y="811"/>
      <point x="203" y="889"/>
      <point x="154" y="889" type="curve" smooth="yes"/>
      <point x="119" y="889"/>
      <point x="99" y="855"/>
      <point x="89" y="789" type="curve"/>
      <point x="113" y="780" type="line"/>
      <point x="121" y="830"/>
      <point x="129" y="857"/>
      <point x="150" y="857" type="curve" smooth="yes"/>
      <point x="181" y="857"/>
      <point x="195" y="780"/>
    </contour>
    <contour>
      <point x="229" y="729" type="line"/>
      <point x="309" y="608" type="line"/>
      <point x="309" y="598" type="line"/>
      <point x="288" y="598" type="line"/>
      <point x="183" y="718" type="line"/>
      <point x="215" y="718" type="line"/>
      <point x="111" y="598" type="line"/>
      <point x="94" y="598" type="line"/>
      <point x="94" y="608" type="line"/>
      <point x="174" y="729" type="line"/>
    </contour>
  </outline>
</glyph>
<glyph name="dieresis.uc" format="2">
  <advance width="403"/>
  <anchor x="202" y="694" name="_top"/>
  <outline>
    <contour>
      <point x="122" y="781" type="curve" smooth="yes"/>
      <point x="142" y="781"/>
      <point x="157" y="794"/>
      <point x="157" y="820" type="curve" smooth="yes"/>
      <point x="157" y="845"/>
      <point x="142" y="859"/>
      <point x="122" y="859" type="curve" smooth="yes"/>
      <point x="102" y="859"/>
      <point x="88" y="845"/>
      <point x="88" y="820" type="curve" smooth="yes"/>
      <point x="88" y="794"/>
      <point x="102" y="781"/>
    </contour>
    <contour>
      <point x="280" y="781" type="curve" smooth="yes"/>
      <point x="300" y="781"/>
      <point x="315" y="794"/>
      <point x="315" y="820" type="curve" smooth="yes"/>
      <point x="315" y="845"/>
      <point x="300" y="859"/>
      <point x="280" y="859" type="curve" smooth="yes"/>
      <point x="261" y="859"/>
      <point x="246" y="845"/>
      <point x="246" y="820" type="curve" smooth="yes"/>
      <point x="246" y="794"/>
      <point x="261" y="781"/>
    </contour>
  </outline>
</glyph>
<glyph name="dong.proportional" format="2">
  <advance width="460"/>
  <outline>
    <contour>
      <point x="73" y="250" type="curve" smooth="yes"/>
      <point x="73" y="393"/>
      <point x="122" y="489"/>
      <point x="209" y="489" type="curve" smooth="yes"/>
      <point x="277" y="489"/>
      <point x="324" y="424"/>
      <point x="352" y="326" type="curve"/>
      <point x="370" y="347" type="line"/>
      <point x="332" y="457"/>
      <point x="289" y="518"/>
      <point x="207" y="518" type="curve" smooth="yes"/>
      <point x="104" y="518"/>
      <point x="33" y="408"/>
      <point x="33" y="250" type="curve" smooth="yes"/>
      <point x="33" y="93"/>
      <point x="98" y="-11"/>
      <point x="197" y="-11" type="curve" smooth="yes"/>
      <point x="284" y="-11"/>
      <point x="330" y="63"/>
      <point x="376" y="169" type="curve"/>
      <point x="361" y="196" type="line"/>
      <point x="323" y="95"/>
      <point x="274" y="18"/>
      <point x="202" y="18" type="curve" smooth="yes"/>
      <point x="117" y="18"/>
      <point x="73" y="107"/>
    </contour>
    <contour>
      <point x="345" y="709" type="line"/>
      <point x="345" y="138" type="line"/>
      <point x="346" y="133" type="line"/>
      <point x="346" y="0" type="line"/>
      <point x="450" y="0" type="line"/>
      <point x="450" y="26" type="line"/>
      <point x="449" y="26" type="line"/>
      <point x="411" y="26"/>
      <point x="382" y="33"/>
      <point x="382" y="62" type="curve" smooth="yes"/>
      <point x="382" y="709" type="line"/>
    </contour>
    <contour>
      <point x="79" y="-126" type="line"/>
      <point x="79" y="-154" type="line"/>
      <point x="403" y="-154" type="line"/>
      <point x="403" y="-126" type="line"/>
    </contour>
    <contour>
      <point x="190" y="614" type="line"/>
      <point x="190" y="585" type="line"/>
      <point x="452" y="585" type="line"/>
      <point x="452" y="614" type="line"/>
    </contour>
  </outline>
</glyph>
<glyph name="eight.lintab" format="2">
  <advance width="452"/>
  <outline>
    <contour>
      <point x="226" y="19" type="curve"/>
      <point x="144" y="19"/>
      <point x="81" y="87"/>
      <point x="81" y="197" type="curve" smooth="yes"/>
      <point x="81" y="300"/>
      <point x="144" y="362"/>
      <point x="226" y="362" type="curve"/>
      <point x="308" y="362"/>
      <point x="371" y="300"/>
      <point x="371" y="197" type="curve" smooth="yes"/>
      <point x="371" y="87"/>
      <point x="308" y="19"/>
    </contour>
    <contour>
      <point x="226" y="390" type="curve"/>
      <point x="161" y="390"/>
      <point x="107" y="447"/>
      <point x="107" y="538" type="curve" smooth="yes"/>
      <point x="107" y="632"/>
      <point x="157" y="692"/>
      <point x="226" y="692" type="curve"/>
      <point x="294" y="692"/>
      <point x="344" y="632"/>
      <point x="344" y="538" type="curve" smooth="yes"/>
      <point x="344" y="447"/>
      <point x="290" y="390"/>
    </contour>
    <contour>
      <point x="226" y="720" type="curve"/>
      <point x="142" y="720"/>
      <point x="69" y="648"/>
      <point x="69" y="543" type="curve" smooth="yes"/>
      <point x="69" y="453"/>
      <point x="120" y="392"/>
      <point x="186" y="374" type="curve"/>
      <point x="169" y="385" type="line"/>
      <point x="169" y="372" type="line"/>
      <point x="186" y="382" type="line"/>
      <point x="105" y="363"/>
      <point x="40" y="295"/>
      <point x="40" y="192" type="curve" smooth="yes"/>
      <point x="40" y="72"/>
      <point x="124" y="-10"/>
      <point x="226" y="-10" type="curve"/>
      <point x="328" y="-10"/>
      <point x="412" y="72"/>
      <point x="412" y="192" type="curve" smooth="yes"/>
      <point x="412" y="295"/>
      <point x="346" y="363"/>
      <point x="265" y="382" type="curve"/>
      <point x="282" y="372" type="line"/>
      <point x="282" y="385" type="line"/>
      <point x="265" y="374" type="line"/>
      <point x="331" y="392"/>
      <point x="383" y="453"/>
      <point x="383" y="543" type="curve" smooth="yes"/>
      <point x="383" y="648"/>
      <point x="310" y="720"/>
    </contour>
  </outline>
</glyph>
<glyph name="f.alt" format="2">
  <advance width="299"/>
  <outline>
    <contour>
      <point x="29" y="508" type="line"/>
      <point x="29" y="483" type="line"/>
      <point x="278" y="483" type="line"/>
      <point x="278" y="508" type="line"/>
    </contour>
    <contour>
      <point x="242" y="723" type="curve"/>
      <point x="277" y="723"/>
      <point x="301" y="710"/>
      <point x="321" y="679" type="curve"/>
      <point x="327" y="706"/>
      <point x="318" y="704"/>
      <point x="301" y="727" type="curve"/>
      <point x="301" y="640" type="line"/>
      <point x="343" y="640" type="line"/>
      <point x="343" y="709" type="line"/>
      <point x="326" y="732"/>
      <point x="292" y="752"/>
      <point x="242" y="752" type="curve"/>
      <point x="169" y="752"/>
      <point x="112" y="711"/>
      <point x="112" y="604" type="curve" smooth="yes"/>
      <point x="112" y="62" type="line" smooth="yes"/>
      <point x="112" y="33"/>
      <point x="86" y="26"/>
      <point x="42" y="26" type="curve" smooth="yes"/>
      <point x="33" y="26" type="line"/>
      <point x="33" y="0" type="line"/>
      <point x="237" y="0" type="line"/>
      <point x="237" y="26" type="line"/>
      <point x="227" y="26" type="line" smooth="yes"/>
      <point x="183" y="26"/>
      <point x="150" y="29"/>
      <point x="150" y="36" type="curve" smooth="yes"/>
      <point x="150" y="604" type="line" smooth="yes"/>
      <point x="150" y="698"/>
      <point x="188" y="723"/>
    </contour>
  </outline>
</glyph>
<glyph name="f_f.short" format="2">
  <advance width="565"/>
  <outline>
    <contour>
      <point x="29" y="508" type="line"/>
      <point x="29" y="483" type="line"/>
      <point x="350" y="483" type="line"/>
      <point x="350" y="508" type="line"/>
    </contour>
    <contour>
      <point x="293" y="508" type="line"/>
      <point x="293" y="483" type="line"/>
      <point x="539" y="483" type="line"/>
      <point x="539" y="508" type="line"/>
    </contour>
    <contour>
      <point x="377" y="36" type="line"/>
      <point x="377" y="29"/>
      <point x="343" y="26"/>
      <point x="310" y="26" type="curve" smooth="yes"/>
      <point x="297" y="26" type="line"/>
      <point x="297" y="0" type="line"/>
      <point x="502" y="0" type="line"/>
      <point x="502" y="26" type="line"/>
      <point x="492" y="26" type="line" smooth="yes"/>
      <point x="448" y="26"/>
      <point x="415" y="29"/>
      <point x="415" y="36" type="curve" smooth="yes"/>
      <point x="415" y="608" type="line" smooth="yes"/>
      <point x="415" y="699"/>
      <point x="446" y="723"/>
      <point x="489" y="723" type="curve" smooth="yes"/>
      <point x="514" y="723"/>
      <point x="529" y="715"/>
      <point x="540" y="710" type="curve"/>
      <point x="540" y="742" type="line"/>
      <point x="530" y="746"/>
      <point x="515" y="752"/>
      <point x="491" y="752" type="curve" smooth="yes"/>
      <point x="429" y="752"/>
      <point x="377" y="712"/>
      <point x="377" y="608" type="curve"/>
    </contour>
    <contour>
      <point x="150" y="36" type="curve"/>
      <point x="150" y="578" type="line" smooth="yes"/>
      <point x="150" y="677"/>
      <point x="181" y="711"/>
      <point x="231" y="711" type="curve" smooth="yes"/>
      <point x="256" y="711"/>
      <point x="277" y="702"/>
      <point x="294" y="694" type="curve"/>
      <point x="294" y="727" type="line"/>
      <point x="280" y="733"/>
      <point x="256" y="737"/>
      <point x="232" y="737" type="curve" smooth="yes"/>
      <point x="164" y="737"/>
      <point x="112" y="690"/>
      <point x="112" y="578" type="curve" smooth="yes"/>
      <point x="112" y="62" type="line" smooth="yes"/>
      <point x="112" y="33"/>
      <point x="86" y="26"/>
      <point x="42" y="26" type="curve" smooth="yes"/>
      <point x="33" y="26" type="line"/>
      <point x="33" y="0" type="line"/>
      <point x="234" y="0" type="line"/>
      <point x="234" y="26" type="line"/>
      <point x="225" y="26" type="line" smooth="yes"/>
      <point x="182" y="26"/>
      <point x="150" y="29"/>
    </contour>
  </outline>
</glyph>
<glyph name="f_f_b.alt" format="2">
  <advance width="1050"/>
  <outline>
    <contour>
      <point x="33" y="0" type="line"/>
      <point x="234" y="0" type="line"/>
      <point x="234" y="26" type="line"/>
      <point x="225" y="26" type="line" smooth="yes"/>
      <point x="182" y="26"/>
      <point x="150" y="29"/>
      <point x="150" y="36" type="curve" smooth="yes"/>
      <point x="150" y="559" type="line" smooth="yes"/>
      <point x="150" y="673"/>
      <point x="205" y="703"/>
      <point x="279" y="703" type="curve" smooth="yes"/>
      <point x="332" y="703"/>
      <point x="374" y="686"/>
      <point x="401" y="639" type="curve"/>
      <point x="407" y="681"/>
      <point x="394" y="679"/>
      <point x="377" y="693" type="curve"/>
      <point x="377" y="570" type="line"/>
      <point x="413" y="620" type="line"/>
      <point x="413" y="681" type="line"/>
      <point x="392" y="707"/>
      <point x="347" y="732"/>
      <point x="279" y="732" type="curve" smooth="yes"/>
      <point x="182" y="732"/>
      <point x="112" y="688"/>
      <point x="112" y="559" type="curve" smooth="yes"/>
      <point x="112" y="62" type="line"/>
      <point x="112" y="33"/>
      <point x="86" y="26"/>
      <point x="42" y="26" type="curve" smooth="yes"/>
      <point x="33" y="26" type="line"/>
    </contour>
    <contour>
      <point x="501" y="0" type="line"/>
      <point x="501" y="26" type="line"/>
      <point x="490" y="26" type="line" smooth="yes"/>
      <point x="447" y="26"/>
      <point x="415" y="29"/>
      <point x="415" y="36" type="curve" smooth="yes"/>
      <point x="415" y="597" type="line" smooth="yes"/>
      <point x="415" y="696"/>
      <point x="454" y="723"/>
      <point x="528" y="723" type="curve" smooth="yes"/>
      <point x="576" y="723"/>
      <point x="622" y="708"/>
      <point x="660" y="676" type="curve"/>
      <point x="665" y="712" type="line"/>
      <point x="635" y="727"/>
      <point x="590" y="752"/>
      <point x="528" y="752" type="curve" smooth="yes"/>
      <point x="437" y="752"/>
      <point x="377" y="709"/>
      <point x="377" y="597" type="curve"/>
      <point x="377" y="36" type="line" smooth="yes"/>
      <point x="377" y="29"/>
      <point x="342" y="26"/>
      <point x="310" y="26" type="curve" smooth="yes"/>
      <point x="297" y="26" type="line"/>
      <point x="297" y="0" type="line"/>
    </contour>
    <contour>
      <point x="974" y="257" type="curve" smooth="yes"/>
      <point x="974" y="114"/>
      <point x="924" y="19"/>
      <point x="829" y="19" type="curve" smooth="yes"/>
      <point x="760" y="19"/>
      <point x="707" y="85"/>
      <point x="672" y="182" type="curve"/>
      <point x="654" y="161" type="line"/>
      <point x="699" y="52"/>
      <point x="748" y="-10"/>
      <point x="832" y="-10" type="curve" smooth="yes"/>
      <point x="942" y="-10"/>
      <point x="1014" y="99"/>
      <point x="1014" y="257" type="curve" smooth="yes"/>
      <point x="1014" y="414"/>
      <point x="945" y="518"/>
      <point x="838" y="518" type="curve" smooth="yes"/>
      <point x="750" y="518"/>
      <point x="701" y="449"/>
      <point x="649" y="338" type="curve"/>
      <point x="664" y="311" type="line"/>
      <point x="707" y="416"/>
      <point x="760" y="489"/>
      <point x="833" y="489" type="curve" smooth="yes"/>
      <point x="925" y="489"/>
      <point x="974" y="400"/>
    </contour>
    <contour>
      <point x="680" y="735" type="line"/>
      <point x="597" y="735" type="line"/>
      <point x="642" y="704" type="line"/>
      <point x="642" y="-3" type="line"/>
      <point x="666" y="-3" type="line"/>
      <point x="678" y="127" type="line"/>
      <point x="680" y="142" type="line"/>
    </contour>
    <contour>
      <point x="29" y="508" type="line"/>
      <point x="29" y="483" type="line"/>
      <point x="350" y="483" type="line"/>
      <point x="350" y="508" type="line"/>
    </contour>
    <contour>
      <point x="293" y="508" type="line"/>
      <point x="293" y="483" type="line"/>
      <point x="542" y="483" type="line"/>
      <point x="542" y="508" type="line"/>
    </contour>
  </outline>
</glyph>
<glyph name="f_f_j.alt" format="2">
  <advance width="757"/>
  <outline>
    <contour>
      <point x="33" y="0" type="line"/>
      <point x="234" y="0" type="line"/>
      <point x="234" y="26" type="line"/>
      <point x="225" y="26" type="line" smooth="yes"/>
      <point x="182" y="26"/>
      <point x="150" y="29"/>
      <point x="150" y="36" type="curve" smooth="yes"/>
      <point x="150" y="559" type="line" smooth="yes"/>
      <point x="150" y="673"/>
      <point x="205" y="703"/>
      <point x="279" y="703" type="curve" smooth="yes"/>
      <point x="332" y="703"/>
      <point x="374" y="686"/>
      <point x="401" y="639" type="curve"/>
      <point x="407" y="681"/>
      <point x="394" y="679"/>
      <point x="377" y="693" type="curve"/>
      <point x="377" y="570" type="line"/>
      <point x="413" y="620" type="line"/>
      <point x="413" y="681" type="line"/>
      <point x="392" y="707"/>
      <point x="347" y="732"/>
      <point x="279" y="732" type="curve" smooth="yes"/>
      <point x="182" y="732"/>
      <point x="112" y="688"/>
      <point x="112" y="559" type="curve" smooth="yes"/>
      <point x="112" y="62" type="line"/>
      <point x="112" y="33"/>
      <point x="86" y="26"/>
      <point x="42" y="26" type="curve" smooth="yes"/>
      <point x="33" y="26" type="line"/>
    </contour>
    <contour>
      <point x="377" y="36" type="line" smooth="yes"/>
      <point x="377" y="29"/>
      <point x="343" y="26"/>
      <point x="310" y="26" type="curve" smooth="yes"/>
      <point x="297" y="26" type="line"/>
      <point x="297" y="0" type="line"/>
      <point x="501" y="0" type="line"/>
      <point x="501" y="26" type="line"/>
      <point x="490" y="26" type="line" smooth="yes"/>
      <point x="447" y="26"/>
      <point x="415" y="29"/>
      <point x="415" y="36" type="curve"/>
      <point x="415" y="579" type="line" smooth="yes"/>
      <point x="415" y="693"/>
      <point x="466" y="723"/>
      <point x="540" y="723" type="curve" smooth="yes"/>
      <point x="591" y="723"/>
      <point x="628" y="710"/>
      <point x="653" y="676" type="curve"/>
      <point x="659" y="705"/>
      <point x="647" y="704"/>
      <point x="630" y="727" type="curve"/>
      <point x="630" y="640" type="line"/>
      <point x="672" y="640" type="line"/>
      <point x="672" y="707" type="line"/>
      <point x="651" y="731"/>
      <point x="608" y="752"/>
      <point x="540" y="752" type="curve" smooth="yes"/>
      <point x="446" y="752"/>
      <point x="377" y="708"/>
      <point x="377" y="579" type="curve" smooth="yes"/>
    </contour>
    <contour>
      <point x="642" y="-77" type="line" smooth="yes"/>
      <point x="642" y="-173"/>
      <point x="610" y="-206"/>
      <point x="558" y="-206" type="curve" smooth="yes"/>
      <point x="529" y="-206"/>
      <point x="508" y="-196"/>
      <point x="489" y="-187" type="curve"/>
      <point x="489" y="-220" type="line"/>
      <point x="505" y="-229"/>
      <point x="527" y="-236"/>
      <point x="559" y="-236" type="curve" smooth="yes"/>
      <point x="618" y="-236"/>
      <point x="680" y="-205"/>
      <point x="680" y="-77" type="curve" smooth="yes"/>
      <point x="680" y="508" type="line"/>
      <point x="574" y="508" type="line"/>
      <point x="574" y="483" type="line"/>
      <point x="582" y="483" type="line" smooth="yes"/>
      <point x="624" y="483"/>
      <point x="642" y="469"/>
      <point x="642" y="440" type="curve" smooth="yes"/>
    </contour>
    <contour>
      <point x="29" y="508" type="line"/>
      <point x="29" y="483" type="line"/>
      <point x="348" y="483" type="line"/>
      <point x="348" y="508" type="line"/>
    </contour>
    <contour>
      <point x="293" y="508" type="line"/>
      <point x="293" y="483" type="line"/>
      <point x="621" y="483" type="line"/>
      <point x="621" y="508" type="line"/>
    </contour>
  </outline>
</glyph>
<glyph name="f_f_j" format="2">
  <advance width="758"/>
  <outline>
    <contour>
      <point x="29" y="508" type="line"/>
      <point x="29" y="483" type="line"/>
      <point x="348" y="483" type="line"/>
      <point x="348" y="508" type="line"/>
    </contour>
    <contour>
      <point x="650" y="659" type="curve" smooth="yes"/>
      <point x="670" y="659"/>
      <point x="685" y="672"/>
      <point x="685" y="698" type="curve" smooth="yes"/>
      <point x="685" y="723"/>
      <point x="670" y="737"/>
      <point x="650" y="737" type="curve" smooth="yes"/>
      <point x="630" y="737"/>
      <point x="616" y="723"/>
      <point x="616" y="698" type="curve" smooth="yes"/>
      <point x="616" y="672"/>
      <point x="630" y="659"/>
    </contour>
    <contour>
      <point x="293" y="508" type="line"/>
      <point x="293" y="483" type="line"/>
      <point x="621" y="483" type="line"/>
      <point x="621" y="508" type="line"/>
    </contour>
    <contour>
      <point x="642" y="-77" type="line" smooth="yes"/>
      <point x="642" y="-173"/>
      <point x="610" y="-206"/>
      <point x="558" y="-206" type="curve" smooth="yes"/>
      <point x="529" y="-206"/>
      <point x="508" y="-196"/>
      <point x="489" y="-187" type="curve"/>
      <point x="489" y="-220" type="line"/>
      <point x="505" y="-229"/>
      <point x="527" y="-236"/>
      <point x="559" y="-236" type="curve" smooth="yes"/>
      <point x="618" y="-236"/>
      <point x="680" y="-205"/>
      <point x="680" y="-77" type="curve" smooth="yes"/>
      <point x="680" y="508" type="line"/>
      <point x="574" y="508" type="line"/>
      <point x="574" y="483" type="line"/>
      <point x="582" y="483" type="line" smooth="yes"/>
      <point x="624" y="483"/>
      <point x="642" y="469"/>
      <point x="642" y="440" type="curve" smooth="yes"/>
    </contour>
    <contour>
      <point x="150" y="36" type="curve"/>
      <point x="150" y="578" type="line" smooth="yes"/>
      <point x="150" y="677"/>
      <point x="181" y="711"/>
      <point x="231" y="711" type="curve" smooth="yes"/>
      <point x="256" y="711"/>
      <point x="277" y="702"/>
      <point x="294" y="694" type="curve"/>
      <point x="294" y="727" type="line"/>
      <point x="280" y="733"/>
      <point x="256" y="737"/>
      <point x="232" y="737" type="curve" smooth="yes"/>
      <point x="164" y="737"/>
      <point x="112" y="690"/>
      <point x="112" y="578" type="curve" smooth="yes"/>
      <point x="112" y="62" type="line" smooth="yes"/>
      <point x="112" y="33"/>
      <point x="86" y="26"/>
      <point x="42" y="26" type="curve" smooth="yes"/>
      <point x="33" y="26" type="line"/>
      <point x="33" y="0" type="line"/>
      <point x="234" y="0" type="line"/>
      <point x="234" y="26" type="line"/>
      <point x="225" y="26" type="line" smooth="yes"/>
      <point x="182" y="26"/>
      <point x="150" y="29"/>
    </contour>
    <contour>
      <point x="377" y="36" type="line"/>
      <point x="377" y="29"/>
      <point x="343" y="26"/>
      <point x="310" y="26" type="curve" smooth="yes"/>
      <point x="297" y="26" type="line"/>
      <point x="297" y="0" type="line"/>
      <point x="501" y="0" type="line"/>
      <point x="501" y="26" type="line"/>
      <point x="490" y="26" type="line" smooth="yes"/>
      <point x="447" y="26"/>
      <point x="415" y="29"/>
      <point x="415" y="36" type="curve" smooth="yes"/>
      <point x="415" y="593" type="line" smooth="yes"/>
      <point x="415" y="692"/>
      <point x="444" y="726"/>
      <point x="492" y="726" type="curve" smooth="yes"/>
      <point x="517" y="726"/>
      <point x="537" y="717"/>
      <point x="553" y="709" type="curve"/>
      <point x="553" y="742" type="line"/>
      <point x="540" y="748"/>
      <point x="517" y="752"/>
      <point x="494" y="752" type="curve" smooth="yes"/>
      <point x="428" y="752"/>
      <point x="377" y="705"/>
      <point x="377" y="593" type="curve"/>
    </contour>
  </outline>
</glyph>
<glyph name="f_j.alt" format="2">
  <advance width="493"/>
  <outline>
    <contour>
      <point x="29" y="508" type="line"/>
      <point x="29" y="483" type="line"/>
      <point x="359" y="483" type="line"/>
      <point x="359" y="508" type="line"/>
    </contour>
    <contour>
      <point x="377" y="-77" type="line" smooth="yes"/>
      <point x="377" y="-173"/>
      <point x="345" y="-206"/>
      <point x="293" y="-206" type="curve" smooth="yes"/>
      <point x="265" y="-206"/>
      <point x="244" y="-196"/>
      <point x="225" y="-187" type="curve"/>
      <point x="225" y="-220" type="line"/>
      <point x="240" y="-229"/>
      <point x="262" y="-236"/>
      <point x="294" y="-236" type="curve" smooth="yes"/>
      <point x="353" y="-236"/>
      <point x="415" y="-205"/>
      <point x="415" y="-77" type="curve" smooth="yes"/>
      <point x="415" y="508" type="line"/>
      <point x="308" y="508" type="line"/>
      <point x="308" y="483" type="line"/>
      <point x="317" y="483" type="line" smooth="yes"/>
      <point x="359" y="483"/>
      <point x="377" y="469"/>
      <point x="377" y="440" type="curve" smooth="yes"/>
    </contour>
    <contour>
      <point x="150" y="36" type="curve" smooth="yes"/>
      <point x="150" y="579" type="line" smooth="yes"/>
      <point x="150" y="693"/>
      <point x="202" y="723"/>
      <point x="276" y="723" type="curve" smooth="yes"/>
      <point x="326" y="723"/>
      <point x="364" y="710"/>
      <point x="389" y="676" type="curve"/>
      <point x="394" y="705"/>
      <point x="382" y="704"/>
      <point x="365" y="727" type="curve"/>
      <point x="365" y="640" type="line"/>
      <point x="408" y="640" type="line"/>
      <point x="408" y="707" type="line"/>
      <point x="386" y="731"/>
      <point x="343" y="752"/>
      <point x="276" y="752" type="curve" smooth="yes"/>
      <point x="182" y="752"/>
      <point x="112" y="708"/>
      <point x="112" y="579" type="curve" smooth="yes"/>
      <point x="112" y="62" type="line"/>
      <point x="112" y="33"/>
      <point x="86" y="26"/>
      <point x="42" y="26" type="curve" smooth="yes"/>
      <point x="33" y="26" type="line"/>
      <point x="33" y="0" type="line"/>
      <point x="236" y="0" type="line"/>
      <point x="236" y="26" type="line"/>
      <point x="226" y="26" type="line" smooth="yes"/>
      <point x="183" y="26"/>
      <point x="150" y="29"/>
    </contour>
  </outline>
</glyph>
<glyph name="f_l" format="2">
  <advance width="509"/>
  <outline>
    <contour>
      <point x="29" y="508" type="line"/>
      <point x="29" y="483" type="line"/>
      <point x="278" y="483" type="line"/>
      <point x="278" y="508" type="line"/>
    </contour>
    <contour>
      <point x="377" y="36" type="line"/>
      <point x="377" y="29"/>
      <point x="341" y="26"/>
      <point x="318" y="26" type="curve" smooth="yes"/>
      <point x="309" y="26" type="line"/>
      <point x="309" y="0" type="line"/>
      <point x="482" y="0" type="line"/>
      <point x="482" y="26" type="line"/>
      <point x="481" y="26" type="line" smooth="yes"/>
      <point x="442" y="26"/>
      <point x="415" y="33"/>
      <point x="415" y="62" type="curve"/>
      <point x="415" y="735" type="line"/>
      <point x="333" y="735" type="line"/>
      <point x="377" y="703" type="line"/>
    </contour>
    <contour>
      <point x="236" y="0" type="line"/>
      <point x="236" y="26" type="line"/>
      <point x="226" y="26" type="line" smooth="yes"/>
      <point x="183" y="26"/>
      <point x="150" y="29"/>
      <point x="150" y="36" type="curve" smooth="yes"/>
      <point x="150" y="597" type="line" smooth="yes"/>
      <point x="150" y="696"/>
      <point x="189" y="723"/>
      <point x="263" y="723" type="curve" smooth="yes"/>
      <point x="311" y="723"/>
      <point x="357" y="708"/>
      <point x="395" y="676" type="curve"/>
      <point x="400" y="712" type="line"/>
      <point x="370" y="727"/>
      <point x="326" y="752"/>
      <point x="263" y="752" type="curve" smooth="yes"/>
      <point x="172" y="752"/>
      <point x="112" y="709"/>
      <point x="112" y="597" type="curve" smooth="yes"/>
      <point x="112" y="62" type="line"/>
      <point x="112" y="33"/>
      <point x="86" y="26"/>
      <point x="42" y="26" type="curve" smooth="yes"/>
      <point x="33" y="26" type="line"/>
      <point x="33" y="0" type="line"/>
    </contour>
  </outline>
</glyph>
<glyph name="five.midprop" format="2">
  <advance width="453"/>
  <outline>
    <contour>
      <point x="225" y="-88" type="curve" smooth="yes"/>
      <point x="131" y="-88"/>
      <point x="70" y="-21"/>
      <point x="42" y="68" type="curve"/>
      <point x="68" y="84" type="line"/>
      <point x="88" y="18"/>
      <point x="135" y="-59"/>
      <point x="225" y="-59" type="curve" smooth="yes"/>
      <point x="318" y="-59"/>
      <point x="375" y="31"/>
      <point x="375" y="154" type="curve" smooth="yes"/>
      <point x="375" y="271"/>
      <point x="316" y="342"/>
      <point x="242" y="342" type="curve" smooth="yes"/>
      <point x="181" y="342"/>
      <point x="143" y="306"/>
      <point x="107" y="244" type="curve"/>
      <point x="83" y="244" type="line"/>
      <point x="83" y="609" type="line"/>
      <point x="377" y="609" type="line"/>
      <point x="369" y="574" type="line"/>
      <point x="99" y="574" type="line"/>
      <point x="112" y="589" type="line"/>
      <point x="112" y="270" type="line"/>
      <point x="110" y="260"/>
      <point x="103" y="251"/>
      <point x="96" y="262" type="curve"/>
      <point x="129" y="325"/>
      <point x="177" y="370"/>
      <point x="247" y="370" type="curve" smooth="yes"/>
      <point x="354" y="370"/>
      <point x="415" y="267"/>
      <point x="415" y="154" type="curve" smooth="yes"/>
      <point x="415" y="20"/>
      <point x="343" y="-88"/>
    </contour>
  </outline>
</glyph>
<glyph name="five.oldprop" format="2">
  <advance width="448"/>
  <outline>
    <contour>
      <point x="223" y="-149" type="curve" smooth="yes"/>
      <point x="128" y="-149"/>
      <point x="68" y="-82"/>
      <point x="39" y="7" type="curve"/>
      <point x="65" y="23" type="line"/>
      <point x="86" y="-43"/>
      <point x="133" y="-120"/>
      <point x="223" y="-120" type="curve" smooth="yes"/>
      <point x="316" y="-120"/>
      <point x="372" y="-30"/>
      <point x="372" y="93" type="curve" smooth="yes"/>
      <point x="372" y="210"/>
      <point x="313" y="281"/>
      <point x="239" y="281" type="curve" smooth="yes"/>
      <point x="179" y="281"/>
      <point x="140" y="245"/>
      <point x="105" y="183" type="curve"/>
      <point x="81" y="183" type="line"/>
      <point x="81" y="548" type="line"/>
      <point x="371" y="548" type="line"/>
      <point x="364" y="513" type="line"/>
      <point x="97" y="513" type="line"/>
      <point x="110" y="528" type="line"/>
      <point x="110" y="209" type="line"/>
      <point x="107" y="199"/>
      <point x="101" y="190"/>
      <point x="94" y="201" type="curve"/>
      <point x="127" y="264"/>
      <point x="174" y="309"/>
      <point x="244" y="309" type="curve" smooth="yes"/>
      <point x="352" y="309"/>
      <point x="412" y="206"/>
      <point x="412" y="93" type="curve" smooth="yes"/>
      <point x="412" y="-41"/>
      <point x="340" y="-149"/>
    </contour>
  </outline>
</glyph>
<glyph name="five.oldtab" format="2">
  <advance width="452"/>
  <outline>
    <contour>
      <point x="224" y="-149" type="curve"/>
      <point x="124" y="-149"/>
      <point x="67" y="-85"/>
      <point x="39" y="-3" type="curve"/>
      <point x="65" y="12" type="line"/>
      <point x="91" y="-64"/>
      <point x="139" y="-120"/>
      <point x="224" y="-120" type="curve"/>
      <point x="317" y="-120"/>
      <point x="374" y="-32"/>
      <point x="374" y="91" type="curve" smooth="yes"/>
      <point x="374" y="209"/>
      <point x="312" y="277"/>
      <point x="237" y="277" type="curve" smooth="yes"/>
      <point x="176" y="277"/>
      <point x="135" y="241"/>
      <point x="99" y="179" type="curve"/>
      <point x="75" y="179" type="line"/>
      <point x="75" y="548" type="line"/>
      <point x="379" y="548" type="line"/>
      <point x="370" y="513" type="line"/>
      <point x="91" y="513" type="line"/>
      <point x="104" y="528" type="line"/>
      <point x="104" y="205" type="line"/>
      <point x="102" y="195"/>
      <point x="95" y="185"/>
      <point x="88" y="197" type="curve"/>
      <point x="122" y="259"/>
      <point x="171" y="305"/>
      <point x="242" y="305" type="curve" smooth="yes"/>
      <point x="351" y="305"/>
      <point x="414" y="205"/>
      <point x="414" y="91" type="curve" smooth="yes"/>
      <point x="414" y="-44"/>
      <point x="340" y="-149"/>
    </contour>
  </outline>
</glyph>
<glyph name="four.lintab" format="2">
  <advance width="452"/>
  <outline>
    <contour>
      <point x="190" y="0" type="line"/>
      <point x="426" y="0" type="line"/>
      <point x="426" y="26" type="line"/>
      <point x="417" y="26" type="line" smooth="yes"/>
      <point x="367" y="26"/>
      <point x="332" y="33"/>
      <point x="332" y="62" type="curve" smooth="yes"/>
      <point x="332" y="710" type="line"/>
      <point x="294" y="710" type="line"/>
      <point x="294" y="694" type="line"/>
      <point x="294" y="62" type="line" smooth="yes"/>
      <point x="294" y="33"/>
      <point x="262" y="26"/>
      <point x="211" y="26" type="curve" smooth="yes"/>
      <point x="190" y="26" type="line"/>
    </contour>
    <contour>
      <point x="29" y="214" type="line"/>
      <point x="434" y="214" type="line"/>
      <point x="434" y="247" type="line"/>
      <point x="45" y="247" type="line"/>
      <point x="49" y="225" type="line"/>
      <point x="307" y="707" type="line"/>
      <point x="319" y="710" type="line"/>
      <point x="278" y="710" type="line"/>
      <point x="29" y="250" type="line"/>
    </contour>
  </outline>
</glyph>
<glyph name="four.oldtab" format="2">
  <advance width="452"/>
  <outline>
    <contour>
      <point x="30" y="51" type="line"/>
      <point x="435" y="51" type="line"/>
      <point x="435" y="84" type="line"/>
      <point x="46" y="84" type="line"/>
      <point x="50" y="62" type="line"/>
      <point x="309" y="544" type="line"/>
      <point x="318" y="548" type="line"/>
      <point x="279" y="548" type="line"/>
      <point x="30" y="87" type="line"/>
    </contour>
    <contour>
      <point x="333" y="-138" type="line"/>
      <point x="333" y="548" type="line"/>
      <point x="295" y="548" type="line"/>
      <point x="295" y="529" type="line"/>
      <point x="295" y="-138" type="line"/>
    </contour>
  </outline>
</glyph>
<glyph name="guarani.proportional" format="2">
  <advance width="577"/>
  <outline>
    <contour>
      <point x="279" y="790" type="line"/>
      <point x="279" y="684" type="line"/>
      <point x="279" y="680" type="line"/>
      <point x="279" y="24" type="line"/>
      <point x="279" y="19" type="line"/>
      <point x="279" y="-120" type="line"/>
      <point x="310" y="-120" type="line"/>
      <point x="310" y="21" type="line"/>
      <point x="310" y="28" type="line"/>
      <point x="310" y="684" type="line"/>
      <point x="310" y="689" type="line"/>
      <point x="310" y="790" type="line"/>
    </contour>
    <contour>
      <point x="305" y="10" type="curve" smooth="yes"/>
      <point x="400" y="10"/>
      <point x="476" y="72"/>
      <point x="504" y="122" type="curve"/>
      <point x="504" y="288" type="line"/>
      <point x="504" y="317"/>
      <point x="529" y="324"/>
      <point x="564" y="324" type="curve" smooth="yes"/>
      <point x="567" y="324" type="line"/>
      <point x="567" y="353" type="line"/>
      <point x="393" y="353" type="line"/>
      <point x="393" y="324" type="line"/>
      <point x="402" y="324" type="line" smooth="yes"/>
      <point x="441" y="324"/>
      <point x="470" y="317"/>
      <point x="470" y="288" type="curve"/>
      <point x="470" y="132" type="line"/>
      <point x="451" y="102"/>
      <point x="400" y="39"/>
      <point x="306" y="39" type="curve" smooth="yes"/>
      <point x="163" y="39"/>
      <point x="79" y="158"/>
      <point x="79" y="355" type="curve" smooth="yes"/>
      <point x="79" y="549"/>
      <point x="168" y="671"/>
      <point x="309" y="671" type="curve" smooth="yes"/>
      <point x="394" y="671"/>
      <point x="448" y="628"/>
      <point x="477" y="593" type="curve"/>
      <point x="487" y="562"/>
      <point x="487" y="594"/>
      <point x="456" y="628" type="curve"/>
      <point x="456" y="523" type="line"/>
      <point x="502" y="523" type="line"/>
      <point x="502" y="617" type="line"/>
      <point x="468" y="655"/>
      <point x="402" y="700"/>
      <point x="309" y="700" type="curve" smooth="yes"/>
      <point x="149" y="700"/>
      <point x="39" y="560"/>
      <point x="39" y="355" type="curve" smooth="yes"/>
      <point x="39" y="149"/>
      <point x="146" y="10"/>
    </contour>
  </outline>
</glyph>
<glyph name="heart" format="2">
  <advance width="727"/>
  <outline>
    <contour>
      <point x="354" y="-10" type="line"/>
      <point x="372" y="-10" type="line"/>
      <point x="564" y="273" type="line" smooth="yes"/>
      <point x="632" y="375"/>
      <point x="670" y="437"/>
      <point x="670" y="535" type="curve" smooth="yes"/>
      <point x="670" y="632"/>
      <point x="617" y="710"/>
      <point x="523" y="710" type="curve" smooth="yes"/>
      <point x="448" y="710"/>
      <point x="394" y="657"/>
      <point x="364" y="569" type="curve"/>
      <point x="332" y="657"/>
      <point x="279" y="710"/>
      <point x="203" y="710" type="curve" smooth="yes"/>
      <point x="110" y="710"/>
      <point x="56" y="632"/>
      <point x="56" y="535" type="curve" smooth="yes"/>
      <point x="56" y="437"/>
      <point x="94" y="375"/>
      <point x="163" y="273" type="curve" smooth="yes"/>
    </contour>
  </outline>
</glyph>
<glyph name="heartsuitwhite" format="2">
  <advance width="727"/>
  <outline>
    <contour>
      <point x="360" y="461" type="curve"/>
      <point x="368" y="461" type="line"/>
      <point x="393" y="541"/>
      <point x="444" y="641"/>
      <point x="517" y="641" type="curve" smooth="yes"/>
      <point x="577" y="641"/>
      <point x="612" y="594"/>
      <point x="612" y="528" type="curve" smooth="yes"/>
      <point x="612" y="446"/>
      <point x="578" y="397"/>
      <point x="524" y="316" type="curve" smooth="yes"/>
      <point x="367" y="83" type="line"/>
      <point x="360" y="83" type="line"/>
      <point x="203" y="316" type="line" smooth="yes"/>
      <point x="149" y="397"/>
      <point x="115" y="446"/>
      <point x="115" y="528" type="curve" smooth="yes"/>
      <point x="115" y="594"/>
      <point x="150" y="641"/>
      <point x="210" y="641" type="curve" smooth="yes"/>
      <point x="283" y="641"/>
      <point x="334" y="541"/>
    </contour>
    <contour>
      <point x="372" y="-10" type="line"/>
      <point x="564" y="273" type="line" smooth="yes"/>
      <point x="632" y="375"/>
      <point x="670" y="437"/>
      <point x="670" y="535" type="curve" smooth="yes"/>
      <point x="670" y="632"/>
      <point x="617" y="710"/>
      <point x="523" y="710" type="curve" smooth="yes"/>
      <point x="448" y="710"/>
      <point x="394" y="657"/>
      <point x="364" y="569" type="curve"/>
      <point x="332" y="657"/>
      <point x="279" y="710"/>
      <point x="203" y="710" type="curve" smooth="yes"/>
      <point x="110" y="710"/>
      <point x="56" y="632"/>
      <point x="56" y="535" type="curve" smooth="yes"/>
      <point x="56" y="437"/>
      <point x="94" y="375"/>
      <point x="163" y="273" type="curve" smooth="yes"/>
      <point x="354" y="-10" type="line"/>
    </contour>
  </outline>
</glyph>
<glyph name="kgreenlandic" format="2">
  <advance width="477"/>
  <outline>
    <contour>
      <point x="454" y="0" type="line"/>
      <point x="454" y="29" type="line"/>
      <point x="453" y="29" type="line"/>
      <point x="425" y="29"/>
      <point x="402" y="36"/>
      <point x="377" y="67" type="curve" smooth="yes"/>
      <point x="200" y="290" type="line"/>
      <point x="200" y="273" type="line"/>
      <point x="341" y="430" type="line" smooth="yes"/>
      <point x="370" y="463"/>
      <point x="397" y="479"/>
      <point x="432" y="479" type="curve"/>
      <point x="433" y="479" type="line"/>
      <point x="433" y="508" type="line"/>
      <point x="255" y="508" type="line"/>
      <point x="255" y="479" type="line"/>
      <point x="258" y="479" type="line"/>
      <point x="284" y="479"/>
      <point x="325" y="476"/>
      <point x="325" y="461" type="curve"/>
      <point x="165" y="281" type="line"/>
      <point x="165" y="276" type="line"/>
      <point x="349" y="39" type="line"/>
      <point x="349" y="32"/>
      <point x="314" y="29"/>
      <point x="289" y="29" type="curve"/>
      <point x="284" y="29" type="line"/>
      <point x="284" y="0" type="line"/>
    </contour>
    <contour>
      <point x="135" y="508" type="line"/>
      <point x="29" y="508" type="line"/>
      <point x="29" y="484" type="line"/>
      <point x="37" y="482" type="line" smooth="yes"/>
      <point x="78" y="472"/>
      <point x="97" y="466"/>
      <point x="97" y="437" type="curve" smooth="yes"/>
      <point x="97" y="62" type="line" smooth="yes"/>
      <point x="97" y="33"/>
      <point x="70" y="26"/>
      <point x="31" y="26" type="curve"/>
      <point x="29" y="26" type="line"/>
      <point x="29" y="0" type="line"/>
      <point x="195" y="0" type="line"/>
      <point x="195" y="26" type="line"/>
      <point x="192" y="26" type="line" smooth="yes"/>
      <point x="171" y="26"/>
      <point x="135" y="29"/>
      <point x="135" y="36" type="curve" smooth="yes"/>
    </contour>
  </outline>
</glyph>
<glyph name="lira.alt" format="2">
  <advance width="452"/>
  <outline>
    <contour>
      <point x="39" y="0" type="line"/>
      <point x="414" y="0" type="line"/>
      <point x="414" y="166" type="line"/>
      <point x="389" y="166" type="line"/>
      <point x="382" y="71" type="line" smooth="yes"/>
      <point x="380" y="35"/>
      <point x="351" y="28"/>
      <point x="281" y="28" type="curve" smooth="yes"/>
      <point x="62" y="28" type="line"/>
      <point x="78" y="19" type="line"/>
      <point x="148" y="65"/>
      <point x="187" y="134"/>
      <point x="187" y="219" type="curve" smooth="yes"/>
      <point x="187" y="329"/>
      <point x="121" y="411"/>
      <point x="121" y="528" type="curve" smooth="yes"/>
      <point x="121" y="633"/>
      <point x="176" y="690"/>
      <point x="251" y="690" type="curve" smooth="yes"/>
      <point x="312" y="690"/>
      <point x="353" y="658"/>
      <point x="375" y="634" type="curve"/>
      <point x="375" y="643"/>
      <point x="365" y="658"/>
      <point x="354" y="673" type="curve"/>
      <point x="354" y="578" type="line"/>
      <point x="397" y="578" type="line"/>
      <point x="397" y="661" type="line"/>
      <point x="375" y="683"/>
      <point x="328" y="718"/>
      <point x="251" y="718" type="curve" smooth="yes"/>
      <point x="152" y="718"/>
      <point x="80" y="643"/>
      <point x="80" y="528" type="curve" smooth="yes"/>
      <point x="80" y="402"/>
      <point x="154" y="310"/>
      <point x="154" y="220" type="curve" smooth="yes"/>
      <point x="154" y="121"/>
      <point x="105" y="75"/>
      <point x="39" y="33" type="curve"/>
    </contour>
    <contour>
      <point x="36" y="427" type="line"/>
      <point x="36" y="398" type="line"/>
      <point x="322" y="398" type="line"/>
      <point x="322" y="427" type="line"/>
    </contour>
    <contour>
      <point x="36" y="272" type="line"/>
      <point x="36" y="243" type="line"/>
      <point x="322" y="243" type="line"/>
      <point x="322" y="272" type="line"/>
    </contour>
  </outline>
</glyph>
<glyph name="lira.altprop" format="2">
  <advance width="479"/>
  <outline>
    <contour>
      <point x="29" y="427" type="line"/>
      <point x="29" y="398" type="line"/>
      <point x="334" y="398" type="line"/>
      <point x="334" y="427" type="line"/>
    </contour>
    <contour>
      <point x="29" y="272" type="line"/>
      <point x="29" y="243" type="line"/>
      <point x="334" y="243" type="line"/>
      <point x="334" y="272" type="line"/>
    </contour>
    <contour>
      <point x="38" y="0" type="line"/>
      <point x="431" y="0" type="line"/>
      <point x="431" y="166" type="line"/>
      <point x="406" y="166" type="line"/>
      <point x="399" y="71" type="line" smooth="yes"/>
      <point x="396" y="35"/>
      <point x="367" y="28"/>
      <point x="298" y="28" type="curve"/>
      <point x="60" y="28" type="line"/>
      <point x="77" y="19" type="line"/>
      <point x="147" y="65"/>
      <point x="186" y="134"/>
      <point x="186" y="219" type="curve" smooth="yes"/>
      <point x="186" y="329"/>
      <point x="119" y="411"/>
      <point x="119" y="528" type="curve" smooth="yes"/>
      <point x="119" y="633"/>
      <point x="178" y="690"/>
      <point x="259" y="690" type="curve" smooth="yes"/>
      <point x="321" y="690"/>
      <point x="362" y="658"/>
      <point x="384" y="634" type="curve"/>
      <point x="384" y="643"/>
      <point x="374" y="658"/>
      <point x="364" y="673" type="curve"/>
      <point x="364" y="578" type="line"/>
      <point x="407" y="578" type="line"/>
      <point x="407" y="661" type="line"/>
      <point x="385" y="683"/>
      <point x="337" y="718"/>
      <point x="259" y="718" type="curve" smooth="yes"/>
      <point x="154" y="718"/>
      <point x="79" y="643"/>
      <point x="79" y="528" type="curve" smooth="yes"/>
      <point x="79" y="402"/>
      <point x="152" y="310"/>
      <point x="152" y="220" type="curve" smooth="yes"/>
      <point x="152" y="121"/>
      <point x="104" y="75"/>
      <point x="38" y="33" type="curve"/>
    </contour>
  </outline>
</glyph>
<glyph name="liraTurkish" format="2">
  <advance width="453"/>
  <outline>
    <contour>
      <point x="31" y="375" type="line"/>
      <point x="31" y="346" type="line"/>
      <point x="351" y="525" type="line"/>
      <point x="351" y="553" type="line"/>
    </contour>
    <contour>
      <point x="31" y="210" type="line"/>
      <point x="31" y="181" type="line"/>
      <point x="351" y="360" type="line"/>
      <point x="351" y="388" type="line"/>
    </contour>
    <contour>
      <point x="218" y="29" type="curve" smooth="yes"/>
      <point x="146" y="29" type="line"/>
      <point x="146" y="645" type="line" smooth="yes"/>
      <point x="146" y="674"/>
      <point x="176" y="681"/>
      <point x="218" y="681" type="curve" smooth="yes"/>
      <point x="227" y="681" type="line"/>
      <point x="227" y="710" type="line"/>
      <point x="31" y="710" type="line"/>
      <point x="31" y="681" type="line"/>
      <point x="40" y="681" type="line" smooth="yes"/>
      <point x="80" y="681"/>
      <point x="108" y="674"/>
      <point x="108" y="645" type="curve" smooth="yes"/>
      <point x="108" y="65" type="line" smooth="yes"/>
      <point x="108" y="36"/>
      <point x="80" y="29"/>
      <point x="40" y="29" type="curve" smooth="yes"/>
      <point x="31" y="29" type="line"/>
      <point x="31" y="0" type="line"/>
      <point x="215" y="0" type="line" smooth="yes"/>
      <point x="360" y="0"/>
      <point x="434" y="102"/>
      <point x="442" y="269" type="curve"/>
      <point x="405" y="280" type="line"/>
      <point x="400" y="119"/>
      <point x="344" y="29"/>
    </contour>
  </outline>
</glyph>
<glyph name="manat.proportional" format="2">
  <advance width="523"/>
  <outline>
    <contour>
      <point x="245" y="720" type="line"/>
      <point x="245" y="144" type="line"/>
      <point x="277" y="144" type="line"/>
      <point x="277" y="720" type="line"/>
    </contour>
    <contour>
      <point x="261" y="561" type="curve" smooth="yes"/>
      <point x="380" y="561"/>
      <point x="443" y="370"/>
      <point x="443" y="0" type="curve"/>
      <point x="483" y="0" type="line"/>
      <point x="483" y="363"/>
      <point x="401" y="590"/>
      <point x="261" y="590" type="curve" smooth="yes"/>
      <point x="121" y="590"/>
      <point x="39" y="363"/>
      <point x="39" y="0" type="curve"/>
      <point x="79" y="0" type="line"/>
      <point x="79" y="370"/>
      <point x="142" y="561"/>
    </contour>
  </outline>
</glyph>
<glyph name="nine.oldtab" format="2">
  <advance width="452"/>
  <outline>
    <contour>
      <point x="75" y="-124" type="line"/>
      <point x="256" y="-107"/>
      <point x="373" y="45"/>
      <point x="373" y="278" type="curve" smooth="yes"/>
      <point x="373" y="445"/>
      <point x="311" y="530"/>
      <point x="221" y="530" type="curve" smooth="yes"/>
      <point x="128" y="530"/>
      <point x="75" y="439"/>
      <point x="75" y="329" type="curve" smooth="yes"/>
      <point x="75" y="223"/>
      <point x="124" y="144"/>
      <point x="210" y="144" type="curve" smooth="yes"/>
      <point x="288" y="144"/>
      <point x="349" y="220"/>
      <point x="384" y="308" type="curve"/>
      <point x="393" y="286" type="line"/>
      <point x="363" y="199"/>
      <point x="294" y="116"/>
      <point x="206" y="116" type="curve" smooth="yes"/>
      <point x="103" y="116"/>
      <point x="34" y="204"/>
      <point x="34" y="329" type="curve" smooth="yes"/>
      <point x="34" y="452"/>
      <point x="111" y="558"/>
      <point x="221" y="558" type="curve" smooth="yes"/>
      <point x="330" y="558"/>
      <point x="413" y="454"/>
      <point x="413" y="277" type="curve" smooth="yes"/>
      <point x="413" y="36"/>
      <point x="281" y="-136"/>
      <point x="79" y="-152" type="curve"/>
    </contour>
  </outline>
</glyph>
<glyph name="one.linprop" format="2">
  <advance width="410"/>
  <outline>
    <contour>
      <point x="247" y="62" type="curve" smooth="yes"/>
      <point x="247" y="710" type="line"/>
      <point x="223" y="710" type="line"/>
      <point x="195" y="658"/>
      <point x="139" y="636"/>
      <point x="75" y="634" type="curve"/>
      <point x="75" y="606" type="line"/>
      <point x="133" y="604"/>
      <point x="201" y="629"/>
      <point x="216" y="675" type="curve"/>
      <point x="210" y="675" type="line"/>
      <point x="210" y="62" type="line" smooth="yes"/>
      <point x="210" y="33"/>
      <point x="177" y="26"/>
      <point x="125" y="26" type="curve" smooth="yes"/>
      <point x="84" y="26" type="line"/>
      <point x="84" y="0" type="line"/>
      <point x="369" y="0" type="line"/>
      <point x="369" y="26" type="line"/>
      <point x="340" y="26" type="line" smooth="yes"/>
      <point x="283" y="26"/>
      <point x="247" y="33"/>
    </contour>
  </outline>
</glyph>
<glyph name="one.oldtab" format="2">
  <advance width="452"/>
  <outline>
    <contour>
      <point x="275" y="62" type="curve" smooth="yes"/>
      <point x="275" y="548" type="line"/>
      <point x="250" y="548" type="line"/>
      <point x="223" y="496"/>
      <point x="166" y="474"/>
      <point x="92" y="472" type="curve"/>
      <point x="92" y="444" type="line"/>
      <point x="160" y="442"/>
      <point x="228" y="467"/>
      <point x="244" y="513" type="curve"/>
      <point x="237" y="513" type="line"/>
      <point x="237" y="62" type="line" smooth="yes"/>
      <point x="237" y="33"/>
      <point x="205" y="26"/>
      <point x="152" y="26" type="curve" smooth="yes"/>
      <point x="100" y="26" type="line"/>
      <point x="100" y="0" type="line"/>
      <point x="407" y="0" type="line"/>
      <point x="407" y="26" type="line"/>
      <point x="367" y="26" type="line" smooth="yes"/>
      <point x="310" y="26"/>
      <point x="275" y="33"/>
    </contour>
  </outline>
</glyph>
<glyph name="peseta.proportional" format="2">
  <advance width="642"/>
  <outline>
    <contour>
      <point x="36" y="0" type="line"/>
      <point x="234" y="0" type="line"/>
      <point x="234" y="29" type="line"/>
      <point x="212" y="29" type="line" smooth="yes"/>
      <point x="185" y="29"/>
      <point x="151" y="32"/>
      <point x="151" y="39" type="curve" smooth="yes"/>
      <point x="151" y="279" type="line"/>
      <point x="183" y="279" type="line" smooth="yes"/>
      <point x="318" y="279"/>
      <point x="387" y="368"/>
      <point x="387" y="498" type="curve" smooth="yes"/>
      <point x="387" y="628"/>
      <point x="321" y="710"/>
      <point x="187" y="710" type="curve" smooth="yes"/>
      <point x="36" y="710" type="line"/>
      <point x="36" y="681" type="line"/>
      <point x="45" y="681" type="line" smooth="yes"/>
      <point x="84" y="681"/>
      <point x="113" y="674"/>
      <point x="113" y="645" type="curve" smooth="yes"/>
      <point x="113" y="65" type="line" smooth="yes"/>
      <point x="113" y="36"/>
      <point x="84" y="29"/>
      <point x="45" y="29" type="curve" smooth="yes"/>
      <point x="36" y="29" type="line"/>
    </contour>
    <contour>
      <point x="187" y="681" type="line" smooth="yes"/>
      <point x="297" y="681"/>
      <point x="346" y="614"/>
      <point x="346" y="497" type="curve" smooth="yes"/>
      <point x="346" y="382"/>
      <point x="298" y="308"/>
      <point x="183" y="308" type="curve" smooth="yes"/>
      <point x="151" y="308" type="line"/>
      <point x="151" y="681" type="line"/>
    </contour>
    <contour>
      <point x="482" y="508" type="line"/>
      <point x="456" y="492" type="line"/>
      <point x="456" y="133" type="line" smooth="yes"/>
      <point x="456" y="27"/>
      <point x="508" y="-11"/>
      <point x="565" y="-11" type="curve" smooth="yes"/>
      <point x="588" y="-11"/>
      <point x="608" y="-4"/>
      <point x="621" y="4" type="curve"/>
      <point x="621" y="33" type="line"/>
      <point x="608" y="28"/>
      <point x="592" y="21"/>
      <point x="571" y="21" type="curve" smooth="yes"/>
      <point x="527" y="21"/>
      <point x="494" y="53"/>
      <point x="494" y="133" type="curve" smooth="yes"/>
      <point x="494" y="648" type="line"/>
      <point x="463" y="648" type="line"/>
      <point x="463" y="553" type="line" smooth="yes"/>
      <point x="463" y="512"/>
      <point x="439" y="503"/>
      <point x="392" y="503" type="curve" smooth="yes"/>
      <point x="364" y="503" type="line"/>
      <point x="364" y="479" type="line"/>
      <point x="613" y="479" type="line"/>
      <point x="613" y="508" type="line"/>
    </contour>
  </outline>
</glyph>
<glyph name="plus.sup" format="2">
  <advance width="323"/>
  <outline>
    <contour>
      <point x="147" y="705" type="line"/>
      <point x="147" y="414" type="line"/>
      <point x="174" y="414" type="line"/>
      <point x="174" y="705" type="line"/>
    </contour>
    <contour>
      <point x="274" y="574" type="line"/>
      <point x="48" y="574" type="line"/>
      <point x="48" y="545" type="line"/>
      <point x="274" y="545" type="line"/>
    </contour>
  </outline>
</glyph>
<glyph name="ring.uc" format="2">
  <advance width="403"/>
  <anchor x="202" y="731" name="_top"/>
  <outline>
    <contour>
      <point x="152" y="855" type="curve" smooth="yes"/>
      <point x="152" y="898"/>
      <point x="174" y="920"/>
      <point x="202" y="920" type="curve" smooth="yes"/>
      <point x="230" y="920"/>
      <point x="252" y="898"/>
      <point x="252" y="855" type="curve" smooth="yes"/>
      <point x="252" y="812"/>
      <point x="230" y="790"/>
      <point x="202" y="790" type="curve" smooth="yes"/>
      <point x="174" y="790"/>
      <point x="152" y="812"/>
    </contour>
    <contour>
      <point x="285" y="855" type="curve" smooth="yes"/>
      <point x="285" y="913"/>
      <point x="247" y="946"/>
      <point x="202" y="946" type="curve" smooth="yes"/>
      <point x="156" y="946"/>
      <point x="119" y="913"/>
      <point x="119" y="855" type="curve" smooth="yes"/>
      <point x="119" y="797"/>
      <point x="157" y="764"/>
      <point x="202" y="764" type="curve" smooth="yes"/>
      <point x="247" y="764"/>
      <point x="285" y="797"/>
    </contour>
  </outline>
</glyph>
<glyph name="ruble.proportional" format="2">
  <advance width="496"/>
  <outline>
    <contour>
      <point x="51" y="375" type="line"/>
      <point x="270" y="375" type="line" smooth="yes"/>
      <point x="382" y="375"/>
      <point x="424" y="436"/>
      <point x="424" y="530" type="curve" smooth="yes"/>
      <point x="424" y="626"/>
      <point x="382" y="681"/>
      <point x="274" y="681" type="curve" smooth="yes"/>
      <point x="167" y="681" type="line"/>
      <point x="167" y="39" type="line" smooth="yes"/>
      <point x="167" y="32"/>
      <point x="201" y="29"/>
      <point x="229" y="29" type="curve" smooth="yes"/>
      <point x="251" y="29" type="line"/>
      <point x="251" y="0" type="line"/>
      <point x="51" y="0" type="line"/>
      <point x="51" y="29" type="line"/>
      <point x="60" y="29" type="line" smooth="yes"/>
      <point x="100" y="29"/>
      <point x="129" y="36"/>
      <point x="129" y="65" type="curve" smooth="yes"/>
      <point x="129" y="645" type="line" smooth="yes"/>
      <point x="129" y="674"/>
      <point x="100" y="681"/>
      <point x="60" y="681" type="curve" smooth="yes"/>
      <point x="51" y="681" type="line"/>
      <point x="51" y="710" type="line"/>
      <point x="274" y="710" type="line" smooth="yes"/>
      <point x="406" y="710"/>
      <point x="464" y="641"/>
      <point x="464" y="531" type="curve" smooth="yes"/>
      <point x="464" y="421"/>
      <point x="402" y="346"/>
      <point x="270" y="346" type="curve" smooth="yes"/>
      <point x="51" y="346" type="line"/>
    </contour>
    <contour>
      <point x="332" y="187" type="line"/>
      <point x="51" y="187" type="line"/>
      <point x="51" y="216" type="line"/>
      <point x="332" y="216" type="line"/>
    </contour>
  </outline>
</glyph>
<glyph name="seven.lintab" format="2">
  <advance width="452"/>
  <outline>
    <contour>
      <point x="186" y="675" type="line" smooth="yes"/>
      <point x="116" y="675"/>
      <point x="88" y="668"/>
      <point x="85" y="632" type="curve" smooth="yes"/>
      <point x="78" y="542" type="line"/>
      <point x="54" y="542" type="line"/>
      <point x="54" y="710" type="line"/>
      <point x="425" y="710" type="line"/>
      <point x="425" y="675" type="line"/>
      <point x="325" y="507"/>
      <point x="232" y="341"/>
      <point x="211" y="0" type="curve"/>
      <point x="170" y="0" type="line"/>
      <point x="193" y="349"/>
      <point x="317" y="534"/>
      <point x="404" y="687" type="curve"/>
      <point x="410" y="675" type="line"/>
    </contour>
  </outline>
</glyph>
<glyph name="six.lintab" format="2">
  <advance width="452"/>
  <outline>
    <contour>
      <point x="358" y="712" type="line"/>
      <point x="197" y="675"/>
      <point x="79" y="503"/>
      <point x="79" y="287" type="curve" smooth="yes"/>
      <point x="79" y="112"/>
      <point x="144" y="19"/>
      <point x="235" y="19" type="curve" smooth="yes"/>
      <point x="323" y="19"/>
      <point x="376" y="116"/>
      <point x="376" y="234" type="curve" smooth="yes"/>
      <point x="376" y="347"/>
      <point x="329" y="431"/>
      <point x="245" y="431" type="curve" smooth="yes"/>
      <point x="168" y="431"/>
      <point x="105" y="356"/>
      <point x="68" y="268" type="curve"/>
      <point x="59" y="290" type="line"/>
      <point x="91" y="377"/>
      <point x="162" y="459"/>
      <point x="248" y="459" type="curve" smooth="yes"/>
      <point x="350" y="459"/>
      <point x="416" y="366"/>
      <point x="416" y="234" type="curve" smooth="yes"/>
      <point x="416" y="103"/>
      <point x="340" y="-10"/>
      <point x="235" y="-10" type="curve" smooth="yes"/>
      <point x="125" y="-10"/>
      <point x="39" y="103"/>
      <point x="39" y="287" type="curve" smooth="yes"/>
      <point x="39" y="503"/>
      <point x="166" y="704"/>
      <point x="354" y="740" type="curve"/>
    </contour>
  </outline>
</glyph>
<glyph name="sterling.altprop" format="2">
  <advance width="479"/>
  <outline>
    <contour>
      <point x="29" y="351" type="line"/>
      <point x="29" y="322" type="line"/>
      <point x="342" y="322" type="line"/>
      <point x="342" y="351" type="line"/>
    </contour>
    <contour>
      <point x="119" y="528" type="curve" smooth="yes"/>
      <point x="119" y="633"/>
      <point x="177" y="690"/>
      <point x="258" y="690" type="curve" smooth="yes"/>
      <point x="320" y="690"/>
      <point x="361" y="658"/>
      <point x="383" y="633" type="curve"/>
      <point x="383" y="643"/>
      <point x="373" y="657"/>
      <point x="363" y="673" type="curve"/>
      <point x="363" y="576" type="line"/>
      <point x="406" y="576" type="line"/>
      <point x="406" y="661" type="line"/>
      <point x="384" y="683"/>
      <point x="336" y="718"/>
      <point x="258" y="718" type="curve" smooth="yes"/>
      <point x="153" y="718"/>
      <point x="79" y="643"/>
      <point x="79" y="529" type="curve" smooth="yes"/>
      <point x="79" y="402"/>
      <point x="152" y="310"/>
      <point x="152" y="220" type="curve" smooth="yes"/>
      <point x="152" y="121"/>
      <point x="104" y="75"/>
      <point x="38" y="33" type="curve"/>
      <point x="38" y="0" type="line"/>
      <point x="431" y="0" type="line"/>
      <point x="431" y="166" type="line"/>
      <point x="406" y="166" type="line"/>
      <point x="399" y="71" type="line" smooth="yes"/>
      <point x="396" y="35"/>
      <point x="367" y="28"/>
      <point x="298" y="28" type="curve"/>
      <point x="60" y="28" type="line"/>
      <point x="75" y="22" type="line"/>
      <point x="147" y="65"/>
      <point x="186" y="134"/>
      <point x="186" y="219" type="curve" smooth="yes"/>
      <point x="186" y="329"/>
      <point x="119" y="411"/>
    </contour>
  </outline>
</glyph>
<glyph name="thai:baht.proportional" format="2">
  <advance width="494"/>
  <outline>
    <contour>
      <point x="242" y="790" type="line"/>
      <point x="242" y="700" type="line"/>
      <point x="243" y="693" type="line"/>
      <point x="243" y="20" type="line"/>
      <point x="242" y="10" type="line"/>
      <point x="242" y="-120" type="line"/>
      <point x="272" y="-120" type="line"/>
      <point x="272" y="10" type="line"/>
      <point x="272" y="20" type="line"/>
      <point x="272" y="692" type="line"/>
      <point x="272" y="700" type="line"/>
      <point x="272" y="790" type="line"/>
    </contour>
    <contour>
      <point x="260" y="385" type="curve"/>
      <point x="138" y="385" type="line"/>
      <point x="138" y="682" type="line"/>
      <point x="272" y="682" type="line"/>
      <point x="356" y="682"/>
      <point x="394" y="631"/>
      <point x="394" y="542" type="curve" smooth="yes"/>
      <point x="394" y="450"/>
      <point x="354" y="385"/>
    </contour>
    <contour>
      <point x="263" y="359" type="line"/>
      <point x="366" y="359"/>
      <point x="415" y="290"/>
      <point x="415" y="191" type="curve" smooth="yes"/>
      <point x="415" y="87"/>
      <point x="369" y="28"/>
      <point x="277" y="28" type="curve" smooth="yes"/>
      <point x="138" y="28" type="line"/>
      <point x="138" y="359" type="line"/>
    </contour>
    <contour>
      <point x="234" y="363" type="line"/>
      <point x="371" y="363"/>
      <point x="434" y="435"/>
      <point x="434" y="543" type="curve" smooth="yes"/>
      <point x="434" y="646"/>
      <point x="376" y="711"/>
      <point x="272" y="711" type="curve"/>
      <point x="24" y="711" type="line"/>
      <point x="24" y="681" type="line"/>
      <point x="32" y="681" type="line" smooth="yes"/>
      <point x="72" y="681"/>
      <point x="101" y="674"/>
      <point x="101" y="645" type="curve" smooth="yes"/>
      <point x="101" y="65" type="line" smooth="yes"/>
      <point x="101" y="36"/>
      <point x="72" y="29"/>
      <point x="32" y="29" type="curve" smooth="yes"/>
      <point x="24" y="29" type="line"/>
      <point x="24" y="-1" type="line"/>
      <point x="277" y="-1" type="line" smooth="yes"/>
      <point x="390" y="-1"/>
      <point x="456" y="72"/>
      <point x="456" y="190" type="curve" smooth="yes"/>
      <point x="456" y="309"/>
      <point x="384" y="384"/>
      <point x="238" y="384" type="curve"/>
      <point x="317" y="364" type="line"/>
      <point x="317" y="382" type="line"/>
    </contour>
  </outline>
</glyph>
<glyph name="three.lintab" format="2">
  <advance width="452"/>
  <outline>
    <contour>
      <point x="222" y="379" type="line"/>
      <point x="355" y="379"/>
      <point x="411" y="300"/>
      <point x="411" y="196" type="curve" smooth="yes"/>
      <point x="411" y="76"/>
      <point x="332" y="-10"/>
      <point x="224" y="-10" type="curve" smooth="yes"/>
      <point x="120" y="-10"/>
      <point x="55" y="60"/>
      <point x="25" y="161" type="curve"/>
      <point x="50" y="175" type="line"/>
      <point x="74" y="92"/>
      <point x="128" y="19"/>
      <point x="224" y="19" type="curve" smooth="yes"/>
      <point x="312" y="19"/>
      <point x="371" y="84"/>
      <point x="371" y="196" type="curve" smooth="yes"/>
      <point x="371" y="297"/>
      <point x="320" y="360"/>
      <point x="205" y="360" type="curve" smooth="yes"/>
      <point x="155" y="360" type="line"/>
      <point x="155" y="388" type="line"/>
      <point x="202" y="388" type="line" smooth="yes"/>
      <point x="285" y="388"/>
      <point x="345" y="439"/>
      <point x="345" y="538" type="curve" smooth="yes"/>
      <point x="345" y="646"/>
      <point x="292" y="690"/>
      <point x="225" y="690" type="curve" smooth="yes"/>
      <point x="155" y="690"/>
      <point x="111" y="652"/>
      <point x="89" y="618" type="curve"/>
      <point x="91" y="644"/>
      <point x="106" y="668"/>
      <point x="109" y="669" type="curve"/>
      <point x="109" y="567" type="line"/>
      <point x="67" y="567" type="line"/>
      <point x="67" y="646" type="line"/>
      <point x="91" y="673"/>
      <point x="142" y="718"/>
      <point x="225" y="718" type="curve" smooth="yes"/>
      <point x="319" y="718"/>
      <point x="385" y="651"/>
      <point x="385" y="550" type="curve" smooth="yes"/>
      <point x="385" y="425"/>
      <point x="298" y="369"/>
      <point x="207" y="369" type="curve"/>
      <point x="263" y="382" type="line"/>
      <point x="263" y="368" type="line"/>
    </contour>
  </outline>
</glyph>
